<svg width="25" height="25" viewBox="0 0 25 25" fill="none" xmlns="http://www.w3.org/2000/svg">
<path fill-rule="evenodd" clip-rule="evenodd" d="M9.69707 5.67549C7.81685 6.47632 7.24234 8.16504 7.57312 10.0801C7.78203 11.2291 8.19986 12.3781 8.93106 13.7535C9.66226 15.1462 10.6024 16.4519 11.5947 17.4965C14.2932 20.2646 18.663 19.7946 17.218 17.3572C16.4868 16.2082 16.0689 15.2681 16.0689 15.2681C16.0689 15.2681 15.7556 14.6065 15.1288 14.9896C14.4673 15.4074 13.8405 15.86 13.5272 15.7904C13.0397 15.7208 9.22702 10.8287 10.6894 10.0627C11.351 9.7493 12.5 9.36629 12.0125 8.56546C11.6643 7.97354 10.4109 5.86699 10.4109 5.86699C10.4109 5.86699 10.1671 5.41435 9.67967 5.65808L9.69707 5.67549ZM12.5 0C15.9471 0 19.0808 1.39276 21.344 3.65599C23.6072 5.91922 25 9.03551 25 12.5C25 15.9471 23.6072 19.0808 21.344 21.344C19.0808 23.6072 15.9645 25 12.5 25C9.05292 25 5.91922 23.6072 3.65599 21.344C1.39276 19.0808 0 15.9645 0 12.5C0 9.05292 1.39276 5.91922 3.65599 3.65599C5.91922 1.39276 9.03551 0 12.5 0ZM19.6553 5.3273C17.8273 3.4993 15.2855 2.36769 12.5 2.36769C9.69707 2.36769 7.1727 3.4993 5.34471 5.3273C3.51671 7.15529 2.3851 9.69707 2.3851 12.4826C2.3851 15.2855 3.51671 17.8099 5.34471 19.6379C7.1727 21.4659 9.71448 22.5975 12.5 22.5975C15.3029 22.5975 17.8273 21.4659 19.6553 19.6379C21.4833 17.8099 22.6149 15.2681 22.6149 12.4826C22.6149 9.67967 21.4833 7.15529 19.6553 5.3273Z" fill="black"/>
</svg>
