<svg width="49" height="45" viewBox="0 0 49 45" fill="none" xmlns="http://www.w3.org/2000/svg">
<path d="M48.9245 1.008C48.8321 0.726845 48.6565 0.481473 48.4215 0.305367C48.1866 0.129262 47.9039 0.0310035 47.6119 0.024C47.5439 0.015 47.3724 0 47.3015 0H11.8254C8.68909 0 5.68126 1.26428 3.46357 3.51472C1.24588 5.76516 0 8.8174 0 12C0 15.1826 1.24588 18.2348 3.46357 20.4853C5.68126 22.7357 8.68909 24 11.8254 24H20.6944V27.573L5.91268 35.073V31.5C5.91268 31.1022 5.75695 30.7206 5.47974 30.4393C5.20253 30.158 4.82655 30 4.43451 30C4.04248 30 3.6665 30.158 3.38929 30.4393C3.11208 30.7206 2.95634 31.1022 2.95634 31.5V43.5C2.95634 43.8978 3.11208 44.2794 3.38929 44.5607C3.6665 44.842 4.04248 45 4.43451 45C4.82655 45 5.20253 44.842 5.47974 44.5607C5.75695 44.2794 5.91268 43.8978 5.91268 43.5V38.427L23.6507 29.427V24H33.9979C34.39 24 34.7659 23.842 35.0432 23.5607C35.3204 23.2794 35.4761 22.8978 35.4761 22.5V21H42.867C43.259 21 43.635 20.842 43.9122 20.5607C44.1894 20.2794 44.3451 19.8978 44.3451 19.5V10.5C44.3451 10.1022 44.1894 9.72064 43.9122 9.43934C43.635 9.15804 43.259 9 42.867 9H41.3119L48.4633 2.649C48.6934 2.45388 48.8604 2.1931 48.9426 1.90049C49.0249 1.60787 49.0186 1.29693 48.9245 1.008ZM41.3888 12V18H35.4761V14.181L38.4324 11.556V12H41.3888ZM33.0253 12.372C32.8667 12.5126 32.7396 12.686 32.6524 12.8806C32.5652 13.0751 32.52 13.2863 32.5198 13.5V21H11.8254C9.47316 21 7.21728 20.0518 5.55402 18.364C3.89075 16.6761 2.95634 14.3869 2.95634 12C2.95634 9.61305 3.89075 7.32387 5.55402 5.63604C7.21728 3.94821 9.47316 3 11.8254 3V15H14.7817V3H17.7381V9H20.6944V3H43.5587L33.0253 12.372Z" fill="url(#paint0_linear)"/>
<defs>
<linearGradient id="paint0_linear" x1="24.5" y1="0" x2="24.5" y2="45" gradientUnits="userSpaceOnUse">
<stop stop-color="#00D1FF"/>
<stop offset="1" stop-color="#003399"/>
</linearGradient>
</defs>
</svg>
