<svg width="77" height="77" viewBox="0 0 77 77" fill="none" xmlns="http://www.w3.org/2000/svg">
<circle cx="38.5" cy="38.5" r="38.5" fill="white"/>
<path d="M19 33.0971V42.6146C19 44.0979 19.5795 45.5203 20.6109 46.5691C21.6424 47.618 23.0413 48.2072 24.5 48.2072H26.63V52.4778C26.6306 52.772 26.7148 53.0597 26.8726 53.3063C27.0303 53.5529 27.2548 53.7479 27.519 53.8677C27.7832 53.9876 28.0759 54.0271 28.3617 53.9817C28.6476 53.9362 28.9144 53.8077 29.13 53.6116L35.05 48.2072H40.895C42.3537 48.2072 43.7526 47.618 44.7841 46.5691C45.8155 45.5203 46.395 44.0979 46.395 42.6146V41.3944H47.13L50.86 44.5313C51.0793 44.7154 51.3455 44.8324 51.6277 44.8685C51.9098 44.9046 52.1962 44.8584 52.4536 44.7353C52.7109 44.6122 52.9285 44.4173 53.081 44.1732C53.2335 43.9292 53.3147 43.6461 53.315 43.3569V41.3233C54.6163 41.125 55.8047 40.4589 56.6643 39.4458C57.5239 38.4328 57.9978 37.1399 58 35.8019V28.5926C58 27.8582 57.8577 27.1309 57.5813 26.4524C57.3049 25.7739 56.8998 25.1574 56.3891 24.6381C55.8784 24.1187 55.272 23.7068 54.6048 23.4257C53.9375 23.1447 53.2223 23 52.5 23H40.415C39.1386 22.9953 37.9003 23.4421 36.9123 24.264C35.9244 25.0858 35.2483 26.2315 35 27.5046H24.5C23.0413 27.5046 21.6424 28.0938 20.6109 29.1426C19.5795 30.1914 19 31.6139 19 33.0971ZM40.415 26.0505H52.5C53.163 26.0505 53.7989 26.3183 54.2678 26.7951C54.7366 27.2718 55 27.9184 55 28.5926V35.8019C55 36.4761 54.7366 37.1227 54.2678 37.5994C53.7989 38.0761 53.163 38.344 52.5 38.344H51.815C51.4172 38.344 51.0356 38.5046 50.7543 38.7907C50.473 39.0767 50.315 39.4647 50.315 39.8692V40.1183L48.625 38.6948C48.3565 38.4685 48.0188 38.3444 47.67 38.344H46.395V33.0971C46.395 31.6139 45.8155 30.1914 44.7841 29.1426C43.7526 28.0938 42.3537 27.5046 40.895 27.5046H38.165C38.3669 27.071 38.6853 26.7044 39.0835 26.4471C39.4816 26.1898 39.9432 26.0523 40.415 26.0505ZM22 33.0971C22 32.4229 22.2634 31.7763 22.7322 31.2996C23.2011 30.8229 23.837 30.5551 24.5 30.5551H40.895C41.558 30.5551 42.1939 30.8229 42.6628 31.2996C43.1316 31.7763 43.395 32.4229 43.395 33.0971V42.6146C43.395 43.2888 43.1316 43.9354 42.6628 44.4121C42.1939 44.8889 41.558 45.1567 40.895 45.1567H34.475C34.1056 45.1575 33.7496 45.2969 33.475 45.5482L29.645 49.0511V46.6819C29.645 46.2774 29.487 45.8895 29.2057 45.6034C28.9244 45.3174 28.5428 45.1567 28.145 45.1567H24.5C23.837 45.1567 23.2011 44.8889 22.7322 44.4121C22.2634 43.9354 22 43.2888 22 42.6146V33.0971Z" fill="#000F75"/>
</svg>
