<svg width="39" height="31" viewBox="0 0 39 31" fill="none" xmlns="http://www.w3.org/2000/svg">
<path d="M0 10.0971V19.6146C0 21.0979 0.579463 22.5203 1.61091 23.5691C2.64236 24.618 4.04131 25.2072 5.5 25.2072H7.63V29.4778C7.63058 29.772 7.71482 30.0597 7.87255 30.3063C8.03029 30.5529 8.25479 30.7479 8.51901 30.8677C8.78323 30.9876 9.07589 31.0271 9.36172 30.9817C9.64755 30.9362 9.91436 30.8077 10.13 30.6116L16.05 25.2072H21.895C23.3537 25.2072 24.7526 24.618 25.7841 23.5691C26.8155 22.5203 27.395 21.0979 27.395 19.6146V18.3944H28.13L31.86 21.5313C32.0793 21.7154 32.3455 21.8324 32.6277 21.8685C32.9098 21.9046 33.1962 21.8584 33.4536 21.7353C33.7109 21.6122 33.9285 21.4173 34.081 21.1732C34.2335 20.9292 34.3147 20.6461 34.315 20.3569V18.3233C35.6163 18.125 36.8047 17.4589 37.6643 16.4458C38.5239 15.4328 38.9978 14.1399 39 12.8019V5.59258C39 4.85816 38.8577 4.13093 38.5813 3.45241C38.3049 2.77389 37.8998 2.15737 37.3891 1.63806C36.8784 1.11874 36.272 0.706796 35.6048 0.425744C34.9375 0.144692 34.2223 3.72976e-05 33.5 3.72976e-05H21.415C20.1386 -0.00470089 18.9003 0.442141 17.9123 1.26398C16.9244 2.08581 16.2483 3.23147 16 4.50458H5.5C4.04131 4.50458 2.64236 5.09379 1.61091 6.1426C0.579463 7.1914 0 8.61389 0 10.0971ZM21.415 3.05052H33.5C34.163 3.05052 34.7989 3.31834 35.2678 3.79507C35.7366 4.2718 36 4.91839 36 5.59258V12.8019C36 13.4761 35.7366 14.1227 35.2678 14.5994C34.7989 15.0761 34.163 15.344 33.5 15.344H32.815C32.4172 15.344 32.0356 15.5046 31.7543 15.7907C31.473 16.0767 31.315 16.4647 31.315 16.8692V17.1183L29.625 15.6948C29.3565 15.4685 29.0188 15.3444 28.67 15.344H27.395V10.0971C27.395 8.61389 26.8155 7.1914 25.7841 6.1426C24.7526 5.09379 23.3537 4.50458 21.895 4.50458H19.165C19.3669 4.07104 19.6853 3.70444 20.0835 3.44714C20.4816 3.18983 20.9432 3.05233 21.415 3.05052ZM3 10.0971C3 9.42293 3.26339 8.77634 3.73223 8.29961C4.20107 7.82288 4.83696 7.55506 5.5 7.55506H21.895C22.558 7.55506 23.1939 7.82288 23.6628 8.29961C24.1316 8.77634 24.395 9.42293 24.395 10.0971V19.6146C24.395 20.2888 24.1316 20.9354 23.6628 21.4121C23.1939 21.8889 22.558 22.1567 21.895 22.1567H15.475C15.1056 22.1575 14.7496 22.2969 14.475 22.5482L10.645 26.0511V23.6819C10.645 23.2774 10.487 22.8895 10.2057 22.6034C9.92436 22.3174 9.54282 22.1567 9.145 22.1567H5.5C4.83696 22.1567 4.20107 21.8889 3.73223 21.4121C3.26339 20.9354 3 20.2888 3 19.6146V10.0971Z" fill="#000F75"/>
</svg>
