<svg width="53" height="49" viewBox="0 0 53 49" fill="none" xmlns="http://www.w3.org/2000/svg">
<path d="M49.7145 0H2.7117C1.21665 0 0 1.21876 0 2.71642C0 4.21407 1.21665 5.43283 2.7117 5.43283H3.6156V47.99C3.6156 48.3558 3.83615 48.6872 4.17421 48.8267C4.51046 48.9643 4.89914 48.89 5.15946 48.6311L6.3273 47.4594L7.49514 48.6293C7.84766 48.9824 8.42073 48.9824 8.77325 48.6293L9.9429 47.4594L11.1107 48.6293C11.4633 48.9824 12.0363 48.9824 12.3888 48.6293L13.5585 47.4594L14.7263 48.6293C15.0789 48.9824 15.6519 48.9824 16.0044 48.6293L17.1741 47.4594L18.3419 48.6293C18.6945 48.9824 19.2675 48.9824 19.62 48.6293L20.7897 47.4594L21.9575 48.6293C22.1311 48.8031 22.3625 48.8955 22.5975 48.8955C22.7132 48.8955 22.8325 48.8719 22.9428 48.8267C23.2808 48.6872 23.5014 48.3558 23.5014 47.99V5.43283H28.9248V47.99C28.9248 48.3558 29.1453 48.6872 29.4834 48.8267C29.8197 48.9643 30.2083 48.89 30.4687 48.6311L31.6365 47.4594L32.8043 48.6293C33.1568 48.9824 33.7299 48.9824 34.0824 48.6293L35.2521 47.4594L36.4199 48.6293C36.7724 48.9824 37.3455 48.9824 37.698 48.6293L38.8677 47.4594L40.0355 48.6293C40.388 48.9824 40.9611 48.9824 41.3136 48.6293L42.4833 47.4594L43.6511 48.6293C44.0036 48.9824 44.5767 48.9824 44.9292 48.6293L46.0989 47.4594L47.2667 48.6293C47.4403 48.8031 47.6717 48.8955 47.9067 48.8955C48.0224 48.8955 48.1417 48.8719 48.252 48.8267C48.59 48.6872 48.8106 48.3558 48.8106 47.99V5.43283H49.7145C51.2095 5.43283 52.4262 4.21407 52.4262 2.71642C52.4262 1.21876 51.2095 0 49.7145 0ZM21.6936 45.8042L21.4297 45.5398C21.0771 45.1867 20.5041 45.1867 20.1515 45.5398L18.9819 46.7097L17.8141 45.5398C17.6369 45.3623 17.4055 45.2736 17.1741 45.2736C16.9427 45.2736 16.7113 45.3623 16.5341 45.538L15.3663 46.7097L14.1985 45.5398C13.8459 45.1867 13.2729 45.1867 12.9203 45.5398L11.7507 46.7097L10.5829 45.5398C10.2303 45.1867 9.65726 45.1867 9.30474 45.5398L8.1351 46.7097L6.96726 45.5398C6.61474 45.1867 6.04167 45.1867 5.68914 45.5398L5.4234 45.8042V6.71317L5.68734 6.97757C6.03986 7.3307 6.61293 7.3307 6.96545 6.97757L8.1351 5.8077L9.30294 6.97757C9.65546 7.3307 10.2285 7.3307 10.5811 6.97757L11.7507 5.8077L12.9185 6.97757C13.2711 7.3307 13.8441 7.3307 14.1966 6.97757L15.3663 5.8077L16.5341 6.97757C16.8867 7.3307 17.4597 7.3307 17.8122 6.97757L18.9819 5.8077L20.1497 6.97757C20.5023 7.3307 21.0753 7.3307 21.4278 6.97757L21.6936 6.71317V45.8042ZM47.0028 45.8042L46.7388 45.5398C46.3863 45.1867 45.8133 45.1867 45.4607 45.5398L44.2911 46.7097L43.1232 45.5398C42.9461 45.3623 42.7147 45.2736 42.4833 45.2736C42.2519 45.2736 42.0205 45.3623 41.8433 45.538L40.6755 46.7097L39.5076 45.5398C39.1551 45.1867 38.5821 45.1867 38.2295 45.5398L37.0599 46.7097L35.8921 45.5398C35.5395 45.1867 34.9665 45.1867 34.6139 45.5398L33.4443 46.7097L32.2765 45.5398C31.9239 45.1867 31.3509 45.1867 30.9983 45.5398L30.7326 45.8042V6.71317L30.9965 6.97757C31.3491 7.3307 31.9221 7.3307 32.2746 6.97757L33.4443 5.8077L34.6121 6.97757C34.9646 7.3307 35.5377 7.3307 35.8902 6.97757L37.0599 5.8077L38.2277 6.97757C38.5802 7.3307 39.1533 7.3307 39.5058 6.97757L40.6755 5.8077L41.8433 6.97757C42.1958 7.3307 42.7689 7.3307 43.1214 6.97757L44.2911 5.8077L45.4589 6.97757C45.8114 7.3307 46.3845 7.3307 46.737 6.97757L47.0028 6.71317V45.8042ZM49.7145 3.62189H2.7117C2.21455 3.62189 1.8078 3.21624 1.8078 2.71642C1.8078 2.21659 2.21455 1.81094 2.7117 1.81094H49.7145C50.2116 1.81094 50.6184 2.21659 50.6184 2.71642C50.6184 3.21624 50.2116 3.62189 49.7145 3.62189Z" fill="url(#paint0_linear)"/>
<path d="M9.9429 9.05464C9.44395 9.05464 9.039 9.46029 9.039 9.96011V42.5571C9.039 43.0569 9.44395 43.4626 9.9429 43.4626C10.4419 43.4626 10.8468 43.0569 10.8468 42.5571V9.96011C10.8468 9.46029 10.4419 9.05464 9.9429 9.05464Z" fill="url(#paint1_linear)"/>
<path d="M13.5585 9.05464C13.0595 9.05464 12.6546 9.46029 12.6546 9.96011V42.5571C12.6546 43.0569 13.0595 43.4626 13.5585 43.4626C14.0575 43.4626 14.4624 43.0569 14.4624 42.5571V9.96011C14.4624 9.46029 14.0575 9.05464 13.5585 9.05464Z" fill="url(#paint2_linear)"/>
<path d="M17.1741 9.05464C16.6751 9.05464 16.2702 9.46029 16.2702 9.96011V42.5571C16.2702 43.0569 16.6751 43.4626 17.1741 43.4626C17.6731 43.4626 18.078 43.0569 18.078 42.5571V9.96011C18.078 9.46029 17.6731 9.05464 17.1741 9.05464Z" fill="url(#paint3_linear)"/>
<path d="M42.4833 9.05464C41.9843 9.05464 41.5794 9.46029 41.5794 9.96011V42.5571C41.5794 43.0569 41.9843 43.4626 42.4833 43.4626C42.9822 43.4626 43.3872 43.0569 43.3872 42.5571V9.96011C43.3872 9.46029 42.9822 9.05464 42.4833 9.05464Z" fill="url(#paint4_linear)"/>
<path d="M38.8677 9.05464C38.3687 9.05464 37.9638 9.46029 37.9638 9.96011V42.5571C37.9638 43.0569 38.3687 43.4626 38.8677 43.4626C39.3666 43.4626 39.7716 43.0569 39.7716 42.5571V9.96011C39.7716 9.46029 39.3666 9.05464 38.8677 9.05464Z" fill="url(#paint5_linear)"/>
<path d="M35.2521 9.05464C34.7531 9.05464 34.3482 9.46029 34.3482 9.96011V42.5571C34.3482 43.0569 34.7531 43.4626 35.2521 43.4626C35.751 43.4626 36.156 43.0569 36.156 42.5571V9.96011C36.156 9.46029 35.751 9.05464 35.2521 9.05464Z" fill="url(#paint6_linear)"/>
<defs>
<linearGradient id="paint0_linear" x1="26.2131" y1="0" x2="26.2131" y2="48.8955" gradientUnits="userSpaceOnUse">
<stop stop-color="#00D1FF"/>
<stop offset="1" stop-color="#003399"/>
</linearGradient>
<linearGradient id="paint1_linear" x1="26.2131" y1="0" x2="26.2131" y2="48.8955" gradientUnits="userSpaceOnUse">
<stop stop-color="#00D1FF"/>
<stop offset="1" stop-color="#003399"/>
</linearGradient>
<linearGradient id="paint2_linear" x1="26.2131" y1="0" x2="26.2131" y2="48.8955" gradientUnits="userSpaceOnUse">
<stop stop-color="#00D1FF"/>
<stop offset="1" stop-color="#003399"/>
</linearGradient>
<linearGradient id="paint3_linear" x1="26.2131" y1="0" x2="26.2131" y2="48.8955" gradientUnits="userSpaceOnUse">
<stop stop-color="#00D1FF"/>
<stop offset="1" stop-color="#003399"/>
</linearGradient>
<linearGradient id="paint4_linear" x1="26.2131" y1="0" x2="26.2131" y2="48.8955" gradientUnits="userSpaceOnUse">
<stop stop-color="#00D1FF"/>
<stop offset="1" stop-color="#003399"/>
</linearGradient>
<linearGradient id="paint5_linear" x1="26.2131" y1="0" x2="26.2131" y2="48.8955" gradientUnits="userSpaceOnUse">
<stop stop-color="#00D1FF"/>
<stop offset="1" stop-color="#003399"/>
</linearGradient>
<linearGradient id="paint6_linear" x1="26.2131" y1="0" x2="26.2131" y2="48.8955" gradientUnits="userSpaceOnUse">
<stop stop-color="#00D1FF"/>
<stop offset="1" stop-color="#003399"/>
</linearGradient>
</defs>
</svg>
