<svg width="100" height="100" viewBox="0 0 100 100" fill="none" xmlns="http://www.w3.org/2000/svg">
<circle cx="50" cy="50" r="49" stroke="black" stroke-width="2"/>
<path d="M54.2392 32.9565C55.1164 32.0036 55.6587 30.724 55.6587 29.3133C55.6587 26.383 53.3352 24 50.4782 24C47.6211 24 45.2977 26.383 45.2977 29.3133C45.2977 30.724 45.8399 32.0036 46.7171 32.9565C42.9872 33.5383 40.1172 36.8397 40.1172 40.8255V46.1389C40.1172 46.6286 40.504 47.0244 40.9806 47.0244H45.2977H55.6587H59.9758C60.4524 47.0244 60.8392 46.6286 60.8392 46.1389V40.8255C60.8392 36.8397 57.9692 33.5383 54.2392 32.9565ZM50.4782 25.7711C52.3829 25.7711 53.9318 27.3598 53.9318 29.3133C53.9318 31.2669 52.3829 32.8555 50.4782 32.8555C48.5735 32.8555 47.0245 31.2669 47.0245 29.3133C47.0245 27.3598 48.5735 25.7711 50.4782 25.7711ZM59.1123 45.2533H56.5221V39.94H54.7953V45.2533H46.1611V39.94H44.4343V45.2533H41.844V40.8255C41.844 37.4082 44.5551 34.6267 47.8879 34.6267H53.0684C56.4012 34.6267 59.1123 37.4082 59.1123 40.8255V45.2533Z" fill="black"/>
<path d="M66.91 76.8872C67.0194 76.934 67.1342 76.9556 67.248 76.9556C67.4775 76.9556 67.7034 76.8638 67.872 76.692L76.6981 67.6942C76.8693 67.5196 76.9629 67.2812 76.9558 67.0346C76.9496 66.7881 76.8446 66.555 76.6637 66.3895L67.8376 58.2915C67.5781 58.0521 67.2056 57.9927 66.8879 58.1385C66.5702 58.2825 66.3654 58.6046 66.3654 58.96V63.4589H54.0089V58.96H58.4219C58.7706 58.96 59.0865 58.7512 59.2286 58.4264C59.3707 58.1016 59.3116 57.7228 59.0786 57.4583L51.1351 48.4604C50.8006 48.0807 50.1581 48.0807 49.8236 48.4604L41.8801 57.4583C41.6471 57.7228 41.588 58.1016 41.7301 58.4264C41.8704 58.7512 42.1864 58.96 42.535 58.96H46.9481V63.4589H34.5916V58.96C34.5916 58.6046 34.3868 58.2825 34.0682 58.1385C33.7513 57.9936 33.3789 58.053 33.1185 58.2915L24.2924 66.3895C24.1124 66.5541 24.0065 66.7872 24.0003 67.0346C23.9941 67.2812 24.0877 67.5196 24.258 67.6942L33.0841 76.692C33.3365 76.9493 33.7151 77.0276 34.0461 76.8872C34.3762 76.7487 34.5916 76.4193 34.5916 76.0558V70.6571H66.3654V76.0558C66.3654 76.4193 66.5808 76.7487 66.91 76.8872ZM33.709 68.8576C33.2218 68.8576 32.8264 69.2598 32.8264 69.7574V73.8838L26.1653 67.0922L32.8264 60.98V64.3587C32.8264 64.8563 33.2218 65.2585 33.709 65.2585H47.8307C48.3179 65.2585 48.7133 64.8563 48.7133 64.3587V58.0602C48.7133 57.5626 48.3179 57.1604 47.8307 57.1604H44.5165L50.4785 50.4076L56.4405 57.1604H53.1263C52.6391 57.1604 52.2437 57.5626 52.2437 58.0602V64.3587C52.2437 64.8563 52.6391 65.2585 53.1263 65.2585H67.248C67.7352 65.2585 68.1306 64.8563 68.1306 64.3587V60.98L74.7916 67.0922L68.1306 73.8838V69.7574C68.1306 69.2598 67.7352 68.8576 67.248 68.8576H33.709Z" fill="black"/>
</svg>
