<svg width="100" height="100" viewBox="0 0 100 100" fill="none" xmlns="http://www.w3.org/2000/svg">
<circle cx="50" cy="50" r="49" stroke="black" stroke-width="2"/>
<path d="M59.7623 32.1595C58.3368 30.8282 56.6476 29.7972 54.799 29.1302C52.9504 28.4633 50.9818 28.1745 49.0148 28.2819C46.3475 28.4174 43.7702 29.2711 41.5669 30.7491C39.3637 32.2271 37.6199 34.2719 36.5279 36.6582C35.4359 39.0445 35.038 41.6797 35.3781 44.2733C35.7181 46.8668 36.783 49.3181 38.4552 51.357C40.6775 54.1433 41.8634 57.5879 41.8173 61.1227C41.8173 61.4842 41.9639 61.8309 42.225 62.0865C42.4861 62.3421 42.8402 62.4857 43.2094 62.4857H56.3306C56.6998 62.4857 57.0539 62.3421 57.315 62.0865C57.5761 61.8309 57.7228 61.4842 57.7228 61.1227C57.7711 57.4689 59.0454 53.932 61.3494 51.0572C63.5107 48.2697 64.5441 44.7988 64.2512 41.3109C63.9583 37.823 62.3597 34.564 59.7623 32.1595ZM59.1358 49.3739C56.7574 52.3703 55.3186 55.9783 54.9941 59.7598H51.1657V52.1203L55.1333 45.9051C55.3164 45.5991 55.3704 45.2353 55.284 44.8909C55.1975 44.5466 54.9773 44.2487 54.6702 44.0607C54.3631 43.8727 53.9932 43.8092 53.6391 43.8839C53.285 43.9585 52.9745 44.1653 52.7736 44.4604L49.7735 49.1626L46.7734 44.4604C46.5725 44.1653 46.262 43.9585 45.9079 43.8839C45.5538 43.8092 45.1839 43.8727 44.8768 44.0607C44.5697 44.2487 44.3495 44.5466 44.2631 44.8909C44.1766 45.2353 44.2306 45.5991 44.4137 45.9051L48.3813 52.1203V59.7598H44.5529C44.3218 56.082 42.9497 52.5609 40.62 49.6669C39.4478 48.2345 38.6434 46.5478 38.2742 44.7483C37.905 42.9488 37.9818 41.0888 38.4982 39.3243C39.0145 37.5598 39.9554 35.9422 41.2419 34.6071C42.5284 33.272 44.1231 32.2583 45.8923 31.6509C47.6614 31.0435 49.5535 30.8602 51.41 31.1163C53.2664 31.3724 55.0331 32.0604 56.562 33.1228C58.0909 34.1851 59.3373 35.5907 60.1969 37.2219C61.0566 38.8531 61.5043 40.6622 61.5025 42.4977C61.5052 44.9839 60.6737 47.4022 59.1358 49.3807V49.3739Z" fill="black"/>
<path d="M55.7666 64.5601H43.7999C43.4604 64.5601 43.1349 64.7113 42.8949 64.9806C42.6549 65.2499 42.52 65.6152 42.52 65.996C42.52 66.3769 42.6549 66.7421 42.8949 67.0114C43.1349 67.2807 43.4604 67.432 43.7999 67.432H54.4867V71.1727C54.4853 72.4456 54.0738 73.675 53.3282 74.6343C52.5826 75.5937 51.5531 76.2183 50.4294 76.3932C49.3057 76.5681 48.1635 76.2814 47.2133 75.5859C46.2632 74.8904 45.5691 73.8331 45.2589 72.6087H50.7815C51.1209 72.6087 51.4465 72.4574 51.6865 72.1881C51.9265 71.9188 52.0614 71.5536 52.0614 71.1727C52.0614 70.7919 51.9265 70.4266 51.6865 70.1573C51.4465 69.8881 51.1209 69.7368 50.7815 69.7368H43.7999C43.4604 69.7368 43.1349 69.8881 42.8949 70.1573C42.6549 70.4266 42.52 70.7919 42.52 71.1727C42.5761 73.2912 43.3656 75.3019 44.7209 76.7781C46.0763 78.2544 47.891 79.0801 49.78 79.0801C51.669 79.0801 53.4837 78.2544 54.8391 76.7781C56.1945 75.3019 56.984 73.2912 57.04 71.1727V65.996C57.04 65.6164 56.9061 65.2523 56.6674 64.9832C56.4288 64.7141 56.1049 64.562 55.7666 64.5601Z" fill="black"/>
<path d="M70.0214 41.7429H67.9133C67.5052 41.7429 67.1138 41.8522 66.8252 42.0467C66.5366 42.2412 66.3745 42.505 66.3745 42.7801C66.3745 43.0551 66.5366 43.3189 66.8252 43.5134C67.1138 43.7079 67.5052 43.8172 67.9133 43.8172H70.0214C70.4295 43.8172 70.8209 43.7079 71.1095 43.5134C71.3981 43.3189 71.5602 43.0551 71.5602 42.7801C71.5602 42.505 71.3981 42.2412 71.1095 42.0467C70.8209 41.8522 70.4295 41.7429 70.0214 41.7429Z" fill="black"/>
<path d="M31.6523 41.7429H29.5411C29.1324 41.7429 28.7404 41.8522 28.4514 42.0467C28.1624 42.2412 28 42.505 28 42.7801C28 43.0551 28.1624 43.3189 28.4514 43.5134C28.7404 43.7079 29.1324 43.8172 29.5411 43.8172H31.6446C32.0534 43.8172 32.4453 43.7079 32.7343 43.5134C33.0234 43.3189 33.1857 43.0551 33.1857 42.7801C33.1857 42.505 33.0234 42.2412 32.7343 42.0467C32.4453 41.8522 32.0534 41.7429 31.6446 41.7429H31.6523Z" fill="black"/>
<path d="M63.3947 27.5663L62.5588 28.399C62.4532 28.5043 62.3694 28.6293 62.3122 28.7668C62.255 28.9044 62.2256 29.0518 62.2256 29.2007C62.2256 29.3495 62.255 29.497 62.3122 29.6345C62.3694 29.772 62.4532 29.897 62.5588 30.0023C62.6645 30.1076 62.7899 30.1911 62.928 30.248C63.066 30.305 63.214 30.3343 63.3634 30.3343C63.5128 30.3343 63.6608 30.305 63.7988 30.248C63.9369 30.1911 64.0623 30.1076 64.1679 30.0023L65.0038 29.1582C65.2171 28.9456 65.337 28.6572 65.337 28.3566C65.337 28.0559 65.2171 27.7675 65.0038 27.5549C64.7904 27.3423 64.501 27.2229 64.1992 27.2229C63.8974 27.2229 63.608 27.3423 63.3947 27.5549V27.5663Z" fill="black"/>
<path d="M35.3521 55.56L34.563 56.3549C34.3452 56.5727 34.2229 56.868 34.2229 57.176C34.2229 57.4839 34.3452 57.7793 34.563 57.997C34.7807 58.2148 35.0761 58.3371 35.384 58.3371C35.692 58.3371 35.9873 58.2148 36.2051 57.997L36.9942 57.2079C37.1021 57.1001 37.1876 56.9721 37.2459 56.8312C37.3043 56.6903 37.3343 56.5393 37.3343 56.3869C37.3343 56.2344 37.3043 56.0834 37.2459 55.9425C37.1876 55.8016 37.1021 55.6736 36.9942 55.5658C36.8864 55.458 36.7584 55.3724 36.6175 55.3141C36.4767 55.2557 36.3257 55.2257 36.1732 55.2257C36.0207 55.2257 35.8697 55.2557 35.7288 55.3141C35.588 55.3724 35.46 55.458 35.3521 55.5658V55.56Z" fill="black"/>
<path d="M64.1913 55.5627C63.9753 55.3469 63.6824 55.2257 63.3771 55.2257C63.0717 55.2257 62.7788 55.3469 62.5628 55.5627C62.3469 55.7785 62.2256 56.0711 62.2256 56.3763C62.2256 56.6814 62.3469 56.9741 62.5628 57.1898L63.4087 58.035C63.6265 58.2345 63.9128 58.3426 64.2082 58.3369C64.5037 58.3313 64.7856 58.2123 64.9956 58.0046C65.2057 57.797 65.3277 57.5166 65.3365 57.2215C65.3453 56.9263 65.2402 56.6392 65.0429 56.4194L64.1913 55.5627Z" fill="black"/>
<path d="M35.3911 30.0016C35.4968 30.1071 35.6223 30.1908 35.7604 30.2478C35.8985 30.3049 36.0465 30.3343 36.196 30.3343C36.3455 30.3343 36.4935 30.3049 36.6316 30.2478C36.7697 30.1908 36.8952 30.1071 37.0009 30.0016C37.1066 29.8961 37.1905 29.7708 37.2477 29.633C37.3049 29.4952 37.3343 29.3474 37.3343 29.1982C37.3343 29.049 37.3049 28.9013 37.2477 28.7635C37.1905 28.6256 37.1066 28.5004 37.0009 28.3949L36.2273 27.6228C36.1257 27.5036 36.0005 27.4066 35.8596 27.338C35.7187 27.2693 35.5651 27.2305 35.4085 27.2239C35.2518 27.2173 35.0955 27.2431 34.9493 27.2997C34.8031 27.3563 34.6702 27.4424 34.559 27.5526C34.4477 27.6629 34.3605 27.7949 34.3028 27.9404C34.2451 28.0859 34.2181 28.2417 34.2236 28.3981C34.2291 28.5545 34.2669 28.7081 34.3347 28.8492C34.4025 28.9903 34.4987 29.1159 34.6174 29.2181L35.3911 30.0016Z" fill="black"/>
<path d="M49.7801 26.1857C50.0551 26.1857 50.3189 26.0234 50.5134 25.7343C50.7079 25.4453 50.8172 25.0534 50.8172 24.6446V22.5411C50.8172 22.1324 50.7079 21.7404 50.5134 21.4514C50.3189 21.1624 50.0551 21 49.7801 21C49.505 21 49.2412 21.1624 49.0467 21.4514C48.8522 21.7404 48.7429 22.1324 48.7429 22.5411V24.6446C48.7429 25.0534 48.8522 25.4453 49.0467 25.7343C49.2412 26.0234 49.505 26.1857 49.7801 26.1857Z" fill="black"/>
</svg>
