<svg width="100" height="100" viewBox="0 0 100 100" fill="none" xmlns="http://www.w3.org/2000/svg">
<circle cx="50" cy="50" r="49" stroke="black" stroke-width="2"/>
<path d="M48.4975 34.6185C45.357 34.6184 42.287 35.5496 39.6757 37.2943C37.0645 39.039 35.0292 41.5188 33.8273 44.4202C32.6254 47.3216 32.3108 50.5142 32.9234 53.5944C33.536 56.6746 35.0482 59.5039 37.2688 61.7246C39.4894 63.9454 42.3186 65.4577 45.3987 66.0705C48.4789 66.6833 51.6715 66.3689 54.573 65.1672C57.4745 63.9655 59.9544 61.9304 61.6993 59.3192C63.4441 56.7081 64.3755 53.6382 64.3756 50.4977C64.3709 46.2879 62.6966 42.2518 59.7199 39.2749C56.7432 36.2981 52.7073 34.6235 48.4975 34.6185ZM48.4975 64.1856C45.7901 64.1856 43.1435 63.3829 40.8924 61.8788C38.6413 60.3747 36.8868 58.2369 35.8507 55.7356C34.8146 53.2343 34.5435 50.482 35.0717 47.8267C35.5998 45.1713 36.9036 42.7323 38.818 40.8179C40.7324 38.9035 43.1715 37.5998 45.8268 37.0717C48.4821 36.5435 51.2345 36.8147 53.7357 37.8508C56.237 38.8869 58.3748 40.6415 59.8788 42.8926C61.3829 45.1437 62.1856 47.7903 62.1855 50.4977C62.1814 54.1267 60.7379 57.6059 58.1718 60.1719C55.6057 62.738 52.1265 64.1815 48.4975 64.1856V64.1856Z" fill="black"/>
<path d="M55.6973 47.4467L51.3861 46.8265L49.4641 42.9693C49.3733 42.7872 49.235 42.6343 49.0643 42.5275C48.8937 42.4207 48.6974 42.3641 48.4972 42.3641C48.297 42.3641 48.1007 42.4207 47.9301 42.5275C47.7594 42.6343 47.6211 42.7872 47.5303 42.9693L45.6083 46.8265L41.2971 47.4467C41.095 47.4759 40.905 47.5626 40.7491 47.697C40.5931 47.8314 40.4775 48.0079 40.4155 48.2063C40.3535 48.4048 40.3476 48.617 40.3986 48.8187C40.4495 49.0204 40.5552 49.2033 40.7035 49.3464L43.8032 52.3392L43.073 56.5568C43.038 56.7594 43.0591 56.968 43.1339 57.1591C43.2087 57.3502 43.3342 57.5162 43.4963 57.6386C43.6584 57.7609 43.8508 57.8347 44.0518 57.8517C44.2527 57.8686 44.4543 57.8281 44.634 57.7346L48.4972 55.7231L52.3604 57.7346C52.5401 57.8281 52.7417 57.8686 52.9427 57.8517C53.1436 57.8347 53.336 57.7609 53.4981 57.6386C53.6603 57.5162 53.7858 57.3502 53.8605 57.1591C53.9353 56.968 53.9564 56.7594 53.9214 56.5568L53.1912 52.3392L56.2909 49.3464C56.4392 49.2033 56.5449 49.0204 56.5958 48.8187C56.6468 48.617 56.6409 48.4048 56.5789 48.2063C56.5169 48.0079 56.4013 47.8314 56.2453 47.697C56.0894 47.5626 55.8994 47.4759 55.6973 47.4467ZM51.2765 51.1408C51.146 51.2665 51.0481 51.4234 50.9917 51.5973C50.9353 51.7712 50.9222 51.9567 50.9535 52.1371L51.4068 54.7538L48.9901 53.4954C48.8375 53.4159 48.6686 53.3744 48.4972 53.3744C48.3258 53.3744 48.1568 53.4159 48.0042 53.4954L45.5876 54.7538L46.0408 52.1371C46.0721 51.9567 46.059 51.7712 46.0026 51.5973C45.9462 51.4234 45.8484 51.2665 45.7178 51.1408L43.8291 49.3173L46.4702 48.9374C46.643 48.9126 46.8073 48.8456 46.9493 48.7422C47.0913 48.6387 47.2067 48.5018 47.2857 48.3431L48.4972 45.9118L49.7087 48.3431C49.7877 48.5018 49.9031 48.6387 50.0451 48.7422C50.187 48.8456 50.3514 48.9126 50.5241 48.9374L53.1652 49.3173L51.2765 51.1408Z" fill="black"/>
<path d="M54.0878 73.4394C54.5019 73.3422 55.4226 73.768 56.1956 74.1496V71.7253C55.3933 71.3116 54.4809 71.1615 53.5884 71.2966C52.335 71.5893 51.4366 72.7917 50.5677 73.955C50.0221 74.6854 49.1973 75.7896 48.758 75.7944H48.7559C48.3209 75.7944 47.4445 74.6714 46.9209 74.0001C46.0258 72.853 45.1 71.6666 43.8359 71.3986C43.6526 71.3601 43.4657 71.341 43.2784 71.3417C42.2045 71.3417 41.0805 71.9298 39.9882 72.5017C39.1607 72.9357 37.9079 73.5898 37.4933 73.3981C37.1319 73.2321 36.8473 71.8734 36.6771 71.0613C36.3763 69.6269 36.0654 68.143 35.0199 67.3444C33.9818 66.5512 32.4465 66.614 30.958 66.6752C30.16 66.709 28.673 66.7692 28.4163 66.4625C28.1441 66.1349 28.5001 64.7536 28.7133 63.9276C29.072 62.5372 29.4425 61.099 28.8728 59.9647C28.2955 58.8214 26.896 58.2295 25.5423 57.6576C24.8012 57.3445 23.4222 56.7612 23.326 56.3681C23.231 55.9766 24.1917 54.8493 24.7078 54.2441C25.6529 53.1345 26.6302 51.9874 26.6173 50.7081C26.6028 49.4374 25.6045 48.315 24.6385 47.2291C24.1068 46.6319 23.1171 45.5191 23.2052 45.1195C23.2906 44.735 24.6487 44.1298 25.3785 43.8049C26.7258 43.2044 28.1193 42.5836 28.6778 41.4219C29.2245 40.2877 28.8266 38.8629 28.4421 37.4848C28.2112 36.6588 27.8251 35.2759 28.0984 34.9327C28.3841 34.5751 29.8673 34.6068 30.7539 34.6277C32.2027 34.6605 33.6961 34.6921 34.6729 33.9123C35.6906 33.1009 35.9703 31.6213 36.241 30.1906C36.3967 29.3689 36.6566 27.993 37.0255 27.8152C37.4272 27.6208 38.7354 28.2727 39.5167 28.6632C40.8189 29.3136 42.1625 29.9854 43.4068 29.6965C44.6591 29.4044 45.5569 28.2024 46.4258 27.0397C46.9714 26.3088 47.7968 25.2041 48.2371 25.1998H48.2398C48.6748 25.1998 49.5506 26.3222 50.0742 26.9941C50.9689 28.1407 51.8941 29.327 53.1582 29.5955C54.4025 29.8598 55.724 29.1638 57.0069 28.4914C57.8345 28.058 59.0819 27.406 59.4997 27.5939C59.8622 27.761 60.1468 29.1208 60.3176 29.9333C60.6183 31.3673 60.9287 32.8506 61.9748 33.6503C63.0123 34.4419 64.547 34.3764 66.0345 34.3178C66.8336 34.2835 68.3195 34.2233 68.5767 34.5311C68.85 34.8581 68.4935 36.2405 68.2808 37.066C67.9221 38.4564 67.5516 39.8946 68.1219 41.0278C68.6986 42.1712 70.0986 42.7635 71.4529 43.336C72.1934 43.6492 73.5725 44.2324 73.6681 44.6244C73.7631 45.0154 72.8024 46.1432 72.2863 46.7485C71.3412 47.858 70.3639 49.0051 70.3773 50.2828C70.3913 51.5551 71.3906 52.6786 72.3567 53.7645C72.8878 54.3617 73.8769 55.4734 73.7883 55.873C73.7035 56.2586 72.3443 56.8644 71.614 57.1893C71.444 57.2651 71.2733 57.3413 71.1036 57.4188C71.2505 57.4706 71.397 57.5238 71.5401 57.5878C72.2071 57.8812 72.8094 58.3038 73.3122 58.8312C74.55 58.2456 75.6692 57.5576 75.9364 56.3483C76.2677 54.8515 75.1147 53.5556 73.9999 52.3027C73.4012 51.6297 72.5817 50.7082 72.5769 50.2592C72.572 49.8048 73.3743 48.8634 73.9607 48.1754C75.0449 46.9031 76.1657 45.5874 75.8053 44.104C75.4477 42.6368 73.8522 41.9623 72.3094 41.3097C71.461 40.951 70.2989 40.4596 70.0857 40.038C69.8875 39.6438 70.1899 38.4714 70.4106 37.6154C70.8096 36.0686 71.2612 34.3157 70.2661 33.1218C69.3151 31.9811 67.601 32.052 65.9438 32.1197C65.0019 32.1584 63.7152 32.211 63.3103 31.9022C62.914 31.5993 62.6573 30.3753 62.4699 29.4817C62.1343 27.8813 61.7874 26.2261 60.4191 25.5956C59.0202 24.9543 57.4784 25.761 55.9866 26.5424C55.1806 26.9645 54.0765 27.5429 53.6152 27.4441C53.1351 27.3421 52.3683 26.3587 51.8082 25.6407C50.7895 24.3346 49.7391 22.993 48.2146 23C46.6857 23.0161 45.6579 24.3921 44.6634 25.7234C44.121 26.4495 43.3778 27.4441 42.9074 27.5542C42.4391 27.6605 41.3173 27.1031 40.4989 26.6949C38.9974 25.9452 37.4444 25.1697 36.0692 25.834C34.7019 26.494 34.3857 28.1653 34.0801 29.7819C33.9115 30.6718 33.6811 31.8898 33.3009 32.1927C32.9465 32.4757 31.7071 32.4483 30.8022 32.4285C29.1032 32.3914 27.3434 32.3522 26.3789 33.5611C25.4037 34.7834 25.8924 36.5331 26.3236 38.0767C26.5465 38.8742 26.8832 40.0799 26.6958 40.4681C26.4869 40.9026 25.3291 41.4187 24.4833 41.7952C22.9593 42.4746 21.3832 43.1765 21.0578 44.6437C20.7264 46.1416 21.8799 47.438 22.9953 48.6915C23.5935 49.3639 24.413 50.2849 24.4178 50.7318C24.4226 51.1872 23.6198 52.1292 23.0334 52.8171C21.9492 54.0894 20.8285 55.4052 21.1888 56.8885C21.547 58.3568 23.143 59.0314 24.6863 59.6839C25.5342 60.0421 26.6958 60.5335 26.9084 60.9546C27.1066 61.3488 26.8042 62.5222 26.5835 63.3783C26.1845 64.9244 25.7324 66.6774 26.7275 67.8718C27.6796 69.0114 29.3931 68.9405 31.0487 68.8734C31.989 68.8347 33.2778 68.781 33.6843 69.0925C34.0807 69.3949 34.3368 70.6188 34.5242 71.5125C34.8598 73.1129 35.2062 74.7675 36.574 75.3964C37.9729 76.0425 39.5157 75.2326 41.0085 74.4507C41.813 74.0291 42.916 73.4507 43.3794 73.55C43.8589 73.6521 44.6263 74.6354 45.187 75.3535C46.1998 76.6521 47.2475 77.9942 48.7554 77.9942H48.7812C50.3089 77.9775 51.3362 76.6016 52.3302 75.2713C52.8731 74.5447 53.6168 73.549 54.0878 73.4394Z" fill="black"/>
<path d="M77.8833 69.7494C78.1701 69.2654 78.3202 68.7133 78.3179 68.1514C78.3156 67.5895 78.1609 67.0387 77.8703 66.557C77.5796 66.0753 77.1637 65.6806 76.6664 65.4145C76.1691 65.1484 75.6089 65.0209 75.0448 65.0453L73.0719 65.0437C73.128 64.7327 73.1488 64.4165 73.1339 64.1009C73.0283 63.1481 72.75 60.6371 70.647 59.712C70.202 59.5111 69.7194 59.4063 69.2308 59.4045C69.1771 59.4045 69.1234 59.4059 69.0697 59.4086C68.3655 59.4485 67.6918 59.7081 67.1442 60.1505C66.6837 60.5457 66.3297 61.049 66.1141 61.6148C65.8986 62.1806 65.8284 62.791 65.9098 63.3907C65.914 63.4718 65.919 63.5524 65.919 63.6312V63.9059C65.6266 64.4969 64.7831 65.8108 64.4858 66.2738L64.4708 66.2972C64.2984 66.3484 64.1022 66.4055 63.9004 66.4635C63.5323 66.2165 63.0984 66.0848 62.6544 66.0852H60.4168C59.8235 66.0858 59.2547 66.3206 58.8352 66.7381C58.4157 67.1556 58.1798 67.7216 58.1792 68.3121V74.9927C58.1798 75.5831 58.4157 76.1492 58.8352 76.5667C59.2547 76.9842 59.8235 77.219 60.4168 77.2195H62.6545C63.1733 77.2173 63.675 77.034 64.072 76.7015C64.1128 76.7021 64.1516 76.7042 64.1935 76.7042C64.3901 76.7042 64.6239 76.6972 64.8586 76.6898C64.9723 76.6862 65.0864 76.6824 65.1942 76.6799C65.5109 76.8827 65.8562 77.0373 66.2188 77.1386C66.4069 77.1889 66.6008 77.2145 66.7956 77.2148L73.5106 77.2167C74.3712 77.2224 75.199 76.8883 75.8124 76.2874C76.4258 75.6866 76.7747 74.8682 76.7825 74.0117C76.7825 73.9944 76.7824 73.9772 76.7821 73.9599C77.1984 73.4115 77.4235 72.7428 77.4233 72.0554C77.4233 71.9653 77.4193 71.8769 77.4118 71.7905C77.7344 71.2852 77.9055 70.6989 77.9051 70.1002C77.9051 69.983 77.8979 69.8658 77.8833 69.7494ZM62.6545 74.9927H60.4168V68.3121H62.6545V74.9927ZM75.0448 69.1333C75.0448 69.1333 75.6675 69.6089 75.6675 70.1002C75.6602 70.3666 75.5469 70.6193 75.3526 70.8027C75.1582 70.9861 74.8986 71.0852 74.6309 71.0782C74.9338 71.322 75.1321 71.6714 75.1856 72.0554C75.1788 72.3216 75.0662 72.5742 74.8724 72.7578C74.6786 72.9414 74.4195 73.041 74.152 73.0347C74.3832 73.311 74.5206 73.653 74.5449 74.0117C74.5415 74.1435 74.5121 74.2734 74.4583 74.3939C74.4045 74.5144 74.3273 74.6231 74.2313 74.7139C74.1352 74.8048 74.0222 74.8759 73.8985 74.9232C73.7748 74.9705 73.643 74.9932 73.5105 74.9898L66.7993 74.9879C66.4388 74.8915 66.1729 74.6068 65.8277 74.4854C65.6842 74.4548 65.5372 74.4431 65.3906 74.4506C65.2407 74.4506 65.0675 74.4555 64.8921 74.4609V68.4955C65.2515 68.4042 65.6044 68.289 65.9483 68.1507C66.0812 67.8711 68.1567 64.8463 68.1567 64.2497V63.6312C68.1567 63.0212 67.9888 62.3309 68.5345 61.8954C68.7173 61.7426 68.9436 61.6507 69.1816 61.6326C69.198 61.6318 69.2144 61.6314 69.2308 61.6314C69.4077 61.6345 69.582 61.6745 69.7424 61.7488C70.622 62.1357 70.8199 63.5344 70.9089 64.3376C70.7812 65.3386 70.5392 66.3218 70.1874 67.2682L75.0448 67.2722C75.1718 67.2582 75.3004 67.2703 75.4225 67.3078C75.5446 67.3453 75.6577 67.4073 75.7547 67.49C75.8518 67.5727 75.9308 67.6744 75.9868 67.7887C76.0428 67.903 76.0746 68.0275 76.0803 68.1546C76.0733 68.421 75.9603 68.6737 75.7661 68.8573C75.572 69.0408 75.3125 69.1401 75.0448 69.1333V69.1333Z" fill="black"/>
</svg>
