<svg width="100" height="100" viewBox="0 0 100 100" fill="none" xmlns="http://www.w3.org/2000/svg">
<circle cx="50" cy="50" r="49" stroke="black" stroke-width="2"/>
<path d="M33.361 58.5366H24.1512C23.5157 58.5366 23 59.0512 23 59.6878V75.8049C23 76.4416 23.5157 76.9562 24.1512 76.9562H33.361C33.9965 76.9562 34.5122 76.4416 34.5122 75.8049V59.6878C34.5122 59.0512 33.9965 58.5366 33.361 58.5366ZM32.2098 74.6537H25.3024V60.8391H32.2098V74.6537Z" fill="black"/>
<path d="M47.1757 53.9318H37.9659C37.3304 53.9318 36.8147 54.4464 36.8147 55.083V75.805C36.8147 76.4416 37.3304 76.9562 37.9659 76.9562H47.1757C47.8112 76.9562 48.3269 76.4416 48.3269 75.805V55.083C48.3269 54.4464 47.8112 53.9318 47.1757 53.9318ZM46.0245 74.6537H39.1171V56.2342H46.0245V74.6537Z" fill="black"/>
<path d="M60.9901 47.0244H51.7804C51.1437 47.0244 50.6292 47.5402 50.6292 48.1756V75.8049C50.6292 76.4416 51.1437 76.9562 51.7804 76.9562H60.9901C61.6268 76.9562 62.1414 76.4416 62.1414 75.8049V48.1756C62.1414 47.5402 61.6268 47.0244 60.9901 47.0244ZM59.8389 74.6537H52.9316V49.3269H59.8389V74.6537Z" fill="black"/>
<path d="M74.8051 37.8146H65.5953C64.9587 37.8146 64.4441 38.3303 64.4441 38.9658V75.8049C64.4441 76.4415 64.9587 76.9561 65.5953 76.9561H74.8051C75.4417 76.9561 75.9563 76.4415 75.9563 75.8049V38.9658C75.9563 38.3303 75.4417 37.8146 74.8051 37.8146ZM73.6539 74.6537H66.7465V40.117H73.6539V74.6537Z" fill="black"/>
<path d="M67.5859 33.2098C68.2225 33.2098 68.7371 32.694 68.7371 32.0585V25.1512C68.7371 25.127 68.7244 25.1086 68.7233 25.0856C68.7187 25.005 68.698 24.9302 68.6761 24.8531C68.6565 24.7828 68.6427 24.7149 68.6116 24.6516C68.5817 24.5894 68.538 24.5365 68.4954 24.4812C68.447 24.4144 68.3998 24.3511 68.3388 24.297C68.3204 24.2809 68.3135 24.2602 68.295 24.2464C68.2571 24.2164 68.2099 24.2072 68.1696 24.183C68.0993 24.1416 68.0337 24.1025 67.9554 24.076C67.8795 24.0507 67.8046 24.0391 67.7263 24.0299C67.6791 24.023 67.6354 24 67.5859 24H60.9905C60.3539 24 59.8393 24.5157 59.8393 25.1512C59.8393 25.7867 60.3539 26.3024 60.9905 26.3024H65.1246C58.025 34.3806 42.3143 47.0244 24.1515 47.0244C23.516 47.0244 23.0002 47.5402 23.0002 48.1756C23.0002 48.8111 23.516 49.3269 24.1515 49.3269C42.761 49.3269 58.8527 36.7003 66.4347 28.2952V32.0585C66.4347 32.694 66.9493 33.2098 67.5859 33.2098Z" fill="black"/>
</svg>
