<svg width="100" height="100" viewBox="0 0 100 100" fill="none" xmlns="http://www.w3.org/2000/svg">
<circle cx="50" cy="50" r="49" stroke="black" stroke-width="2"/>
<path d="M49.6549 24C46.9192 24 44.6749 26.2444 44.6749 28.98C44.6749 31.0381 45.9542 32.8154 47.7485 33.5709C44.2007 34.4284 41.5624 37.6227 41.5624 41.4299V45.7874V47.0324H42.8074H56.5023H57.7473V45.7874V41.4299C57.7473 37.6227 55.109 34.4284 51.5612 33.5709C53.3555 32.8154 54.6348 31.0381 54.6348 28.98C54.6348 26.2444 52.3905 24 49.6549 24ZM49.6549 26.49C51.0448 26.49 52.1448 27.59 52.1448 28.98C52.1448 30.3699 51.0448 31.47 49.6549 31.47C48.2649 31.47 47.1649 30.3699 47.1649 28.98C47.1649 27.59 48.2649 26.49 49.6549 26.49ZM49.6549 35.8274C52.7802 35.8274 55.2573 38.3046 55.2573 41.4299V44.5424H44.0524V41.4299C44.0524 38.3046 46.5296 35.8274 49.6549 35.8274ZM48.4099 50.1448V56.3309L42.146 60.3188L43.4688 62.4197L49.6549 58.4902L55.8409 62.4197L57.1637 60.3188L50.8998 56.3309V50.1448H48.4099ZM34.0924 53.2573C31.3568 53.2573 29.1125 55.5017 29.1125 58.2373C29.1125 60.289 30.3813 62.0687 32.1666 62.8282C28.628 63.6923 26 66.8866 26 70.6872V75.0447V76.2897H27.245H40.9399H42.1849V75.0447V70.6872C42.1849 66.8866 39.5569 63.6923 36.0183 62.8282C37.8036 62.0687 39.0724 60.289 39.0724 58.2373C39.0724 55.5017 36.8281 53.2573 34.0924 53.2573ZM65.2173 53.2573C62.4816 53.2573 60.2373 55.5017 60.2373 58.2373C60.2373 60.289 61.5078 62.0704 63.2914 62.8282C59.7528 63.6923 57.1248 66.8866 57.1248 70.6872V75.0447V76.2897H58.3698H72.0647H73.3097V75.0447V70.6872C73.3097 66.8866 70.6817 63.6923 67.1431 62.8282C68.9267 62.0704 70.1972 60.289 70.1972 58.2373C70.1972 55.5017 67.9529 53.2573 65.2173 53.2573ZM34.0924 55.7473C35.4824 55.7473 36.5824 56.8474 36.5824 58.2373C36.5824 59.6272 35.4824 60.7273 34.0924 60.7273C32.7025 60.7273 31.6025 59.6272 31.6025 58.2373C31.6025 56.8474 32.7025 55.7473 34.0924 55.7473ZM65.2173 55.7473C66.6072 55.7473 67.7072 56.8473 67.7072 58.2373C67.7072 59.6272 66.6072 60.7273 65.2173 60.7273C63.8273 60.7273 62.7273 59.6272 62.7273 58.2373C62.7273 56.8473 63.8273 55.7473 65.2173 55.7473ZM34.0924 65.0847C37.2177 65.0847 39.6949 67.5619 39.6949 70.6872V73.7997H28.49V70.6872C28.49 67.5619 30.9671 65.0847 34.0924 65.0847ZM65.2173 65.0847C68.3426 65.0847 70.8197 67.5619 70.8197 70.6872V73.7997H59.6148V70.6872C59.6148 67.5619 62.092 65.0847 65.2173 65.0847Z" fill="black"/>
</svg>
