<svg width="100" height="100" viewBox="0 0 100 100" fill="none" xmlns="http://www.w3.org/2000/svg">
<circle cx="50" cy="50" r="49" stroke="black" stroke-width="2"/>
<path d="M73.805 33.6634C73.4182 33.6708 73.0329 33.7132 72.6537 33.7901V29.0585C72.6537 28.7532 72.5324 28.4604 72.3166 28.2445C72.1007 28.0286 71.8078 27.9073 71.5025 27.9073H64.1462C64.0622 27.8954 63.9769 27.8954 63.8929 27.9073H63.7087L63.5476 28.0225C63.474 28.0657 63.4046 28.1158 63.3404 28.1721C63.3093 28.2156 63.2823 28.2618 63.2598 28.3103C63.2109 28.3791 63.1685 28.4523 63.1331 28.529C63.1222 28.6092 63.1222 28.6905 63.1331 28.7707C63.1278 28.8243 63.1278 28.8783 63.1331 28.9319C63.1222 29.0121 63.1222 29.0935 63.1331 29.1737C63.1266 29.2387 63.1266 29.3043 63.1331 29.3694L63.2483 29.5305L63.3979 29.7378C63.9193 30.2041 64.2867 30.8177 64.4517 31.4974C64.6167 32.1771 64.5714 32.8909 64.3218 33.5443C64.0722 34.1977 63.6301 34.76 63.054 35.1566C62.4779 35.5533 61.7949 35.7656 61.0955 35.7656C60.396 35.7656 59.7131 35.5533 59.1369 35.1566C58.5608 34.76 58.1187 34.1977 57.8692 33.5443C57.6196 32.8909 57.5743 32.1771 57.7393 31.4974C57.9042 30.8177 58.2717 30.2041 58.793 29.7378L58.9427 29.5305L59.0578 29.3694C59.0644 29.3043 59.0644 29.2387 59.0578 29.1737C59.0687 29.0935 59.0687 29.0121 59.0578 28.9319C59.0632 28.8783 59.0632 28.8243 59.0578 28.7707C59.0687 28.6905 59.0687 28.6092 59.0578 28.529C59.0225 28.4523 58.9801 28.3791 58.9312 28.3103C58.9086 28.2618 58.8817 28.2156 58.8506 28.1721C58.7864 28.1158 58.717 28.0657 58.6434 28.0225L58.4822 27.9073H58.298C58.214 27.8954 58.1287 27.8954 58.0447 27.9073H46.049C46.1259 27.5282 46.1682 27.1429 46.1756 26.7561C46.1756 25.2295 45.5692 23.7654 44.4897 22.6859C43.4102 21.6064 41.9462 21 40.4195 21C38.8929 21 37.4288 21.6064 36.3494 22.6859C35.2699 23.7654 34.6634 25.2295 34.6634 26.7561C34.6708 27.1429 34.7132 27.5282 34.7901 27.9073H30.0585C29.7532 27.9073 29.4604 28.0286 29.2445 28.2445C29.0286 28.4604 28.9073 28.7532 28.9073 29.0585V35.4363C28.9073 35.4363 28.9073 35.4363 28.9073 35.5054C28.902 35.5782 28.902 35.6513 28.9073 35.7241C28.922 35.801 28.9492 35.8748 28.9879 35.9429C28.9825 35.9656 28.9825 35.9892 28.9879 36.0119C28.9879 36.0119 29.057 36.081 29.08 36.1155L29.2412 36.2997L29.4254 36.4149L29.6211 36.5069C29.6943 36.5383 29.772 36.5577 29.8513 36.5645H29.9895H30.0585H30.2773C30.3522 36.5484 30.4254 36.5253 30.496 36.4954H30.5651C31.1035 36.1569 31.725 35.9737 32.361 35.9659C33.277 35.9659 34.1554 36.3297 34.8031 36.9774C35.4508 37.6251 35.8147 38.5036 35.8147 39.4195C35.8147 40.3355 35.4508 41.214 34.8031 41.8617C34.1554 42.5093 33.277 42.8732 32.361 42.8732C31.7539 42.8704 31.1583 42.7076 30.6342 42.4012H30.5651C30.4945 42.3714 30.4213 42.3482 30.3464 42.3321H30.1276H30.0585H29.9204C29.8411 42.3389 29.7634 42.3584 29.6902 42.3897L29.4945 42.4818L29.3103 42.5969L29.1491 42.7811C29.1491 42.7811 29.08 42.8387 29.057 42.8847C29.0516 42.9074 29.0516 42.9311 29.057 42.9538C29.0183 43.0218 28.9911 43.0957 28.9764 43.1725C28.971 43.2453 28.971 43.3184 28.9764 43.3913C28.9764 43.3913 28.9764 43.3913 28.9764 43.4603V54.5696C28.5765 54.4691 28.1678 54.4074 27.7561 54.3854C26.2295 54.3854 24.7654 54.9919 23.6859 56.0713C22.6064 57.1508 22 58.6149 22 60.1415C22 61.6681 22.6064 63.1322 23.6859 64.2117C24.7654 65.2912 26.2295 65.8976 27.7561 65.8976C28.1429 65.8902 28.5282 65.8478 28.9073 65.771V70.5025C28.9073 70.8078 29.0286 71.1007 29.2445 71.3166C29.4604 71.5324 29.7532 71.6537 30.0585 71.6537H36.5054H36.7241C36.799 71.6376 36.8723 71.6145 36.9429 71.5847H37.0119C37.0119 71.5847 37.081 71.5156 37.1155 71.4811L37.2997 71.3314C37.3447 71.2744 37.3834 71.2126 37.4149 71.1472C37.4524 71.0854 37.4832 71.0198 37.5069 70.9515C37.5383 70.8783 37.5577 70.8006 37.5645 70.7212C37.5645 70.7212 37.5645 70.6292 37.5645 70.5831C37.5645 70.5371 37.5645 70.5831 37.5645 70.514C37.5699 70.4412 37.5699 70.3681 37.5645 70.2953C37.5498 70.2185 37.5226 70.1446 37.4839 70.0766C37.4893 70.0539 37.4893 70.0302 37.4839 70.0075C37.1474 69.4645 36.9681 68.8389 36.9659 68.2001C36.9659 67.2841 37.3297 66.4057 37.9774 65.758C38.6251 65.1103 39.5036 64.7464 40.4195 64.7464C41.3355 64.7464 42.214 65.1103 42.8617 65.758C43.5093 66.4057 43.8732 67.2841 43.8732 68.2001C43.8704 68.8072 43.7076 69.4028 43.4012 69.9269C43.3958 69.9496 43.3958 69.9733 43.4012 69.996C43.3625 70.064 43.3353 70.1379 43.3206 70.2147C43.3152 70.2875 43.3152 70.3606 43.3206 70.4334C43.3206 70.4334 43.3206 70.4334 43.3206 70.5025C43.3206 70.5716 43.3206 70.5946 43.3206 70.6407C43.3274 70.72 43.3469 70.7977 43.3782 70.8709C43.4019 70.9392 43.4328 71.0048 43.4703 71.0666C43.5018 71.132 43.5404 71.1938 43.5854 71.2508L43.7696 71.4005C43.7696 71.4005 43.8272 71.4811 43.8732 71.5041H43.9538H44.0574C44.1822 71.5536 44.3146 71.5808 44.4488 71.5847H55.5581C55.4615 71.9849 55.4037 72.3936 55.3854 72.805C55.3854 74.3316 55.9919 75.7957 57.0713 76.8751C58.1508 77.9546 59.6149 78.5611 61.1415 78.5611C62.6681 78.5611 64.1322 77.9546 65.2117 76.8751C66.2912 75.7957 66.8976 74.3316 66.8976 72.805C66.8902 72.4182 66.8478 72.0329 66.771 71.6537H71.5025C71.8078 71.6537 72.1007 71.5324 72.3166 71.3166C72.5324 71.1007 72.6537 70.8078 72.6537 70.5025V64.1247C72.6537 64.1247 72.6537 64.1248 72.6537 64.0557C72.6591 63.9829 72.6591 63.9098 72.6537 63.8369C72.639 63.7601 72.6118 63.6862 72.5732 63.6182C72.5785 63.5955 72.5785 63.5718 72.5732 63.5491C72.5732 63.5491 72.5041 63.4801 72.4811 63.4455L72.3199 63.2613L72.1357 63.1462L71.94 63.0426C71.8637 63.0305 71.786 63.0305 71.7097 63.0426H71.5716H71.5025H71.2838C71.2089 63.0587 71.1356 63.0818 71.065 63.1117H70.996C70.4528 63.434 69.8317 63.6013 69.2001 63.5952C68.2841 63.5952 67.4057 63.2313 66.758 62.5836C66.1103 61.9359 65.7464 61.0575 65.7464 60.1415C65.7464 59.2256 66.1103 58.3471 66.758 57.6994C67.4057 57.0517 68.2841 56.6879 69.2001 56.6879C69.8072 56.6907 70.4028 56.8535 70.9269 57.1599H70.996C71.0666 57.1897 71.1398 57.2128 71.2147 57.2289H71.4334H71.5025H71.6407C71.72 57.2221 71.7977 57.2027 71.8709 57.1714L72.0666 57.0793L72.2508 56.9642L72.412 56.78C72.412 56.78 72.4811 56.7224 72.5041 56.6763C72.5095 56.6536 72.5095 56.63 72.5041 56.6073C72.5427 56.5393 72.57 56.4654 72.5847 56.3885C72.59 56.3157 72.59 56.2426 72.5847 56.1698C72.5847 56.1698 72.5847 56.1698 72.5847 56.1007V45.049C72.9864 45.1301 73.3951 45.1725 73.805 45.1756C75.3316 45.1756 76.7957 44.5692 77.8751 43.4897C78.9546 42.4102 79.5611 40.9462 79.5611 39.4195C79.5611 37.8929 78.9546 36.4288 77.8751 35.3494C76.7957 34.2699 75.3316 33.6634 73.805 33.6634ZM38.1171 39.4195C38.1171 37.8929 37.5107 36.4288 36.4312 35.3494C35.3517 34.2699 33.8876 33.6634 32.361 33.6634C31.9742 33.6708 31.5889 33.7132 31.2098 33.7901V30.2098H36.5054H36.7241C36.799 30.1937 36.8723 30.1705 36.9429 30.1407H37.0119C37.0119 30.1407 37.081 30.0716 37.1155 30.0371L37.2997 29.8874C37.3447 29.8304 37.3834 29.7687 37.4149 29.7032C37.4524 29.6414 37.4832 29.5758 37.5069 29.5075C37.5383 29.4343 37.5577 29.3566 37.5645 29.2773C37.5645 29.2773 37.5645 29.1852 37.5645 29.1391C37.5645 29.0931 37.5645 29.1391 37.5645 29.0701C37.5699 28.9973 37.5699 28.9241 37.5645 28.8513C37.5498 28.7745 37.5226 28.7006 37.4839 28.6326C37.4893 28.6099 37.4893 28.5862 37.4839 28.5635C37.1474 28.0206 36.9681 27.3949 36.9659 26.7561C36.9659 25.8401 37.3297 24.9617 37.9774 24.314C38.6251 23.6663 39.5036 23.3024 40.4195 23.3024C41.3355 23.3024 42.214 23.6663 42.8617 24.314C43.5093 24.9617 43.8732 25.8401 43.8732 26.7561C43.8704 27.3632 43.7076 27.9588 43.4012 28.4829C43.3958 28.5056 43.3958 28.5293 43.4012 28.552C43.3625 28.62 43.3353 28.6939 43.3206 28.7707C43.3152 28.8436 43.3152 28.9167 43.3206 28.9895C43.3206 28.9895 43.3206 28.9895 43.3206 29.0585C43.3206 29.1276 43.3206 29.1506 43.3206 29.1967C43.3274 29.276 43.3469 29.3537 43.3782 29.4269C43.4019 29.4952 43.4328 29.5608 43.4703 29.6226C43.5018 29.6881 43.5404 29.7499 43.5854 29.8068L43.7696 29.9565C43.7696 29.9565 43.8272 30.0371 43.8732 30.0601H43.9538H44.0574C44.1822 30.1096 44.3146 30.1369 44.4488 30.1407H49.6293V33.721C49.2481 33.6673 48.8628 33.648 48.4781 33.6634C46.9515 33.6634 45.4874 34.2699 44.4079 35.3494C43.3284 36.4288 42.722 37.8929 42.722 39.4195C42.722 40.9462 43.3284 42.4102 44.4079 43.4897C45.4874 44.5692 46.9515 45.1756 48.4781 45.1756C48.8649 45.1682 49.2502 45.1259 49.6293 45.049V48.6293H44.3337H44.115C44.04 48.6454 43.9668 48.6685 43.8962 48.6984H43.8272C43.8272 48.6984 43.7581 48.7675 43.7235 48.802L43.5393 48.9517C43.4943 49.0086 43.4557 49.0704 43.4242 49.1358C43.3867 49.1977 43.3558 49.2633 43.3321 49.3316C43.3008 49.4048 43.2814 49.4825 43.2746 49.5618C43.2746 49.5618 43.2746 49.6539 43.2746 49.6999C43.2746 49.746 43.2746 49.6999 43.2746 49.769C43.2692 49.8418 43.2692 49.9149 43.2746 49.9878C43.2893 50.0646 43.3165 50.1385 43.3552 50.2065C43.3498 50.2292 43.3498 50.2528 43.3552 50.2756C43.6917 50.8185 43.871 51.4442 43.8732 52.083C43.8732 52.9989 43.5093 53.8774 42.8617 54.5251C42.214 55.1728 41.3355 55.5366 40.4195 55.5366C39.5036 55.5366 38.6251 55.1728 37.9774 54.5251C37.3297 53.8774 36.9659 52.9989 36.9659 52.083C36.9687 51.4759 37.1315 50.8803 37.4379 50.3561C37.4433 50.3334 37.4433 50.3098 37.4379 50.2871C37.4765 50.2191 37.5038 50.1452 37.5185 50.0683C37.5238 49.9955 37.5238 49.9224 37.5185 49.8496C37.5185 49.8496 37.5185 49.8496 37.5185 49.7805C37.5185 49.7115 37.5185 49.6884 37.5185 49.6424C37.5116 49.5631 37.4922 49.4853 37.4609 49.4121C37.4372 49.3438 37.4063 49.2782 37.3688 49.2164C37.3373 49.151 37.2987 49.0892 37.2537 49.0322L37.0695 48.8826C37.0695 48.8826 37.0119 48.802 36.9659 48.779H36.8968C36.8262 48.7491 36.753 48.726 36.6781 48.7099H36.4593H31.2098V45.049C31.5889 45.1259 31.9742 45.1682 32.361 45.1756C33.8876 45.1756 35.3517 44.5692 36.4312 43.4897C37.5107 42.4102 38.1171 40.9462 38.1171 39.4195ZM40.4195 62.444C38.8929 62.444 37.4288 63.0504 36.3494 64.1299C35.2699 65.2094 34.6634 66.6735 34.6634 68.2001C34.6708 68.5868 34.7132 68.9722 34.7901 69.3513H31.2098V64.1247C31.2098 64.1247 31.2098 64.1248 31.2098 64.0557C31.2151 63.9829 31.2151 63.9098 31.2098 63.8369C31.1951 63.7601 31.1679 63.6862 31.1292 63.6182C31.1346 63.5955 31.1346 63.5718 31.1292 63.5491C31.1292 63.5491 31.0601 63.4801 31.0371 63.4455L30.8759 63.2613L30.6917 63.1462L30.496 63.0541C30.4202 63.0368 30.3415 63.0368 30.2658 63.0541H30.1276H30.0585H29.8398C29.7649 63.0702 29.6917 63.0933 29.6211 63.1232H29.552C29.0077 63.4415 28.3866 63.6048 27.7561 63.5952C26.8401 63.5952 25.9617 63.2313 25.314 62.5836C24.6663 61.9359 24.3024 61.0575 24.3024 60.1415C24.3024 59.2256 24.6663 58.3471 25.314 57.6994C25.9617 57.0517 26.8401 56.6879 27.7561 56.6879C28.3632 56.6907 28.9588 56.8535 29.4829 57.1599H29.552C29.6226 57.1897 29.6958 57.2128 29.7707 57.2289H29.9895H30.0585H30.1967C30.276 57.2221 30.3537 57.2027 30.4269 57.1714L30.6226 57.0793L30.8068 56.9642L30.968 56.78C30.968 56.78 31.0371 56.7224 31.0601 56.6763C31.0655 56.6536 31.0655 56.63 31.0601 56.6073C31.0988 56.5393 31.126 56.4654 31.1407 56.3885C31.1461 56.3157 31.1461 56.2426 31.1407 56.1698C31.1407 56.1698 31.1407 56.1698 31.1407 56.1007V50.9318H34.721C34.6673 51.313 34.648 51.6983 34.6634 52.083C34.6634 53.6096 35.2699 55.0737 36.3494 56.1532C37.4288 57.2326 38.8929 57.8391 40.4195 57.8391C41.9462 57.8391 43.4102 57.2326 44.4897 56.1532C45.5692 55.0737 46.1756 53.6096 46.1756 52.083C46.1682 51.6962 46.1259 51.3109 46.049 50.9318H49.6293V56.1583C49.6293 56.1583 49.6293 56.1583 49.6293 56.2274C49.6239 56.3002 49.6239 56.3733 49.6293 56.4461C49.644 56.5229 49.6712 56.5968 49.7099 56.6648C49.7045 56.6875 49.7045 56.7112 49.7099 56.7339C49.7099 56.7339 49.779 56.803 49.802 56.8375L49.9632 57.0217L50.1474 57.1368L50.3431 57.2289C50.4163 57.2602 50.494 57.2797 50.5733 57.2865H50.7115H50.7805H50.9993C51.0742 57.2704 51.1474 57.2473 51.218 57.2174H51.2871C51.8255 56.8789 52.447 56.6956 53.083 56.6879C53.9989 56.6879 54.8774 57.0517 55.5251 57.6994C56.1728 58.3471 56.5366 59.2256 56.5366 60.1415C56.5366 61.0575 56.1728 61.9359 55.5251 62.5836C54.8774 63.2313 53.9989 63.5952 53.083 63.5952C52.4759 63.5924 51.8803 63.4296 51.3561 63.1232H51.2871C51.2165 63.0933 51.1433 63.0702 51.0683 63.0541H50.8496H50.7805H50.6424C50.5666 63.0368 50.4879 63.0368 50.4121 63.0541L50.2164 63.1462L50.0322 63.2613L49.8711 63.4455C49.8711 63.4455 49.802 63.5031 49.779 63.5491C49.7736 63.5718 49.7736 63.5955 49.779 63.6182C49.7403 63.6862 49.7131 63.7601 49.6984 63.8369C49.693 63.9098 49.693 63.9829 49.6984 64.0557C49.6984 64.0557 49.6984 64.0557 49.6984 64.1247V69.3513H46.049C46.1259 68.9722 46.1682 68.5868 46.1756 68.2001C46.1756 66.6735 45.5692 65.2094 44.4897 64.1299C43.4102 63.0504 41.9462 62.444 40.4195 62.444ZM63.444 60.1415C63.444 61.6681 64.0504 63.1322 65.1299 64.2117C66.2094 65.2912 67.6735 65.8976 69.2001 65.8976C69.5868 65.8902 69.9722 65.8478 70.3513 65.771V69.3513H65.0557H64.8369C64.762 69.3674 64.6888 69.3905 64.6182 69.4204H64.5491C64.5491 69.4204 64.4801 69.4894 64.4455 69.524L64.2613 69.6736C64.2163 69.7306 64.1777 69.7924 64.1462 69.8578C64.1087 69.9196 64.0778 69.9852 64.0541 70.0535C64.0228 70.1267 64.0034 70.2045 63.9966 70.2838C63.9966 70.2838 63.9966 70.3759 63.9966 70.4219C63.9966 70.468 63.9966 70.4219 63.9966 70.491C63.9912 70.5638 63.9912 70.6369 63.9966 70.7097C64.0112 70.7866 64.0385 70.8605 64.0771 70.9285C64.0718 70.9512 64.0718 70.9748 64.0771 70.9975C64.4136 71.5405 64.593 72.1662 64.5952 72.805C64.5952 73.7209 64.2313 74.5994 63.5836 75.2471C62.9359 75.8948 62.0575 76.2586 61.1415 76.2586C60.2256 76.2586 59.3471 75.8948 58.6994 75.2471C58.0517 74.5994 57.6879 73.7209 57.6879 72.805C57.6907 72.1979 57.8535 71.6022 58.1599 71.0781C58.1652 71.0554 58.1652 71.0318 58.1599 71.0091C58.1985 70.941 58.2257 70.8672 58.2404 70.7903C58.2458 70.7175 58.2458 70.6444 58.2404 70.5716C58.2404 70.5716 58.2404 70.5716 58.2404 70.5025C58.2404 70.4334 58.2404 70.4104 58.2404 70.3644C58.2336 70.285 58.2142 70.2073 58.1829 70.1341C58.1592 70.0658 58.1283 70.0002 58.0908 69.9384C58.0593 69.873 58.0207 69.8112 57.9757 69.7542L57.7915 69.6046C57.7915 69.6046 57.7339 69.524 57.6879 69.501H57.6188C57.5482 69.4711 57.475 69.448 57.4001 69.4319H57.1813H51.9318V65.771C52.3109 65.8478 52.6962 65.8902 53.083 65.8976C54.6096 65.8976 56.0737 65.2912 57.1532 64.2117C58.2326 63.1322 58.8391 61.6681 58.8391 60.1415C58.8391 58.6149 58.2326 57.1508 57.1532 56.0713C56.0737 54.9919 54.6096 54.3854 53.083 54.3854C52.6962 54.3928 52.3109 54.4352 51.9318 54.5121V50.9318H58.1368C58.2208 50.9437 58.3061 50.9437 58.3901 50.9318H58.5743L58.7355 50.8166C58.8091 50.7734 58.8785 50.7233 58.9427 50.667C58.9738 50.6235 59.0007 50.5773 59.0233 50.5288C59.0722 50.46 59.1146 50.3868 59.1499 50.3101C59.1608 50.2299 59.1608 50.1486 59.1499 50.0683C59.1553 50.0147 59.1553 49.9608 59.1499 49.9072C59.1608 49.827 59.1608 49.7456 59.1499 49.6654C59.1565 49.6003 59.1565 49.5348 59.1499 49.4697L59.0348 49.3085C58.9915 49.2349 58.9414 49.1655 58.8851 49.1013C58.3638 48.635 57.9963 48.0214 57.8313 47.3417C57.6664 46.662 57.7117 45.9482 57.9613 45.2948C58.2108 44.6413 58.6529 44.0791 59.229 43.6825C59.8052 43.2858 60.4881 43.0734 61.1876 43.0734C61.887 43.0734 62.57 43.2858 63.1461 43.6825C63.7222 44.0791 64.1643 44.6413 64.4139 45.2948C64.6635 45.9482 64.7088 46.662 64.5438 47.3417C64.3788 48.0214 64.0114 48.635 63.49 49.1013C63.4337 49.1655 63.3836 49.2349 63.3404 49.3085L63.2252 49.4697C63.2187 49.5348 63.2187 49.6003 63.2252 49.6654C63.2143 49.7456 63.2143 49.827 63.2252 49.9072C63.2198 49.9608 63.2198 50.0147 63.2252 50.0683C63.2143 50.1486 63.2143 50.2299 63.2252 50.3101C63.2606 50.3868 63.3029 50.46 63.3519 50.5288C63.3744 50.5773 63.4014 50.6235 63.4325 50.667C63.5215 50.7536 63.6222 50.8272 63.7318 50.8857C63.7629 50.8981 63.7905 50.9178 63.8124 50.9433C63.9584 51.0035 64.1148 51.0348 64.2728 51.0354H70.3513V54.6157C69.9754 54.5039 69.59 54.4268 69.2001 54.3854C67.6735 54.3854 66.2094 54.9919 65.1299 56.0713C64.0504 57.1508 63.444 58.6149 63.444 60.1415ZM73.805 42.8732C73.1979 42.8704 72.6022 42.7076 72.0781 42.4012H72.0091C71.9385 42.3714 71.8652 42.3482 71.7903 42.3321H71.5716H71.5025H71.3644C71.285 42.3389 71.2073 42.3584 71.1341 42.3897L70.9384 42.4818L70.7542 42.5969L70.593 42.7811C70.593 42.7811 70.524 42.8387 70.501 42.8847C70.4956 42.9074 70.4956 42.9311 70.501 42.9538C70.4623 43.0218 70.4351 43.0957 70.4204 43.1725C70.415 43.2453 70.415 43.3184 70.4204 43.3913C70.4204 43.3913 70.4204 43.3913 70.4204 43.4603V48.6293H66.4141C66.7978 47.7533 66.9571 46.7954 66.8778 45.8423C66.7984 44.8892 66.4828 43.9709 65.9595 43.1704C65.4361 42.3699 64.7216 41.7124 63.8804 41.2574C63.0392 40.8023 62.0979 40.564 61.1415 40.564C60.1851 40.564 59.2438 40.8023 58.4026 41.2574C57.5615 41.7124 56.8469 42.3699 56.3236 43.1704C55.8003 43.9709 55.4847 44.8892 55.4053 45.8423C55.3259 46.7954 55.4852 47.7533 55.8689 48.6293H51.9318V43.4028C51.9318 43.4028 51.9318 43.4028 51.9318 43.3337C51.9371 43.2609 51.9371 43.1878 51.9318 43.115C51.9171 43.0381 51.8898 42.9642 51.8512 42.8962C51.8566 42.8735 51.8566 42.8499 51.8512 42.8272C51.8512 42.8272 51.7821 42.7581 51.7591 42.7235L51.5979 42.5393L51.4137 42.4242L51.218 42.3321C51.1448 42.3008 51.0671 42.2814 50.9878 42.2746H50.8496H50.7805H50.5618C50.4869 42.2907 50.4136 42.3138 50.3431 42.3436H50.274C49.7355 42.6822 49.1141 42.8654 48.4781 42.8732C47.5621 42.8732 46.6837 42.5093 46.036 41.8617C45.3883 41.214 45.0244 40.3355 45.0244 39.4195C45.0244 38.5036 45.3883 37.6251 46.036 36.9774C46.6837 36.3297 47.5621 35.9659 48.4781 35.9659C49.0852 35.9687 49.6808 36.1315 50.2049 36.4379H50.274C50.3446 36.4677 50.4178 36.4908 50.4927 36.5069H50.7115H50.7805H50.9187C50.998 36.5001 51.0757 36.4807 51.1489 36.4494L51.3446 36.3573L51.5288 36.2422L51.69 36.058C51.69 36.058 51.7591 36.0004 51.7821 35.9544C51.7875 35.9317 51.7875 35.908 51.7821 35.8853C51.8208 35.8173 51.848 35.7434 51.8627 35.6666C51.8681 35.5937 51.8681 35.5206 51.8627 35.4478C51.8627 35.4478 51.8627 35.4478 51.8627 35.3788V30.2098H55.7999C55.4162 31.0858 55.2568 32.0437 55.3362 32.9968C55.4156 33.9498 55.7312 34.8681 56.2545 35.6686C56.7778 36.4692 57.4924 37.1267 58.3336 37.5817C59.1747 38.0368 60.1161 38.2751 61.0724 38.2751C62.0288 38.2751 62.9702 38.0368 63.8113 37.5817C64.6525 37.1267 65.3671 36.4692 65.8904 35.6686C66.4137 34.8681 66.7293 33.9498 66.8087 32.9968C66.8881 32.0437 66.7287 31.0858 66.345 30.2098H70.3513V35.4363C70.3513 35.4363 70.3513 35.4363 70.3513 35.5054C70.3459 35.5782 70.3459 35.6513 70.3513 35.7241C70.366 35.801 70.3932 35.8748 70.4319 35.9429C70.4265 35.9656 70.4265 35.9892 70.4319 36.0119C70.4319 36.0119 70.501 36.081 70.524 36.1155L70.6852 36.2997L70.8693 36.4149L71.065 36.5069C71.1382 36.5383 71.216 36.5577 71.2953 36.5645H71.4334H71.5025H71.7212C71.7962 36.5484 71.8694 36.5253 71.94 36.4954H72.0091C72.5475 36.1569 73.169 35.9737 73.805 35.9659C74.7209 35.9659 75.5994 36.3297 76.2471 36.9774C76.8948 37.6251 77.2586 38.5036 77.2586 39.4195C77.2586 40.3355 76.8948 41.214 76.2471 41.8617C75.5994 42.5093 74.7209 42.8732 73.805 42.8732Z" fill="black"/>
</svg>
