<svg width="50" height="47" viewBox="0 0 50 47" fill="none" xmlns="http://www.w3.org/2000/svg">
<path d="M45.7467 10.5241H29.2939L35.1708 2.58895C35.2983 2.41895 35.3911 2.22552 35.4438 2.01967C35.4966 1.81383 35.5083 1.59961 35.4782 1.38926C35.4482 1.1789 35.377 0.976528 35.2687 0.793685C35.1604 0.610842 35.0172 0.451113 34.8472 0.323618C34.6772 0.196124 34.4838 0.10336 34.278 0.050624C34.0721 -0.00211218 33.8579 -0.013788 33.6475 0.0162628C33.4372 0.0463135 33.2348 0.117503 33.052 0.225765C32.8691 0.334028 32.7094 0.477244 32.5819 0.647237L25.2681 10.5241H24.5691L17.2618 0.660182C17.1343 0.490189 16.9746 0.346973 16.7917 0.23871C16.6089 0.130448 16.4065 0.0592586 16.1962 0.0292078C15.9858 -0.000842951 15.7716 0.0108329 15.5658 0.0635691C15.3599 0.116305 15.1665 0.209069 14.9965 0.336563C14.8265 0.464058 14.6833 0.623786 14.575 0.806629C14.4667 0.989472 14.3956 1.19185 14.3655 1.4022C14.3355 1.61256 14.3471 1.82677 14.3999 2.03262C14.4526 2.23846 14.5454 2.4319 14.6729 2.60189L20.5498 10.537H4.09054C3.00566 10.537 1.96521 10.968 1.19809 11.7351C0.430966 12.5022 0 13.5427 0 14.6276V42.6788C0 43.7637 0.430966 44.8041 1.19809 45.5713C1.96521 46.3384 3.00566 46.7693 4.09054 46.7693H45.7467C46.8316 46.7693 47.872 46.3384 48.6392 45.5713C49.4063 44.8041 49.8372 43.7637 49.8372 42.6788V14.6146C49.8372 13.5297 49.4063 12.4893 48.6392 11.7222C47.872 10.955 46.8316 10.5241 45.7467 10.5241ZM46.6011 42.6788C46.6011 42.9054 46.511 43.1227 46.3508 43.2829C46.1906 43.4431 45.9733 43.5332 45.7467 43.5332H4.09054C3.86395 43.5332 3.64664 43.4431 3.48642 43.2829C3.3262 43.1227 3.23618 42.9054 3.23618 42.6788V14.6146C3.23618 14.388 3.3262 14.1707 3.48642 14.0105C3.64664 13.8503 3.86395 13.7603 4.09054 13.7603H23.3847C23.5193 13.7991 23.6588 13.8187 23.7989 13.8185C23.9412 13.8187 24.0827 13.7991 24.2196 13.7603H25.6176C25.7545 13.7991 25.8961 13.8187 26.0383 13.8185C26.1785 13.8187 26.3179 13.7991 26.4526 13.7603H45.7467C45.9733 13.7603 46.1906 13.8503 46.3508 14.0105C46.511 14.1707 46.6011 14.388 46.6011 14.6146V42.6788Z" fill="url(#paint0_linear)"/>
<defs>
<linearGradient id="paint0_linear" x1="24.9186" y1="0" x2="24.9186" y2="46.7693" gradientUnits="userSpaceOnUse">
<stop stop-color="#00D1FF"/>
<stop offset="1" stop-color="#003399"/>
</linearGradient>
</defs>
</svg>
