<svg width="26" height="19" viewBox="0 0 26 19" fill="none" xmlns="http://www.w3.org/2000/svg">
<path fill-rule="evenodd" clip-rule="evenodd" d="M12.5001 10.0511C12.1152 9.78024 8.67929 6.71501 8.13753 6.24453C7.75259 5.93088 7.42468 5.63148 7.03975 5.28931C6.88292 5.161 3.91748 2.60902 3.81768 2.43793L21.2396 2.45219C21.1256 2.60902 17.3047 5.91662 16.8913 6.27304C16.7059 6.42987 12.7425 9.97984 12.5001 10.0654V10.0511ZM16.6347 9.26699C16.7344 9.0674 17.2192 8.69672 17.4045 8.53989C17.6897 8.31178 17.9178 8.08367 18.1887 7.85556L22.979 3.7068V14.9127C22.7794 14.8414 20.2131 12.4748 19.7997 12.1326C19.2437 11.6622 18.7732 11.1917 18.2172 10.7069L16.6204 9.26699H16.6347ZM2.07834 3.72105C2.27794 3.77808 2.74842 4.24856 2.93376 4.40539C3.21889 4.64775 3.46126 4.86161 3.71789 5.08972C4.25965 5.57445 4.7729 5.9879 5.28615 6.47264C5.54277 6.71501 5.81365 6.92886 6.09879 7.18548L8.46544 9.26699C8.39415 9.43808 5.68534 11.7905 5.28615 12.1469L2.07834 14.9698V3.72105ZM0.0253456 16.9372C0.0253456 13.9147 0.0253456 10.8923 0.0253456 7.88407C0.0253456 5.80256 -0.031682 3.09375 0.0253456 1.06927C0.0396025 0.399194 0.46731 0 1.1659 0H23.9057C24.6185 0 25.0462 0.41345 25.0462 1.1263V16.9515C25.0462 17.6928 24.647 18.1205 23.9057 18.1205H1.1659C0.424539 18.1205 0.0396025 17.6786 0.0253456 16.9515V16.9372ZM10.0337 10.6642C10.2618 10.7355 10.4757 11.0063 10.661 11.1632C10.8463 11.32 11.0317 11.4911 11.2313 11.6479C11.5449 11.9188 11.9869 12.4748 12.5714 12.4605C13.0847 12.4463 13.4696 11.9901 13.8831 11.6194L15.0521 10.6214C15.2802 10.7497 15.6367 11.1061 15.8363 11.2772L18.1031 13.3017C18.5023 13.6866 20.9973 15.8537 21.0971 16.0105L4.0458 15.9963L10.0337 10.6499V10.6642Z" fill="black"/>
</svg>
