<svg width="69" height="43" viewBox="0 0 69 43" fill="none" xmlns="http://www.w3.org/2000/svg">
<path d="M64.6875 11.4667H63.25V4.3C63.25 1.92927 61.3151 0 58.9375 0H10.0625C7.68488 0 5.75 1.92927 5.75 4.3V11.4667H4.3125C1.93488 11.4667 0 13.3959 0 15.7667V32.9667C0 35.3374 1.93488 37.2667 4.3125 37.2667H5.75V41.5667C5.75 42.3579 6.394 43 7.1875 43H15.8125C16.606 43 17.25 42.3579 17.25 41.5667V37.2667H51.75V41.5667C51.75 42.3579 52.394 43 53.1875 43H61.8125C62.606 43 63.25 42.3579 63.25 41.5667V37.2667H64.6875C67.0651 37.2667 69 35.3374 69 32.9667V15.7667C69 13.3959 67.0651 11.4667 64.6875 11.4667ZM10.0625 2.86667H58.9375C59.7281 2.86667 60.375 3.5088 60.375 4.3V11.7304C58.7046 12.3238 57.5 13.9005 57.5 15.7667V20.0667H11.5V15.7667C11.5 13.9005 10.2954 12.3238 8.625 11.7304V4.3C8.625 3.5088 9.27188 2.86667 10.0625 2.86667ZM11.5 22.9333H57.5V25.8H11.5V22.9333ZM14.375 40.1333H8.625V37.2667H14.375V40.1333ZM60.375 40.1333H54.625V37.2667H60.375V40.1333ZM66.125 32.9667C66.125 33.7579 65.4781 34.4 64.6875 34.4H4.3125C3.52187 34.4 2.875 33.7579 2.875 32.9667V15.7667C2.875 14.9755 3.52187 14.3333 4.3125 14.3333H7.1875C7.97813 14.3333 8.625 14.9755 8.625 15.7667V27.2333C8.625 28.0245 9.269 28.6667 10.0625 28.6667H58.9375C59.731 28.6667 60.375 28.0245 60.375 27.2333V15.7667C60.375 14.9755 61.0219 14.3333 61.8125 14.3333H64.6875C65.4781 14.3333 66.125 14.9755 66.125 15.7667V32.9667Z" fill="url(#paint0_linear)"/>
<defs>
<linearGradient id="paint0_linear" x1="34.5" y1="0" x2="34.5" y2="43" gradientUnits="userSpaceOnUse">
<stop stop-color="#00D1FF"/>
<stop offset="1" stop-color="#003399"/>
</linearGradient>
</defs>
</svg>
