<svg width="24" height="15" viewBox="0 0 24 15" fill="none" xmlns="http://www.w3.org/2000/svg">
<path d="M10.9352 9.37557e-05C10.813 -0.00166314 10.6917 0.0212878 10.5783 0.0676126C10.4649 0.113937 10.3617 0.182712 10.2747 0.26994C10.1877 0.357168 10.1186 0.46111 10.0714 0.575725C10.0243 0.69034 10 0.813341 10 0.937582C10 1.06182 10.0243 1.18482 10.0714 1.29944C10.1186 1.41405 10.1877 1.518 10.2747 1.60522C10.3617 1.69245 10.4649 1.76123 10.5783 1.80755C10.6917 1.85388 10.813 1.87683 10.9352 1.87507H23.0648C23.187 1.87683 23.3083 1.85388 23.4217 1.80755C23.5351 1.76123 23.6383 1.69245 23.7253 1.60522C23.8123 1.518 23.8814 1.41405 23.9286 1.29944C23.9757 1.18482 24 1.06182 24 0.937582C24 0.813341 23.9757 0.69034 23.9286 0.575725C23.8814 0.46111 23.8123 0.357168 23.7253 0.26994C23.6383 0.182712 23.5351 0.113937 23.4217 0.0676126C23.3083 0.0212878 23.187 -0.00166314 23.0648 9.37557e-05H10.9352ZM0.935199 6.56251C0.813015 6.56075 0.691705 6.58371 0.57832 6.63003C0.464935 6.67635 0.361736 6.74513 0.274721 6.83236C0.187706 6.91959 0.11861 7.02353 0.0714481 7.13814C0.0242865 7.25276 0 7.37576 0 7.5C0 7.62424 0.0242865 7.74724 0.0714481 7.86186C0.11861 7.97647 0.187706 8.08041 0.274721 8.16764C0.361736 8.25487 0.464935 8.32364 0.57832 8.36997C0.691705 8.41629 0.813015 8.43925 0.935199 8.43749H23.0648C23.187 8.43925 23.3083 8.41629 23.4217 8.36997C23.5351 8.32364 23.6383 8.25487 23.7253 8.16764C23.8123 8.08041 23.8814 7.97647 23.9286 7.86186C23.9757 7.74724 24 7.62424 24 7.5C24 7.37576 23.9757 7.25276 23.9286 7.13814C23.8814 7.02353 23.8123 6.91959 23.7253 6.83236C23.6383 6.74513 23.5351 6.67635 23.4217 6.63003C23.3083 6.58371 23.187 6.56075 23.0648 6.56251H0.935199ZM6.9352 13.1249C6.81301 13.1232 6.6917 13.1461 6.57832 13.1924C6.46493 13.2388 6.36174 13.3075 6.27472 13.3948C6.18771 13.482 6.11861 13.5859 6.07145 13.7006C6.02429 13.8152 6 13.9382 6 14.0624C6 14.1867 6.02429 14.3097 6.07145 14.4243C6.11861 14.5389 6.18771 14.6428 6.27472 14.7301C6.36174 14.8173 6.46493 14.8861 6.57832 14.9324C6.6917 14.9787 6.81301 15.0017 6.9352 14.9999H23.0648C23.187 15.0017 23.3083 14.9787 23.4217 14.9324C23.5351 14.8861 23.6383 14.8173 23.7253 14.7301C23.8123 14.6428 23.8814 14.5389 23.9286 14.4243C23.9757 14.3097 24 14.1867 24 14.0624C24 13.9382 23.9757 13.8152 23.9286 13.7006C23.8814 13.5859 23.8123 13.482 23.7253 13.3948C23.6383 13.3075 23.5351 13.2388 23.4217 13.1924C23.3083 13.1461 23.187 13.1232 23.0648 13.1249H6.9352Z" fill="white"/>
</svg>
