<svg width="49" height="39" viewBox="0 0 49 39" fill="none" xmlns="http://www.w3.org/2000/svg">
<path fill-rule="evenodd" clip-rule="evenodd" d="M7.79704 38.4809L43.745 3.02623C44.4467 2.33395 44.4467 1.21153 43.745 0.519241C43.0429 -0.17308 41.9048 -0.17308 41.2028 0.519241L5.25518 35.9736C4.55322 36.666 4.55322 37.7885 5.25518 38.4809C5.95709 39.173 7.09513 39.173 7.79704 38.4809ZM24.5 1.77274C28.045 1.77274 31.4188 2.92625 34.478 4.64477L31.8276 7.25894C29.4403 6.04536 26.9707 5.31819 24.5 5.31819C20.1549 5.31819 15.8132 7.56725 11.9165 10.7557C8.22255 13.7784 5.3183 17.3272 3.705 19.5C5.20927 21.5259 7.83583 24.7482 11.1785 27.6248L8.63117 30.1371C4.94861 26.932 2.12966 23.4045 0.605405 21.3245C-0.201802 20.2231 -0.201802 18.7769 0.605405 17.6755C3.92169 13.1501 13.3665 1.77274 24.5 1.77274ZM24.5 10.6364C25.659 10.6364 26.7669 10.8528 27.7842 11.2469L24.8001 14.1899C24.7008 14.1846 24.6007 14.1818 24.5 14.1818C21.522 14.1818 19.1078 16.5628 19.1078 19.5C19.1078 19.5993 19.1106 19.6981 19.116 19.7961L16.132 22.7391C15.7325 21.7358 15.513 20.6432 15.513 19.5C15.513 14.6048 19.5366 10.6364 24.5 10.6364ZM32.8679 16.2609L29.8839 19.204C29.8894 19.302 29.8921 19.4007 29.8921 19.5C29.8921 22.4372 27.478 24.8182 24.5 24.8182C24.3993 24.8182 24.2992 24.8155 24.1998 24.8101L21.2158 27.7531C22.2331 28.1474 23.3409 28.3636 24.5 28.3636C29.4633 28.3636 33.4869 24.3953 33.4869 19.5C33.4869 18.3568 33.2676 17.2642 32.8679 16.2609ZM24.5 33.6818C22.0293 33.6818 19.5597 32.9547 17.1724 31.741L14.5219 34.3551C17.5811 36.0739 20.955 37.2273 24.5 37.2273C35.6334 37.2273 45.0783 25.8499 48.3945 21.3245C49.2018 20.2231 49.2018 18.7769 48.3945 17.6755C46.8703 15.5955 44.0513 12.068 40.3688 8.86297L37.8215 11.3753C41.1643 14.2518 43.7906 17.4741 45.295 19.5C43.6817 21.6728 40.7775 25.2217 37.0835 28.2442C33.1868 31.4326 28.8451 33.6818 24.5 33.6818Z" fill="url(#paint0_linear)"/>
<defs>
<linearGradient id="paint0_linear" x1="24.5" y1="0" x2="24.5" y2="39" gradientUnits="userSpaceOnUse">
<stop stop-color="#00D1FF"/>
<stop offset="1" stop-color="#003399"/>
</linearGradient>
</defs>
</svg>
