<svg width="46" height="46" viewBox="0 0 46 46" fill="none" xmlns="http://www.w3.org/2000/svg">
<path d="M44.326 9.83944L21.6727 0.130887C21.4266 0.0253888 21.1582 -0.0173871 20.8915 0.00639553C20.6248 0.0301781 20.3681 0.119776 20.1446 0.267155C19.921 0.414533 19.7375 0.615087 19.6106 0.850834C19.4836 1.08658 19.4171 1.35015 19.4171 1.61791V42.0702H16.1809V37.2159C16.1809 36.7868 16.0104 36.3752 15.707 36.0718C15.4035 35.7683 14.992 35.5979 14.5628 35.5979H8.09046C7.66132 35.5979 7.24975 35.7683 6.9463 36.0718C6.64285 36.3752 6.47237 36.7868 6.47237 37.2159V42.0702H3.23618V12.9446H14.5628C14.992 12.9446 15.4035 12.7741 15.707 12.4706C16.0104 12.1672 16.1809 11.7556 16.1809 11.3265C16.1809 10.8973 16.0104 10.4858 15.707 10.1823C15.4035 9.87885 14.992 9.70838 14.5628 9.70838H1.61809C1.18895 9.70838 0.777379 9.87885 0.473928 10.1823C0.170477 10.4858 0 10.8973 0 11.3265V43.6883C0 44.1175 0.170477 44.529 0.473928 44.8325C0.777379 45.1359 1.18895 45.3064 1.61809 45.3064H27.5076C27.9367 45.3064 28.3483 45.1359 28.6517 44.8325C28.9552 44.529 29.1257 44.1175 29.1257 43.6883V38.834H35.598V42.0702H33.9799C33.5508 42.0702 33.1392 42.2407 32.8358 42.5441C32.5323 42.8476 32.3618 43.2592 32.3618 43.6883C32.3618 44.1175 32.5323 44.529 32.8358 44.8325C33.1392 45.1359 33.5508 45.3064 33.9799 45.3064H43.6885C44.1176 45.3064 44.5292 45.1359 44.8327 44.8325C45.1361 44.529 45.3066 44.1175 45.3066 43.6883V11.3265C45.3065 11.0099 45.2136 10.7002 45.0393 10.4359C44.865 10.1716 44.617 9.96419 44.326 9.83944ZM9.70855 42.0702V38.834H12.9447V42.0702H9.70855ZM42.0704 42.0702H38.8342V37.2159C38.8342 36.7868 38.6637 36.3752 38.3603 36.0718C38.0568 35.7683 37.6453 35.5979 37.2161 35.5979H27.5076C27.0784 35.5979 26.6669 35.7683 26.3634 36.0718C26.0599 36.3752 25.8895 36.7868 25.8895 37.2159V42.0702H22.6533V4.07256L42.0704 12.3928V42.0702Z" fill="url(#paint0_linear)"/>
<path d="M8.09046 16.1807H6.47237C6.04322 16.1807 5.63166 16.3512 5.32821 16.6547C5.02475 16.9581 4.85428 17.3697 4.85428 17.7988C4.85428 18.228 5.02475 18.6395 5.32821 18.943C5.63166 19.2464 6.04322 19.4169 6.47237 19.4169H8.09046C8.51961 19.4169 8.93117 19.2464 9.23462 18.943C9.53808 18.6395 9.70855 18.228 9.70855 17.7988C9.70855 17.3697 9.53808 16.9581 9.23462 16.6547C8.93117 16.3512 8.51961 16.1807 8.09046 16.1807Z" fill="url(#paint1_linear)"/>
<path d="M14.5628 16.1807C14.1337 16.1807 13.7221 16.3512 13.4187 16.6547C13.1152 16.9581 12.9447 17.3697 12.9447 17.7988C12.9447 18.228 13.1152 18.6395 13.4187 18.943C13.7221 19.2464 14.1337 19.4169 14.5628 19.4169H16.1809C16.6101 19.4169 17.0216 19.2464 17.3251 18.943C17.6285 18.6395 17.799 18.228 17.799 17.7988C17.799 17.3697 17.6285 16.9581 17.3251 16.6547C17.0216 16.3512 16.6101 16.1807 16.1809 16.1807H14.5628Z" fill="url(#paint2_linear)"/>
<path d="M8.09046 22.6531H6.47237C6.04322 22.6531 5.63166 22.8236 5.32821 23.127C5.02475 23.4305 4.85428 23.842 4.85428 24.2712C4.85428 24.7003 5.02475 25.1119 5.32821 25.4153C5.63166 25.7188 6.04322 25.8893 6.47237 25.8893H8.09046C8.51961 25.8893 8.93117 25.7188 9.23462 25.4153C9.53808 25.1119 9.70855 24.7003 9.70855 24.2712C9.70855 23.842 9.53808 23.4305 9.23462 23.127C8.93117 22.8236 8.51961 22.6531 8.09046 22.6531Z" fill="url(#paint3_linear)"/>
<path d="M16.1809 22.6531H14.5628C14.1337 22.6531 13.7221 22.8236 13.4187 23.127C13.1152 23.4305 12.9447 23.842 12.9447 24.2712C12.9447 24.7003 13.1152 25.1119 13.4187 25.4153C13.7221 25.7188 14.1337 25.8893 14.5628 25.8893H16.1809C16.6101 25.8893 17.0216 25.7188 17.3251 25.4153C17.6285 25.1119 17.799 24.7003 17.799 24.2712C17.799 23.842 17.6285 23.4305 17.3251 23.127C17.0216 22.8236 16.6101 22.6531 16.1809 22.6531Z" fill="url(#paint4_linear)"/>
<path d="M8.09046 29.1255H6.47237C6.04322 29.1255 5.63166 29.2959 5.32821 29.5994C5.02475 29.9028 4.85428 30.3144 4.85428 30.7436C4.85428 31.1727 5.02475 31.5843 5.32821 31.8877C5.63166 32.1912 6.04322 32.3616 6.47237 32.3616H8.09046C8.51961 32.3616 8.93117 32.1912 9.23462 31.8877C9.53808 31.5843 9.70855 31.1727 9.70855 30.7436C9.70855 30.3144 9.53808 29.9028 9.23462 29.5994C8.93117 29.2959 8.51961 29.1255 8.09046 29.1255Z" fill="url(#paint5_linear)"/>
<path d="M16.1809 29.1255H14.5628C14.1337 29.1255 13.7221 29.2959 13.4187 29.5994C13.1152 29.9028 12.9447 30.3144 12.9447 30.7436C12.9447 31.1727 13.1152 31.5843 13.4187 31.8877C13.7221 32.1912 14.1337 32.3616 14.5628 32.3616H16.1809C16.6101 32.3616 17.0216 32.1912 17.3251 31.8877C17.6285 31.5843 17.799 31.1727 17.799 30.7436C17.799 30.3144 17.6285 29.9028 17.3251 29.5994C17.0216 29.2959 16.6101 29.1255 16.1809 29.1255Z" fill="url(#paint6_linear)"/>
<path d="M27.5076 19.4169H29.1257C29.5548 19.4169 29.9664 19.2464 30.2698 18.943C30.5733 18.6395 30.7438 18.228 30.7438 17.7988C30.7438 17.3697 30.5733 16.9581 30.2698 16.6547C29.9664 16.3512 29.5548 16.1807 29.1257 16.1807H27.5076C27.0784 16.1807 26.6669 16.3512 26.3634 16.6547C26.0599 16.9581 25.8895 17.3697 25.8895 17.7988C25.8895 18.228 26.0599 18.6395 26.3634 18.943C26.6669 19.2464 27.0784 19.4169 27.5076 19.4169Z" fill="url(#paint7_linear)"/>
<path d="M27.5076 12.9445H29.1257C29.5548 12.9445 29.9664 12.7741 30.2698 12.4706C30.5733 12.1672 30.7438 11.7556 30.7438 11.3264C30.7438 10.8973 30.5733 10.4857 30.2698 10.1823C29.9664 9.87883 29.5548 9.70835 29.1257 9.70835H27.5076C27.0784 9.70835 26.6669 9.87883 26.3634 10.1823C26.0599 10.4857 25.8895 10.8973 25.8895 11.3264C25.8895 11.7556 26.0599 12.1672 26.3634 12.4706C26.6669 12.7741 27.0784 12.9445 27.5076 12.9445Z" fill="url(#paint8_linear)"/>
<path d="M35.598 19.4169H37.2161C37.6453 19.4169 38.0568 19.2464 38.3603 18.943C38.6637 18.6395 38.8342 18.228 38.8342 17.7988C38.8342 17.3697 38.6637 16.9581 38.3603 16.6547C38.0568 16.3512 37.6453 16.1807 37.2161 16.1807H35.598C35.1689 16.1807 34.7573 16.3512 34.4539 16.6547C34.1504 16.9581 33.9799 17.3697 33.9799 17.7988C33.9799 18.228 34.1504 18.6395 34.4539 18.943C34.7573 19.2464 35.1689 19.4169 35.598 19.4169Z" fill="url(#paint9_linear)"/>
<path d="M27.5076 25.8893H29.1257C29.5548 25.8893 29.9664 25.7188 30.2698 25.4153C30.5733 25.1119 30.7438 24.7003 30.7438 24.2712C30.7438 23.842 30.5733 23.4305 30.2698 23.127C29.9664 22.8236 29.5548 22.6531 29.1257 22.6531H27.5076C27.0784 22.6531 26.6669 22.8236 26.3634 23.127C26.0599 23.4305 25.8895 23.842 25.8895 24.2712C25.8895 24.7003 26.0599 25.1119 26.3634 25.4153C26.6669 25.7188 27.0784 25.8893 27.5076 25.8893Z" fill="url(#paint10_linear)"/>
<path d="M35.598 25.8893H37.2161C37.6453 25.8893 38.0568 25.7188 38.3603 25.4153C38.6637 25.1119 38.8342 24.7003 38.8342 24.2712C38.8342 23.842 38.6637 23.4305 38.3603 23.127C38.0568 22.8236 37.6453 22.6531 37.2161 22.6531H35.598C35.1689 22.6531 34.7573 22.8236 34.4539 23.127C34.1504 23.4305 33.9799 23.842 33.9799 24.2712C33.9799 24.7003 34.1504 25.1119 34.4539 25.4153C34.7573 25.7188 35.1689 25.8893 35.598 25.8893Z" fill="url(#paint11_linear)"/>
<path d="M27.5076 32.3616H29.1257C29.5548 32.3616 29.9664 32.1912 30.2698 31.8877C30.5733 31.5843 30.7438 31.1727 30.7438 30.7436C30.7438 30.3144 30.5733 29.9028 30.2698 29.5994C29.9664 29.2959 29.5548 29.1255 29.1257 29.1255H27.5076C27.0784 29.1255 26.6669 29.2959 26.3634 29.5994C26.0599 29.9028 25.8895 30.3144 25.8895 30.7436C25.8895 31.1727 26.0599 31.5843 26.3634 31.8877C26.6669 32.1912 27.0784 32.3616 27.5076 32.3616Z" fill="url(#paint12_linear)"/>
<path d="M35.598 32.3616H37.2161C37.6453 32.3616 38.0568 32.1912 38.3603 31.8877C38.6637 31.5843 38.8342 31.1727 38.8342 30.7436C38.8342 30.3144 38.6637 29.9028 38.3603 29.5994C38.0568 29.2959 37.6453 29.1255 37.2161 29.1255H35.598C35.1689 29.1255 34.7573 29.2959 34.4539 29.5994C34.1504 29.9028 33.9799 30.3144 33.9799 30.7436C33.9799 31.1727 34.1504 31.5843 34.4539 31.8877C34.7573 32.1912 35.1689 32.3616 35.598 32.3616Z" fill="url(#paint13_linear)"/>
<defs>
<linearGradient id="paint0_linear" x1="22.6533" y1="0" x2="22.6533" y2="45.3064" gradientUnits="userSpaceOnUse">
<stop stop-color="#00D1FF"/>
<stop offset="1" stop-color="#003399"/>
</linearGradient>
<linearGradient id="paint1_linear" x1="22.6533" y1="0" x2="22.6533" y2="45.3064" gradientUnits="userSpaceOnUse">
<stop stop-color="#00D1FF"/>
<stop offset="1" stop-color="#003399"/>
</linearGradient>
<linearGradient id="paint2_linear" x1="22.6533" y1="0" x2="22.6533" y2="45.3064" gradientUnits="userSpaceOnUse">
<stop stop-color="#00D1FF"/>
<stop offset="1" stop-color="#003399"/>
</linearGradient>
<linearGradient id="paint3_linear" x1="22.6533" y1="0" x2="22.6533" y2="45.3064" gradientUnits="userSpaceOnUse">
<stop stop-color="#00D1FF"/>
<stop offset="1" stop-color="#003399"/>
</linearGradient>
<linearGradient id="paint4_linear" x1="22.6533" y1="0" x2="22.6533" y2="45.3064" gradientUnits="userSpaceOnUse">
<stop stop-color="#00D1FF"/>
<stop offset="1" stop-color="#003399"/>
</linearGradient>
<linearGradient id="paint5_linear" x1="22.6533" y1="0" x2="22.6533" y2="45.3064" gradientUnits="userSpaceOnUse">
<stop stop-color="#00D1FF"/>
<stop offset="1" stop-color="#003399"/>
</linearGradient>
<linearGradient id="paint6_linear" x1="22.6533" y1="0" x2="22.6533" y2="45.3064" gradientUnits="userSpaceOnUse">
<stop stop-color="#00D1FF"/>
<stop offset="1" stop-color="#003399"/>
</linearGradient>
<linearGradient id="paint7_linear" x1="22.6533" y1="0" x2="22.6533" y2="45.3064" gradientUnits="userSpaceOnUse">
<stop stop-color="#00D1FF"/>
<stop offset="1" stop-color="#003399"/>
</linearGradient>
<linearGradient id="paint8_linear" x1="22.6533" y1="0" x2="22.6533" y2="45.3064" gradientUnits="userSpaceOnUse">
<stop stop-color="#00D1FF"/>
<stop offset="1" stop-color="#003399"/>
</linearGradient>
<linearGradient id="paint9_linear" x1="22.6533" y1="0" x2="22.6533" y2="45.3064" gradientUnits="userSpaceOnUse">
<stop stop-color="#00D1FF"/>
<stop offset="1" stop-color="#003399"/>
</linearGradient>
<linearGradient id="paint10_linear" x1="22.6533" y1="0" x2="22.6533" y2="45.3064" gradientUnits="userSpaceOnUse">
<stop stop-color="#00D1FF"/>
<stop offset="1" stop-color="#003399"/>
</linearGradient>
<linearGradient id="paint11_linear" x1="22.6533" y1="0" x2="22.6533" y2="45.3064" gradientUnits="userSpaceOnUse">
<stop stop-color="#00D1FF"/>
<stop offset="1" stop-color="#003399"/>
</linearGradient>
<linearGradient id="paint12_linear" x1="22.6533" y1="0" x2="22.6533" y2="45.3064" gradientUnits="userSpaceOnUse">
<stop stop-color="#00D1FF"/>
<stop offset="1" stop-color="#003399"/>
</linearGradient>
<linearGradient id="paint13_linear" x1="22.6533" y1="0" x2="22.6533" y2="45.3064" gradientUnits="userSpaceOnUse">
<stop stop-color="#00D1FF"/>
<stop offset="1" stop-color="#003399"/>
</linearGradient>
</defs>
</svg>
