<svg width="39" height="28" viewBox="0 0 39 28" fill="none" xmlns="http://www.w3.org/2000/svg">
<path fill-rule="evenodd" clip-rule="evenodd" d="M19.4642 15.5311C18.8648 15.1125 13.5147 10.3761 12.6711 9.64909C12.0717 9.16444 11.5611 8.70181 10.9617 8.17309C10.7175 7.97482 6.09999 4.03147 5.94459 3.76711L33.0727 3.78914C32.8951 4.03147 26.9455 9.14241 26.3018 9.69315C26.0132 9.93548 19.8416 15.4209 19.4642 15.5531V15.5311ZM25.9022 14.3194C26.0576 14.011 26.8123 13.4382 27.1009 13.1959C27.5449 12.8434 27.9001 12.491 28.3219 12.1385L35.781 5.72777V23.0433C35.4702 22.9331 31.4743 19.2762 30.8305 18.7474C29.9647 18.0205 29.2321 17.2935 28.3663 16.5445L25.88 14.3194H25.9022ZM3.23623 5.7498C3.54702 5.83792 4.27961 6.56491 4.56821 6.80724C5.01221 7.18175 5.3896 7.5122 5.7892 7.86467C6.63279 8.61369 7.43198 9.25256 8.23117 10.0016C8.63076 10.3761 9.05256 10.7065 9.49655 11.1031L13.1817 14.3194C13.0707 14.5838 8.85276 18.2187 8.23117 18.7695L3.23623 23.1314V5.7498ZM0.0394662 26.1715C0.0394662 21.5012 0.0394662 16.8308 0.0394662 12.1825C0.0394662 8.96617 -0.0493327 4.78049 0.0394662 1.65224C0.0616659 0.616837 0.727658 0 1.81544 0H37.224C38.334 0 39 0.638867 39 1.74036V26.1935C39 27.3391 38.3784 28 37.224 28H1.81544C0.661059 28 0.0616659 27.3171 0.0394662 26.1935V26.1715ZM15.6237 16.4784C15.9789 16.5885 16.3119 17.0071 16.6005 17.2494C16.8891 17.4917 17.1777 17.7561 17.4885 17.9984C17.9769 18.417 18.665 19.2762 19.5752 19.2541C20.3744 19.2321 20.9738 18.5271 21.6176 17.9544L23.438 16.4123C23.7932 16.6105 24.3482 17.1613 24.659 17.4256L28.1887 20.5539C28.8103 21.1487 32.6953 24.4972 32.8507 24.7396L6.29979 24.7175L15.6237 16.4563V16.4784Z" fill="url(#paint0_linear)"/>
<defs>
<linearGradient id="paint0_linear" x1="19.5" y1="0" x2="19.5" y2="28" gradientUnits="userSpaceOnUse">
<stop stop-color="#00D1FF"/>
<stop offset="0.947917" stop-color="#003399"/>
</linearGradient>
</defs>
</svg>
