<svg width="38" height="38" viewBox="0 0 38 38" fill="none" xmlns="http://www.w3.org/2000/svg">
<path fill-rule="evenodd" clip-rule="evenodd" d="M14.7396 8.62674C11.8816 9.84401 11.0084 12.4109 11.5111 15.3217C11.8287 17.0682 12.4638 18.8148 13.5752 20.9053C14.6866 23.0223 16.1156 25.007 17.624 26.5947C21.7256 30.8022 28.3677 30.0877 26.1713 26.383C25.0599 24.6365 24.4248 23.2075 24.4248 23.2075C24.4248 23.2075 23.9485 22.202 22.9958 22.7841C21.9902 23.4192 21.0376 24.1072 20.5613 24.0014C19.8203 23.8955 14.0251 16.4596 16.2479 15.2953C17.2535 14.8189 19 14.2368 18.2591 13.0195C17.7298 12.1198 15.8245 8.91783 15.8245 8.91783C15.8245 8.91783 15.454 8.2298 14.7131 8.60028L14.7396 8.62674ZM19 0C24.2396 0 29.0028 2.11699 32.4429 5.5571C35.883 8.99721 38 13.734 38 19C38 24.2396 35.883 29.0028 32.4429 32.4429C29.0028 35.883 24.266 38 19 38C13.7604 38 8.99721 35.883 5.5571 32.4429C2.11699 29.0028 0 24.266 0 19C0 13.7604 2.11699 8.99721 5.5571 5.5571C8.99721 2.11699 13.734 0 19 0ZM29.876 8.09749C27.0975 5.31894 23.234 3.59889 19 3.59889C14.7396 3.59889 10.9025 5.31894 8.12395 8.09749C5.3454 10.876 3.62535 14.7396 3.62535 18.9735C3.62535 23.234 5.3454 27.071 8.12395 29.8496C10.9025 32.6281 14.766 34.3482 19 34.3482C23.2604 34.3482 27.0975 32.6281 29.876 29.8496C32.6546 27.071 34.3746 23.2075 34.3746 18.9735C34.3746 14.7131 32.6546 10.876 29.876 8.09749Z" fill="url(#paint0_linear)"/>
<defs>
<linearGradient id="paint0_linear" x1="19" y1="0" x2="19" y2="38" gradientUnits="userSpaceOnUse">
<stop stop-color="#00D1FF"/>
<stop offset="0.947917" stop-color="#003399"/>
</linearGradient>
</defs>
</svg>
