<svg width="49" height="52" viewBox="0 0 49 52" fill="none" xmlns="http://www.w3.org/2000/svg">
<g filter="url(#filter0_d)">
<path d="M44.76 37.8452L42.0545 30.7435C41.7383 29.8489 41.1538 29.0737 40.3808 28.5235C39.6078 27.9733 38.6839 27.675 37.7351 27.6691H34.922C37.8889 24.2317 39.63 19.9061 39.8717 15.3717C39.8717 11.2949 38.2522 7.38504 35.3695 4.50228C32.4867 1.61952 28.5768 0 24.5 0C20.4232 0 16.5133 1.61952 13.6305 4.50228C10.7478 7.38504 9.12825 11.2949 9.12825 15.3717C9.37 19.9061 11.1111 24.2317 14.078 27.6691H11.2649C10.3161 27.675 9.39222 27.9733 8.61921 28.5235C7.8462 29.0737 7.26172 29.8489 6.94546 30.7435L4.24003 37.8452C4.02465 38.427 3.95271 39.0521 4.03031 39.6675C4.10791 40.283 4.33277 40.8707 4.68581 41.3807C5.03622 41.8931 5.50644 42.3122 6.05561 42.6015C6.60479 42.8908 7.2163 43.0416 7.83702 43.0409H41.163C41.7837 43.0416 42.3952 42.8908 42.9444 42.6015C43.4936 42.3122 43.9638 41.8931 44.3142 41.3807C44.6672 40.8707 44.8921 40.283 44.9697 39.6675C45.0473 39.0521 44.9753 38.427 44.76 37.8452ZM24.5 3.07435C27.7615 3.07435 30.8894 4.36997 33.1956 6.67618C35.5018 8.98238 36.7974 12.1103 36.7974 15.3717C36.7974 23.6879 27.4206 31.2969 24.5 33.4643C21.5794 31.2969 12.2026 23.6879 12.2026 15.3717C12.2026 12.1103 13.4982 8.98238 15.8044 6.67618C18.1106 4.36997 21.2385 3.07435 24.5 3.07435ZM41.7932 39.6284C41.7255 39.7336 41.6321 39.8198 41.5218 39.8789C41.4116 39.9381 41.2881 39.9682 41.163 39.9665H7.83702C7.71192 39.9682 7.58843 39.9381 7.47819 39.8789C7.36794 39.8198 7.27454 39.7336 7.20678 39.6284C7.15018 39.5191 7.12064 39.3979 7.12064 39.2748C7.12064 39.1518 7.15018 39.0305 7.20678 38.9213L9.89684 31.7427C10.0019 31.4604 10.1876 31.2152 10.4308 31.0376C10.674 30.86 10.9641 30.7577 11.2649 30.7435H16.8141C18.9173 32.9322 21.2347 34.9046 23.7314 36.6309C23.9824 36.7962 24.2763 36.8843 24.5769 36.8843C24.8774 36.8843 25.1713 36.7962 25.4223 36.6309C27.8923 34.9004 30.1838 32.9282 32.2627 30.7435H37.7351C38.0492 30.7425 38.356 30.8377 38.6143 31.0163C38.8727 31.195 39.0701 31.4484 39.18 31.7427L41.8701 38.9213C41.9152 39.0366 41.9317 39.1611 41.9184 39.2842C41.905 39.4074 41.862 39.5254 41.7932 39.6284ZM32.1859 15.3717C32.1859 13.8516 31.7351 12.3656 30.8906 11.1017C30.046 9.83777 28.8457 8.85265 27.4413 8.27093C26.0368 7.6892 24.4915 7.537 23.0006 7.83356C21.5096 8.13012 20.1402 8.86213 19.0653 9.93702C17.9904 11.0119 17.2584 12.3814 16.9618 13.8723C16.6652 15.3632 16.8175 16.9086 17.3992 18.313C17.9809 19.7174 18.966 20.9178 20.23 21.7623C21.4939 22.6069 22.9799 23.0576 24.5 23.0576C26.5384 23.0576 28.4934 22.2479 29.9347 20.8065C31.3761 19.3651 32.1859 17.4102 32.1859 15.3717ZM19.8885 15.3717C19.8885 14.4597 20.1589 13.5681 20.6657 12.8097C21.1724 12.0514 21.8926 11.4603 22.7352 11.1113C23.5779 10.7622 24.5051 10.6709 25.3997 10.8488C26.2942 11.0268 27.1159 11.466 27.7608 12.1109C28.4058 12.7558 28.845 13.5775 29.0229 14.4721C29.2009 15.3666 29.1095 16.2939 28.7605 17.1365C28.4115 17.9791 27.8204 18.6994 27.062 19.2061C26.3037 19.7128 25.4121 19.9833 24.5 19.9833C23.2769 19.9833 22.104 19.4974 21.2392 18.6326C20.3743 17.7678 19.8885 16.5948 19.8885 15.3717Z" fill="url(#paint0_linear)"/>
</g>
<defs>
<filter id="filter0_d" x="0" y="0" width="49" height="51.0409" filterUnits="userSpaceOnUse" color-interpolation-filters="sRGB">
<feFlood flood-opacity="0" result="BackgroundImageFix"/>
<feColorMatrix in="SourceAlpha" type="matrix" values="0 0 0 0 0 0 0 0 0 0 0 0 0 0 0 0 0 0 127 0"/>
<feOffset dy="4"/>
<feGaussianBlur stdDeviation="2"/>
<feColorMatrix type="matrix" values="0 0 0 0 0 0 0 0 0 0 0 0 0 0 0 0 0 0 0.25 0"/>
<feBlend mode="normal" in2="BackgroundImageFix" result="effect1_dropShadow"/>
<feBlend mode="normal" in="SourceGraphic" in2="effect1_dropShadow" result="shape"/>
</filter>
<linearGradient id="paint0_linear" x1="24.5" y1="0" x2="24.5" y2="43.0409" gradientUnits="userSpaceOnUse">
<stop stop-color="#00D1FF"/>
<stop offset="0.947917" stop-color="#003399"/>
</linearGradient>
</defs>
</svg>
