<svg width="27" height="28" viewBox="0 0 27 28" fill="none" xmlns="http://www.w3.org/2000/svg">
<path d="M26.5162 24.62L24.7562 20C24.5504 19.4181 24.1702 18.9137 23.6673 18.5558C23.1644 18.1979 22.5634 18.0038 21.9462 18H20.1162C22.0463 15.7638 23.1789 12.9498 23.3362 10C23.3362 7.34784 22.2826 4.8043 20.4072 2.92893C18.5319 1.05357 15.9883 0 13.3362 0C10.684 0 8.14045 1.05357 6.26508 2.92893C4.38972 4.8043 3.33615 7.34784 3.33615 10C3.49342 12.9498 4.62605 15.7638 6.55615 18H4.72615C4.10892 18.0038 3.50788 18.1979 3.005 18.5558C2.50212 18.9137 2.12189 19.4181 1.91615 20L0.156153 24.62C0.0160353 24.9984 -0.0307656 25.4051 0.0197176 25.8055C0.0702008 26.2059 0.216479 26.5882 0.446153 26.92C0.674108 27.2533 0.980006 27.5259 1.33727 27.7141C1.69453 27.9023 2.09235 28.0005 2.49615 28H24.1762C24.58 28.0005 24.9778 27.9023 25.335 27.7141C25.6923 27.5259 25.9982 27.2533 26.2262 26.92C26.4558 26.5882 26.6021 26.2059 26.6526 25.8055C26.7031 25.4051 26.6563 24.9984 26.5162 24.62ZM13.3362 2C15.4579 2 17.4927 2.84285 18.993 4.34315C20.4933 5.84344 21.3362 7.87827 21.3362 10C21.3362 15.41 15.2362 20.36 13.3362 21.77C11.4362 20.36 5.33615 15.41 5.33615 10C5.33615 7.87827 6.17901 5.84344 7.6793 4.34315C9.17959 2.84285 11.2144 2 13.3362 2ZM24.5862 25.78C24.5421 25.8484 24.4813 25.9045 24.4096 25.943C24.3379 25.9815 24.2575 26.0011 24.1762 26H2.49615C2.41477 26.0011 2.33443 25.9815 2.26271 25.943C2.19099 25.9045 2.13023 25.8484 2.08615 25.78C2.04933 25.7089 2.03011 25.63 2.03011 25.55C2.03011 25.47 2.04933 25.3911 2.08615 25.32L3.83615 20.65C3.90451 20.4664 4.0253 20.3069 4.18353 20.1913C4.34175 20.0758 4.53044 20.0092 4.72615 20H8.33615C9.70437 21.4239 11.2119 22.707 12.8362 23.83C12.9994 23.9375 13.1906 23.9948 13.3862 23.9948C13.5817 23.9948 13.7729 23.9375 13.9362 23.83C15.543 22.7043 17.0337 21.4213 18.3862 20H21.9462C22.1505 19.9993 22.3501 20.0613 22.5182 20.1775C22.6862 20.2937 22.8146 20.4586 22.8862 20.65L24.6362 25.32C24.6655 25.395 24.6763 25.476 24.6676 25.5561C24.6589 25.6362 24.6309 25.713 24.5862 25.78ZM18.3362 10C18.3362 9.01109 18.0429 8.04439 17.4935 7.22215C16.9441 6.3999 16.1632 5.75904 15.2496 5.3806C14.3359 5.00216 13.3306 4.90315 12.3607 5.09607C11.3908 5.289 10.4999 5.7652 9.80062 6.46447C9.10136 7.16373 8.62515 8.05464 8.43223 9.02455C8.2393 9.99445 8.33832 10.9998 8.71675 11.9134C9.09519 12.827 9.73606 13.6079 10.5583 14.1573C11.3805 14.7068 12.3472 15 13.3362 15C14.6622 15 15.934 14.4732 16.8717 13.5355C17.8094 12.5979 18.3362 11.3261 18.3362 10ZM10.3362 10C10.3362 9.40666 10.5121 8.82664 10.8417 8.33329C11.1714 7.83994 11.6399 7.45542 12.1881 7.22836C12.7363 7.0013 13.3395 6.94189 13.9214 7.05764C14.5034 7.1734 15.0379 7.45912 15.4575 7.87868C15.877 8.29824 16.1628 8.83279 16.2785 9.41473C16.3943 9.99667 16.3349 10.5999 16.1078 11.1481C15.8807 11.6962 15.4962 12.1648 15.0029 12.4944C14.5095 12.8241 13.9295 13 13.3362 13C12.5405 13 11.7774 12.6839 11.2148 12.1213C10.6522 11.5587 10.3362 10.7956 10.3362 10Z" fill="black"/>
</svg>
