<svg width="131" height="30" viewBox="0 0 131 30" fill="none" xmlns="http://www.w3.org/2000/svg">
<path fill-rule="evenodd" clip-rule="evenodd" d="M0.0526181 14.7886C0.0526181 16.3145 0.26309 17.9457 0.789271 19.419C0.947125 19.8926 1.10498 20.3135 1.31545 20.6818C1.63116 21.2606 1.52592 21.208 1.94687 21.8394C2.0521 22.0499 2.15734 22.2078 2.26258 22.4182C3.05185 23.6811 3.47279 23.9441 4.20944 24.9439C4.3673 25.1017 4.47254 25.1544 4.68301 25.3648C4.84086 25.5227 4.99872 25.6279 5.15657 25.7858C5.5249 26.0489 5.99846 26.5224 6.4194 26.7855C6.52464 26.8381 6.57726 26.8908 6.68249 26.9434L7.84009 27.5748C9.83958 28.5745 11.9443 29.1533 14.3121 29.1533H14.3647C14.9435 29.1533 15.4171 29.1007 15.9433 29.0481C16.3642 29.0481 17.0483 28.8902 17.4166 28.785L19.9949 27.9431C20.7315 27.6274 20.4158 27.8905 21.2051 27.4169L22.7836 26.4172C22.8889 26.3646 23.3624 26.1015 22.9415 26.1015C22.3627 26.0489 21.8891 26.1541 21.2051 26.1541C20.521 26.1541 19.0477 25.9963 18.3111 25.8384C17.2061 25.6805 16.7852 25.4701 15.7854 25.1544C15.3119 24.9965 13.4702 24.1546 12.9967 23.9441C12.7862 23.8389 12.681 23.7337 12.4705 23.6284C12.0495 23.3653 10.9446 22.6287 10.5762 22.313C10.1553 21.9447 9.73434 21.5237 9.41863 21.1028C9.10292 20.7344 8.7346 20.4187 8.36627 19.7347C7.73485 18.4719 7.89271 19.1559 7.36653 17.5247C6.62988 15.2622 6.84035 12.947 7.84009 10.8422C8.05056 10.3687 8.78722 9.26371 9.10292 8.84276C9.83958 7.89564 10.1027 7.7904 10.9446 7.00113C11.0498 6.89589 11.0498 6.89589 11.155 6.79066C11.7864 6.3171 12.3652 5.89615 13.1019 5.52782C14.049 5.05426 13.8385 5.1595 14.7857 4.79117C15.8907 4.37023 17.364 3.84405 18.5742 3.68619C19.5739 3.58096 20.521 3.4231 21.626 3.4231C22.1522 3.4231 22.4679 3.47572 22.9941 3.47572C22.8889 3.16001 21.5734 2.42336 21.3103 2.2655C20.942 2.05503 19.7318 1.52885 19.3634 1.371C18.8899 1.16052 17.7323 0.844816 17.1535 0.73958C15.3645 0.371254 14.5752 0.47649 12.8388 0.529108C11.9969 0.581726 10.05 1.05529 9.20816 1.371L7.36653 2.21289C6.15631 2.94954 4.99872 3.68619 4.05159 4.73855L2.99923 5.94877C2.31519 6.79066 1.10498 9.00062 0.789271 10.053C0.473563 11.2106 0.26309 11.6315 0.105236 12.947C0.0526181 13.4732 0 14.052 0 14.6307V14.6834L0.0526181 14.7886Z" fill="#00B2ED"/>
<path fill-rule="evenodd" clip-rule="evenodd" d="M20.7314 10.9474C20.7314 10.0002 21.6259 8.89525 22.6257 8.89525H22.9414C24.0464 8.89525 24.8356 9.84238 24.8356 11.0526C24.8356 12.6311 22.994 13.6309 21.6785 12.6838C21.4154 12.4733 21.3628 12.6311 20.7314 12.9468L17.89 14.4201C16.6272 15.0516 16.8377 14.7885 16.6272 15.3673C16.101 16.8406 13.8911 16.367 13.8911 14.9463C13.8911 14.1044 14.6277 13.4204 15.2591 13.473C15.3118 13.473 15.6275 13.5256 15.6801 13.5256C16.1536 13.6309 15.7327 13.8413 16.6272 13.3678L19.5212 11.8419C19.7317 11.7366 20.5209 11.3157 20.6788 11.2631C20.6788 11.0526 20.6262 11 20.6262 10.8947L20.7314 10.9474ZM11.1023 14.6306C11.1023 16.5249 11.5233 17.6298 12.6282 19.0505C13.0492 19.5767 13.3123 19.7872 13.7332 20.2081C14.0489 20.5238 15.2591 21.3657 15.7327 21.5762C16.3115 21.8919 16.7324 21.9971 17.3639 22.2602C19.1529 22.8917 20.4683 22.9443 22.3626 22.9443C23.3623 22.9443 24.3621 22.6812 25.2039 22.4707C25.6249 22.3655 25.7301 22.0498 25.9932 21.6288C27.0982 19.8398 27.9401 17.3668 27.9401 15.262C27.9401 12.9468 27.7822 12.1576 27.0982 10.2107C26.8877 9.57929 26.8351 9.57929 26.572 9.00049C26.2037 8.26383 26.0458 8.05336 25.6249 7.36933C25.5197 7.15885 25.3618 7.10624 25.0461 7.05362C24.5725 6.94838 24.1516 6.84315 23.6254 6.73791C21.0997 6.31697 17.9427 6.73791 15.7853 7.94813C15.2065 8.26383 14.9434 8.36907 14.3646 8.79001C13.5754 9.36881 13.207 9.73714 12.6282 10.4212C12.523 10.5264 12.4704 10.6316 12.3651 10.7369C12.2073 10.9474 11.839 11.5262 11.7337 11.7892C11.6285 12.0523 11.5233 12.3154 11.3654 12.5785C11.1549 13.0521 10.9971 13.8413 10.9971 14.5254L11.1023 14.6306Z" fill="white"/>
<path fill-rule="evenodd" clip-rule="evenodd" d="M49.6119 20.05H48.6122C48.2439 20.05 48.0334 19.9448 47.7177 19.9448V13.6832C47.7177 13.4728 49.4541 12.8414 50.7169 13.3675C51.3483 13.6306 51.664 14.262 51.8745 14.8935C52.1376 15.788 52.1376 17.156 51.8745 17.9979C51.8219 18.261 51.5588 18.7346 51.4009 18.9451C51.2957 19.1029 51.1905 19.1555 51.0852 19.3134C51.0326 19.366 51.0852 19.3134 50.98 19.4186C50.9274 19.4712 50.9274 19.4712 50.8748 19.4712C50.5591 19.6817 50.0855 19.9974 49.6119 19.9974V20.05ZM44.1396 5.21173V22.3652C44.1396 22.5757 44.4554 22.5231 44.6658 22.5757C46.1918 22.944 47.6651 23.1545 49.3488 23.1545C50.6117 23.1545 52.085 22.7862 53.0321 22.2074C53.1373 22.1548 53.19 22.1021 53.2426 22.0495C53.6635 21.7338 53.9266 21.4707 54.2423 21.1024C54.8737 20.2605 55.2947 19.5238 55.5051 18.4715C55.7682 17.156 55.7156 14.9461 55.2947 13.7359C54.7159 12.2626 54.1371 11.368 52.6112 10.6314C52.2428 10.4735 51.9271 10.3683 51.5062 10.3157C48.9279 9.94736 48.4017 10.6314 47.6651 10.684C47.6651 9.99998 47.6124 8.57929 47.6651 8.00049C47.7703 7.26384 47.7177 5.47482 47.6651 4.63293C47.402 4.63293 47.0336 4.68555 46.7706 4.73817L44.9289 5.00126C44.7184 5.05388 44.1396 5.05388 44.1396 5.26435V5.21173Z" fill="white"/>
<path fill-rule="evenodd" clip-rule="evenodd" d="M108.889 5.15938V22.7864C110.047 22.7864 110.941 22.7864 112.046 22.839C112.467 22.839 112.467 22.839 112.467 22.4181V17.472C112.73 17.6299 112.888 17.7877 113.099 17.9982C113.204 18.1034 113.256 18.2087 113.362 18.3139C113.941 18.9979 114.204 19.3136 114.73 19.9977L116.414 22.5233C116.466 22.6812 116.519 22.7864 116.729 22.7864H120.465C120.833 22.7864 120.255 22.1024 120.044 21.7867L118.308 19.0505C118.203 18.8927 118.15 18.7875 117.992 18.6296L117.624 18.2613C117.519 18.1034 117.413 17.9982 117.308 17.8403C117.15 17.6299 115.572 15.8935 115.572 15.7882C115.572 15.683 116.729 14.578 116.782 14.4728L118.939 12.105C119.044 11.9997 119.15 11.8945 119.255 11.7893L120.307 10.579C120.413 10.4738 120.413 10.5264 120.413 10.3686L118.097 10.3159C117.413 10.3159 116.887 10.3686 116.203 10.3686C116.15 10.579 116.15 10.5264 115.993 10.6843L115.519 11.2105C115.414 11.3157 115.361 11.3683 115.256 11.4735L114.046 12.789C113.941 12.8942 113.888 12.9468 113.783 13.0521C113.52 13.3152 112.52 14.5254 112.309 14.6306V4.47534C111.783 4.47534 111.731 4.52796 111.31 4.58058L110.415 4.73843C110.257 4.73843 110.099 4.73843 109.942 4.79105L109.047 4.9489C108.889 4.9489 108.679 4.9489 108.679 5.10676L108.889 5.15938Z" fill="#00B2ED"/>
<path fill-rule="evenodd" clip-rule="evenodd" d="M63.1328 13.0517C64.1326 13.0517 64.343 13.0517 65.0271 13.7358C65.6585 14.3672 65.5006 15.1565 65.6059 15.3143H61.0807C61.0807 14.1567 61.9752 13.0517 63.1328 13.0517ZM57.3975 16.4193C57.3975 17.5769 57.5027 18.5766 57.9236 19.5764C58.3446 20.5235 58.8181 21.2075 59.66 21.839C59.8179 21.9442 59.9757 22.0494 60.1336 22.1547C61.9226 23.3123 64.2378 23.2597 66.2899 22.8913C67.6054 22.6809 67.658 22.523 68.342 22.3651C68.342 21.4706 67.9211 19.9973 67.9211 19.4711C67.5001 19.4711 66.2373 19.9973 65.1323 19.9973C63.9221 19.9973 63.0802 20.1026 62.0805 19.4185C61.6069 19.1028 61.1333 18.4714 61.1333 17.7874H69.0261C69.0261 15.8931 69.2891 15.2617 68.6051 13.3148C68.342 12.6308 67.9737 12.052 67.5001 11.5784C67.1318 11.2101 67.1844 11.2627 66.7635 10.947C65.2376 9.84204 62.5014 9.73681 60.9229 10.5787C59.1865 11.4206 57.9236 13.1044 57.6079 14.9986C57.5553 15.4196 57.4501 15.9457 57.4501 16.4193H57.3975Z" fill="#FEFEFE"/>
<path fill-rule="evenodd" clip-rule="evenodd" d="M33.0053 24.1021C32.1634 24.1021 32.2161 24.1547 31.4268 23.9968C31.1637 23.9442 31.0058 23.839 30.6901 23.839C30.6901 24.3126 30.1639 26.1016 30.1113 26.6278C30.6901 26.8908 31.6899 27.1013 32.3739 27.1013C32.5844 27.1013 32.5844 27.1539 32.7948 27.1539C33.0053 27.1539 33.0579 27.1013 33.2158 27.1013C34.3734 27.0487 35.3731 26.6804 36.1624 25.8911L36.5834 25.4175C36.9517 24.9966 37.6357 23.8916 37.8462 23.3654C37.9514 23.155 38.004 22.9445 38.1093 22.734L38.5302 21.7869C38.5828 21.6817 38.6355 21.5238 38.6881 21.4186C38.7933 21.2081 38.8459 20.9976 38.9512 20.7871C39.2143 20.1557 39.4773 19.3665 39.7404 18.735L41.7399 13.2628C41.8978 12.7892 42.5818 10.7371 42.5818 10.3688H39.0564C38.8985 10.3688 38.8985 10.6319 38.8459 10.8423L38.1093 13.4206C37.8988 14.1047 37.6883 14.6835 37.4779 15.4727C37.3726 15.8411 37.2674 16.1568 37.1621 16.4725C37.1095 16.7356 36.6886 18.051 36.5307 18.3141L36.4781 18.4193L34.0051 10.8423C33.9524 10.6845 33.9524 10.3688 33.7946 10.3688H30.1113C30.1113 10.5792 30.9532 12.8944 31.0585 13.2101L31.6899 15.1044C31.953 15.9463 31.9003 15.8411 32.2161 16.4725L32.7948 17.7879C32.9527 18.051 33.0579 18.3667 33.1632 18.6824L34.7417 22.1552C34.7943 22.3131 34.6891 22.4183 34.6365 22.5762C34.5312 22.734 34.4786 22.8393 34.426 22.9971C34.1103 23.5233 33.5841 24.0495 32.9527 24.0495L33.0053 24.1021Z" fill="#FEFEFE"/>
<path fill-rule="evenodd" clip-rule="evenodd" d="M121.792 13.5243C121.792 14.5241 121.792 15.4186 122.476 16.2078C123.002 16.7866 123.371 17.0497 124.055 17.3654C124.213 17.418 124.37 17.4707 124.528 17.5759L126.002 18.2073C126.528 18.4704 127.475 18.7861 127.475 19.4175C127.475 19.8385 127.212 20.0489 126.896 20.1542C125.791 20.5225 123.897 20.1016 122.845 19.7859C122.581 19.6806 122.266 19.5754 121.95 19.5754L121.424 22.3641C121.424 22.4694 122.108 22.6272 122.266 22.6798C122.581 22.7851 122.792 22.8377 123.16 22.9429C125.107 23.3639 127.738 23.3639 129.369 22.3641C130.211 21.838 131 20.9961 131 19.628C131 18.5756 130.895 17.5233 130.053 16.7866C129.685 16.4709 129.264 16.2078 128.843 15.9447C128.58 15.7869 128.212 15.629 127.896 15.5238C127.58 15.3659 127.264 15.2607 126.896 15.1028C126.475 14.945 125.318 14.5241 125.318 13.9453C125.318 13.5769 125.265 13.3665 125.739 13.1034C126.317 12.7877 128.054 12.9455 128.58 13.1034C130.053 13.4717 129.79 13.84 130.053 12.6298L130.422 10.946C130.474 10.5777 130.264 10.5777 129.948 10.4725C128.054 10.0515 125.739 9.63057 123.897 10.5251C123.476 10.7356 122.95 10.9986 122.687 11.367C122.529 11.5774 122.371 11.6827 122.266 11.9458C122.055 12.3667 121.792 12.9455 121.792 13.5243Z" fill="#00B2ED"/>
<path fill-rule="evenodd" clip-rule="evenodd" d="M80.8809 7.4215V18.5765C80.8809 19.1027 80.9861 19.5763 81.0913 20.0498C81.1966 20.4182 81.407 20.9443 81.5649 21.26C82.0385 22.0493 82.6173 22.4176 83.4591 22.786C83.617 22.8386 83.9327 22.9438 84.0906 22.9964C84.722 23.1543 85.0377 23.1017 85.5639 23.2069C86.0374 23.2595 87.3529 23.1017 87.8264 22.9438C88.0369 22.8912 88.3 22.8386 88.5105 22.7334C88.7209 22.6807 88.9314 22.5755 89.1419 22.5229C89.1419 22.4176 88.7209 19.7341 88.5631 19.7341C88.4579 19.7341 87.4055 20.0498 86.8267 20.0498C86.09 20.0498 85.2482 20.1551 84.8272 19.4184C84.6167 19.0501 84.4589 18.5239 84.4589 17.9451V13.3673H88.6683V10.526C88.6683 10.3155 88.3526 10.4207 87.9317 10.3681C87.5107 10.3155 84.9851 10.3155 84.4589 10.3155V6.8427C84.4589 6.63223 84.0379 6.79008 83.617 6.8427L81.3018 7.21102C81.1439 7.21102 80.9335 7.21102 80.9335 7.4215H80.8809Z" fill="#00B2ED"/>
<path fill-rule="evenodd" clip-rule="evenodd" d="M96.9111 16.0502C96.9111 17.6814 96.9111 19.3125 97.9109 20.628C98.2792 21.1542 98.174 20.9963 98.6475 21.4699C99.3842 22.2065 100.068 22.5222 101.173 22.838C102.068 23.101 102.383 23.1537 103.383 23.1537C104.067 23.1537 104.699 23.101 105.33 22.9958C106.172 22.838 106.645 22.6275 106.961 22.5222C106.961 22.1013 106.803 21.4699 106.698 21.0489C106.645 20.7858 106.645 20.5228 106.593 20.3123L106.435 19.5756C106.067 19.5756 105.54 19.8913 105.12 19.944L104.33 20.0492C103.225 20.1544 102.068 20.1018 101.331 19.3125C100.542 18.4707 100.542 17.4183 100.542 16.3133C100.542 15.2083 101.121 13.8403 102.173 13.4719C103.962 12.7879 105.172 13.6298 106.014 13.6298C106.014 13.4719 106.067 13.4193 106.119 13.3141C106.277 12.8405 106.698 11.1041 106.751 10.841L105.33 10.3675C103.751 9.99914 102.12 10.0518 100.647 10.6832C99.963 10.9989 99.3316 11.4198 98.8054 11.8934C98.5423 12.1565 98.3318 12.367 98.1213 12.7353C97.4373 13.735 96.9638 14.8926 96.9638 16.1555L96.9111 16.0502Z" fill="#00B2ED"/>
<path fill-rule="evenodd" clip-rule="evenodd" d="M71.373 11.0014V22.7878H74.8985V13.4218C74.8985 13.264 75.0563 13.3166 75.2142 13.264C75.372 13.264 75.5299 13.2114 75.6351 13.2114C76.9506 13.0009 77.1084 13.2114 78.3186 13.3692C78.5291 13.4218 78.7396 13.4745 78.8974 13.4745C78.8974 13.264 79.0027 12.9483 79.0553 12.7904L79.4762 10.5805C79.3184 10.5278 79.2131 10.4752 79.0553 10.4226C78.5817 10.3174 78.0029 10.2121 77.5294 10.1595C76.7927 10.1069 76.0034 10.0543 75.3194 10.1595C75.1615 10.1595 74.9511 10.1595 74.7932 10.2121C74.5828 10.2647 74.4249 10.2647 74.267 10.3174C73.1621 10.4752 72.8464 10.6331 71.8466 10.8962C71.6888 10.9488 71.5309 11.0014 71.373 11.0014Z" fill="#FEFEFE"/>
<path fill-rule="evenodd" clip-rule="evenodd" d="M91.0057 10.4214C91.0057 10.5266 90.9531 10.5266 90.9531 10.6319V22.5762C90.9531 22.734 91.0057 22.8393 91.1636 22.8393C91.795 22.8393 94.1102 22.8919 94.5312 22.7866V10.3688C94.1102 10.3688 93.7945 10.3162 93.3736 10.3162C92.9526 10.3162 91.3215 10.2635 91.0057 10.4214Z" fill="#00B2ED"/>
<path fill-rule="evenodd" clip-rule="evenodd" d="M90.6961 6.52782C90.6961 7.36971 90.6435 7.84327 91.3802 8.42207C91.5906 8.57993 91.7485 8.68516 92.0116 8.7904C92.7482 9.10611 93.748 8.89563 94.3268 8.31684C95.2213 7.42233 95.1161 6.10688 94.3794 5.31761C93.064 4.00215 90.7488 4.94928 90.7488 6.4752L90.6961 6.52782Z" fill="#00B2ED"/>
<path fill-rule="evenodd" clip-rule="evenodd" d="M21.788 10.8944C21.788 11.6311 22.3668 12.1046 22.8929 12.052C24.261 11.9468 24.4715 9.84204 22.7351 9.84204C22.2089 9.84204 21.7354 10.3682 21.7354 10.8944H21.788Z" fill="#FEFEFE"/>
</svg>
