<svg width="49" height="49" viewBox="0 0 49 49" fill="none" xmlns="http://www.w3.org/2000/svg">
<path d="M28.3977 0C25.3357 0 22.8295 2.50613 22.8295 5.56818C22.8295 7.69283 24.0434 9.55467 25.8051 10.4926L22.5511 21.1765C22.4577 21.1709 22.3671 21.1592 22.2727 21.1592C20.2309 21.1592 18.4022 22.0894 17.1744 23.5431L8.36965 16.6002C8.71393 15.9693 8.90909 15.2421 8.90909 14.4774C8.90909 12.0304 6.90154 10.0228 4.45455 10.0228C2.00755 10.0228 0 12.0304 0 14.4774C0 16.9244 2.00755 18.9319 4.45455 18.9319C5.32229 18.9319 6.13374 18.6709 6.82102 18.2359L16.0259 25.4919C15.7465 26.2267 15.5909 27.011 15.5909 27.841C15.5909 29.2742 16.0515 30.6132 16.8264 31.704L9.74432 38.786C8.86549 38.2049 7.80809 37.8638 6.68182 37.8638C3.61982 37.8638 1.11364 40.3699 1.11364 43.4319C1.11364 46.494 3.61982 49.0001 6.68182 49.0001C9.74382 49.0001 12.25 46.494 12.25 43.4319C12.25 42.2977 11.899 41.2521 11.3104 40.3694L18.4098 33.27C19.505 34.0549 20.8293 34.5229 22.2727 34.5229C23.527 34.5229 24.6954 34.1724 25.7006 33.5658L30.0334 38.6816C29.3586 39.5356 28.9545 40.596 28.9545 41.7615C28.9545 44.516 31.2114 46.7729 33.9659 46.7729C36.7204 46.7729 38.9773 44.516 38.9773 41.7615C38.9773 39.007 36.7204 36.7501 33.9659 36.7501C33.1801 36.7501 32.4374 36.9457 31.7734 37.2721L27.4059 32.1041C28.3701 30.9455 28.9545 29.4584 28.9545 27.841C28.9545 27.4963 28.9184 27.1628 28.8676 26.8318L42.1267 22.5686C42.8439 23.415 43.9161 23.9433 45.1023 23.9433C47.2417 23.9433 49 22.185 49 20.0456C49 17.9061 47.2417 16.1478 45.1023 16.1478C42.9628 16.1478 41.2045 17.9061 41.2045 20.0456C41.2045 20.2039 41.2207 20.3618 41.2391 20.5154L28.1713 24.7089C27.4273 23.324 26.1978 22.2327 24.7259 21.6464L27.945 11.1191C28.0929 11.1308 28.2466 11.1364 28.3974 11.1364C31.4595 11.1364 33.9656 8.63023 33.9656 5.56818C33.9656 2.50613 31.4595 0 28.3974 0H28.3977ZM28.3977 2.22727C30.2561 2.22727 31.7386 3.70986 31.7386 5.56818C31.7386 7.42651 30.2561 8.90909 28.3977 8.90909C26.5394 8.90909 25.0568 7.42651 25.0568 5.56818C25.0568 3.70986 26.5394 2.22727 28.3977 2.22727ZM4.45455 12.25C5.69781 12.25 6.68182 13.234 6.68182 14.4773C6.68182 15.7205 5.69781 16.7045 4.45455 16.7045C3.21128 16.7045 2.22727 15.7205 2.22727 14.4773C2.22727 13.234 3.21128 12.25 4.45455 12.25ZM45.1023 18.375C46.038 18.375 46.7727 19.1097 46.7727 20.0455C46.7727 20.9812 46.038 21.7159 45.1023 21.7159C44.1665 21.7159 43.4318 20.9812 43.4318 20.0455C43.4318 19.1097 44.1665 18.375 45.1023 18.375ZM22.2727 23.3864C24.7461 23.3864 26.7273 25.3676 26.7273 27.8409C26.7273 30.3143 24.7461 32.2955 22.2727 32.2955C19.7994 32.2955 17.8182 30.3143 17.8182 27.8409C17.8182 25.3676 19.7994 23.3864 22.2727 23.3864ZM33.9659 38.9773C35.5167 38.9773 36.75 40.2106 36.75 41.7614C36.75 43.3122 35.5167 44.5454 33.9659 44.5454C32.4151 44.5454 31.1818 43.3122 31.1818 41.7614C31.1818 40.2106 32.4151 38.9773 33.9659 38.9773ZM6.68182 40.0909C8.54009 40.0909 10.0227 41.5735 10.0227 43.4318C10.0227 45.2901 8.54009 46.7727 6.68182 46.7727C4.82355 46.7727 3.34091 45.2901 3.34091 43.4318C3.34091 41.5735 4.82355 40.0909 6.68182 40.0909Z" fill="url(#paint0_linear)"/>
<defs>
<linearGradient id="paint0_linear" x1="24.5" y1="0" x2="24.5" y2="49.0001" gradientUnits="userSpaceOnUse">
<stop stop-color="#00D1FF"/>
<stop offset="1" stop-color="#003399"/>
</linearGradient>
</defs>
</svg>
