<svg width="130" height="29" viewBox="0 0 130 29" fill="none" xmlns="http://www.w3.org/2000/svg">
<path fill-rule="evenodd" clip-rule="evenodd" d="M0 14.1341V14.1875C0 15.1503 0.106975 16.0061 0.267437 16.9689C0.481387 18.1991 0.962774 19.4828 1.49765 20.606L2.29996 21.9967C2.35345 22.1037 2.40694 22.1572 2.51391 22.2642C2.78135 22.6386 3.04879 23.013 3.31622 23.3339L3.69063 23.7083L5.1348 25.1525L5.18828 25.206L5.61618 25.5269C6.04408 25.9013 6.52547 26.2222 7.00686 26.4897C7.11383 26.5431 7.16732 26.5966 7.27429 26.6501L9.09287 27.5059C9.19984 27.5594 9.30682 27.5594 9.41379 27.6129C10.0556 27.8803 10.8045 28.0943 11.4998 28.2013C12.2486 28.3617 14.2277 28.5222 15.03 28.4152C15.1904 28.4152 15.5114 28.4152 15.7253 28.3617C15.7788 28.3617 15.9393 28.3082 15.9928 28.3082L18.0788 27.8803L20.1648 27.1315C20.3787 27.0245 20.4857 26.9711 20.6462 26.9176L21.7694 26.2757C21.8764 26.2222 21.8764 26.1687 21.9833 26.1153C22.1438 26.0083 22.7322 25.6874 22.7857 25.4734C22.1438 25.4734 21.2345 25.5804 20.5927 25.4734C20.3252 25.4199 20.1113 25.4734 19.8438 25.4199L17.7578 25.099L14.6556 24.1897C13.5323 23.7083 12.5161 23.2269 11.4998 22.4781C11.3928 22.4246 11.3393 22.3711 11.2859 22.3176C10.6975 21.8363 9.89518 21.1944 9.41379 20.606L8.87892 19.9107C8.82543 19.8572 8.77194 19.7502 8.71846 19.6968C8.34404 19.2154 8.07661 18.734 7.80917 18.1991C7.54173 17.6642 7.32778 17.0224 7.16732 16.434C6.68593 14.8294 6.79291 13.0643 7.27429 11.5132L7.59522 10.6574C7.75568 10.2295 7.91614 9.90855 8.29056 9.32019L8.66497 8.73183C8.71846 8.67834 8.71846 8.67834 8.77194 8.62485C8.93241 8.4109 9.09287 8.14347 9.30682 7.983C9.41379 7.87603 9.41379 7.87603 9.46728 7.76905C9.78821 7.34115 10.6975 6.53884 11.1789 6.21792C11.2859 6.16443 11.3393 6.11094 11.4463 6.00397L11.7138 5.79002L11.7672 5.73653C12.6765 5.14817 13.5323 4.66678 14.4951 4.23888C14.5486 4.18539 14.6021 4.18539 14.6556 4.18539C14.7091 4.18539 14.7091 4.13191 14.816 4.13191C14.923 4.07842 14.9765 4.07842 15.0835 4.02493L16.1532 3.65052C16.7416 3.49006 17.3299 3.32959 17.9183 3.22262L18.988 3.06216C19.202 3.00867 19.4694 3.00867 19.7369 2.95518C20.1113 2.90169 21.288 2.90169 21.8229 2.90169C22.2508 2.90169 22.4647 2.95518 22.8926 2.95518C22.8391 2.84821 22.8926 2.90169 22.8391 2.84821C22.8391 2.84821 22.7857 2.79472 22.7322 2.79472L22.1438 2.36682C21.9833 2.25985 21.8764 2.20636 21.7159 2.09938C21.1275 1.72497 20.5392 1.40405 19.9508 1.13661C19.8438 1.08312 19.7369 1.08312 19.6834 1.02963C19.5764 0.976146 19.5229 0.976146 19.4159 0.922659C19.2555 0.869171 19.095 0.815684 18.9346 0.762196L18.7741 0.708709C18.7741 0.708709 18.7741 0.708709 18.7206 0.708709L17.0625 0.280809C16.902 0.280809 16.902 0.280809 16.7416 0.227322C16.1532 0.120347 15.1904 0.0668593 15.1904 0.0668593C14.7625 -0.0401156 14.5486 0.0133719 14.1207 0.0133719L12.5161 0.120347C11.9277 0.173834 11.2859 0.280809 10.6975 0.494759L10.3231 0.601734C10.3231 0.601734 10.3231 0.601734 10.2696 0.601734L10.1091 0.655221C10.0556 0.655221 10.0556 0.655221 10.0022 0.655221L9.03938 0.976146C8.87892 1.02963 8.55799 1.13661 8.39753 1.24358C7.64871 1.67148 6.89988 1.99241 6.20455 2.52728L5.72316 2.90169C5.61618 2.95518 5.5627 3.00867 5.45572 3.11564C5.34875 3.22262 5.34875 3.22262 5.24177 3.32959C4.76038 3.75749 4.33248 4.18539 3.90458 4.61329L3.74412 4.77376C3.15576 5.41561 2.67437 6.11094 2.24647 6.80628C2.19299 6.85977 2.19299 6.85977 2.19299 6.91325C2.1395 6.96674 2.1395 7.02023 2.08601 7.07372C2.03252 7.18069 1.97904 7.23418 1.92555 7.34115C1.87206 7.44813 1.81857 7.50162 1.76509 7.60859C1.49765 8.08998 1.33719 8.62485 1.06975 9.15973C1.01626 9.32019 1.01626 9.2667 0.962774 9.48065C0.909287 9.6946 0.802312 9.96204 0.748824 10.1225C0.695337 10.3899 0.64185 10.6039 0.534875 10.8713C0.534875 10.9783 0.481387 10.9248 0.481387 11.0318C0.267437 12.048 0.160462 12.9573 0.160462 14.0271L0 14.1341Z" fill="#00B2EE"/>
<path fill-rule="evenodd" clip-rule="evenodd" d="M20.5423 10.4423C20.5423 9.8539 20.7562 9.31902 21.0771 8.9981C21.6655 8.35625 22.0934 8.30276 22.8422 8.30276C23.698 8.30276 24.7143 9.26553 24.7143 10.2818C24.7143 11.512 23.805 12.4213 22.7887 12.4213C21.612 12.4213 21.505 11.9399 21.3446 11.9934L19.7934 12.7957C19.633 12.8492 19.526 12.9027 19.419 13.0097L16.7446 14.4003C16.5842 14.5073 16.6912 14.8817 16.2633 15.2561C15.6749 15.791 14.7656 15.791 14.2307 15.2561C13.5354 14.5073 13.8028 13.0631 15.14 12.9027C15.247 12.9027 15.5144 12.9027 15.7284 12.9562C16.1028 13.0631 16.0493 13.1166 16.6377 12.7957L18.8307 11.619C19.1516 11.4585 19.419 11.2981 19.7399 11.1376C20.0609 10.9771 20.3818 10.8702 20.6492 10.6562C20.6492 10.4957 20.5957 10.5492 20.5957 10.4423H20.5423ZM11.0215 14.2399C11.0215 15.4701 11.4494 16.8073 12.0912 17.77C12.7866 18.8398 13.6424 19.6421 14.7121 20.3374C14.8191 20.3909 14.9261 20.4979 15.0865 20.5514C17.9214 22.263 21.505 22.6909 24.7143 21.8886C25.3026 21.7281 25.2492 21.8351 25.5166 21.4072C25.5701 21.3002 25.6236 21.2467 25.6771 21.1398C26.4259 20.0165 26.9073 18.7863 27.2817 17.5026C27.977 15.0422 27.8166 11.9934 26.9073 9.69343C26.7468 9.26553 26.5329 8.89112 26.3724 8.51671C25.998 7.7144 25.8375 7.60742 25.4096 6.91209C25.2492 6.69814 25.1422 6.69814 24.8213 6.64465C21.826 5.89582 18.5632 6.10977 15.7819 7.55394C15.7284 7.60742 15.6749 7.60742 15.6214 7.66091C15.0865 7.92835 14.3377 8.40974 13.9098 8.78415L12.6261 10.1213C11.7703 11.1376 11.075 12.6887 11.075 14.3468L11.0215 14.2399Z" fill="#003399"/>
<path fill-rule="evenodd" clip-rule="evenodd" d="M47.2499 19.3216V13.117C47.2499 12.9566 47.8383 12.7426 47.9987 12.6891C48.9615 12.3682 50.4591 12.4752 51.0475 13.4379C51.9568 14.9356 52.0638 19.2146 49.015 19.3751C48.8545 19.3751 48.801 19.4285 48.5871 19.4285C48.3731 19.4285 48.3731 19.3751 48.1592 19.3751L47.2499 19.3216ZM43.7732 4.50554C43.7732 4.61251 43.7197 4.666 43.7197 4.77297V21.6215C43.7197 21.782 44.3616 21.889 44.6825 21.9959C44.843 22.0494 45.1104 22.1029 45.2709 22.1029L47.0359 22.3169C48.2127 22.4238 49.3894 22.4773 50.5661 22.2634C50.994 22.1564 51.3149 22.0494 51.6894 21.889C52.8126 21.4076 53.4544 20.8727 54.0963 19.9099C54.3102 19.589 54.4707 19.3216 54.6312 18.9472C55.38 17.3425 55.273 14.7216 54.7381 13.117C53.9893 10.8705 52.2777 9.58685 49.8173 9.58685C49.2289 9.58685 48.3196 9.74731 47.7848 9.90777C47.5708 9.96126 47.4104 10.0682 47.1964 10.1217V4.50554C47.1964 4.2381 47.2499 4.07764 47.0359 4.07764C46.3406 4.13112 45.5383 4.34507 44.843 4.39856C44.629 4.39856 44.522 4.45205 44.3081 4.50554C44.1476 4.50554 43.9872 4.55902 43.7732 4.55902V4.50554Z" fill="#003399"/>
<path fill-rule="evenodd" clip-rule="evenodd" d="M107.97 4.61342V21.9968C107.97 22.1038 108.024 22.1038 108.077 22.1038H111.34C111.554 22.1038 111.447 21.7294 111.447 21.5689V16.8086C111.608 16.8086 111.608 16.862 111.715 16.969C111.768 17.0225 111.768 17.0225 111.822 17.076C112.143 17.3969 112.731 17.9853 113.105 18.5202L113.319 18.7341L114.549 20.3922C114.656 20.5527 114.763 20.7131 114.87 20.8736C114.924 20.9806 114.977 21.0341 115.031 21.141L115.191 21.4085C115.191 21.462 115.245 21.462 115.298 21.5154C115.352 21.5689 115.352 21.5689 115.352 21.6224C115.673 22.1038 115.566 22.0503 116.208 22.0503C117.331 22.0503 118.454 22.0503 119.577 22.0503C119.524 21.6759 119.042 20.9806 118.828 20.6062L118.561 20.1248C118.026 19.3225 117.331 18.2527 116.689 17.5574L115.994 16.7016C115.887 16.5946 115.833 16.4876 115.78 16.3807L115.138 15.7388C114.924 15.5783 114.71 15.3644 114.549 15.1504L114.603 14.99C114.87 14.6156 115.566 14.0272 115.94 13.6528L116.689 12.8505C116.796 12.7435 116.903 12.6365 117.01 12.5296L117.598 11.8342C117.652 11.7807 117.705 11.7272 117.759 11.6738L119.096 10.1226C119.203 10.0156 119.363 9.90867 119.363 9.74821C118.935 9.74821 118.668 9.69473 118.24 9.69473H116.528C116.047 9.69473 115.726 9.74821 115.245 9.74821C115.191 9.8017 115.191 9.85519 115.138 9.90867L113.052 12.3156C112.998 12.3691 112.998 12.4226 112.945 12.4761L111.715 13.8133C111.608 13.9202 111.608 13.9737 111.447 14.0807V4.55993C111.447 3.70413 111.447 3.97157 110.484 4.07854L108.291 4.45296C108.131 4.50644 107.917 4.45296 107.917 4.61342H107.97Z" fill="#00B2EE"/>
<path fill-rule="evenodd" clip-rule="evenodd" d="M62.7174 12.3698C63.6267 12.3698 63.8941 12.5303 64.429 13.0651C64.9639 13.6 64.9639 14.1349 65.0708 14.6698C64.9639 14.7233 60.8453 14.7767 60.6314 14.7233C60.4174 14.6698 60.5244 14.5093 60.5779 14.3488C60.7383 13.6 61.0593 13.0117 61.7546 12.6372C61.9686 12.5303 62.3965 12.4233 62.7174 12.4233V12.3698ZM56.8338 16.007C56.8338 17.4511 57.2617 19.2697 58.1709 20.286C58.9198 21.0883 59.1872 21.3022 60.0965 21.7836C60.5779 22.051 61.1662 22.2115 61.8081 22.3185L63.3057 22.4255L64.3755 22.372C64.7499 22.372 65.4987 22.2115 65.8731 22.158C66.515 21.9976 67.0499 21.9441 67.6382 21.6231L67.3173 19.5371C67.2638 19.3232 67.2638 18.9488 67.2103 18.8418L66.301 19.1092C64.6964 19.4836 62.6639 19.6976 61.3267 18.6813C60.9523 18.3604 60.4709 17.772 60.4709 17.1302H68.3336C68.494 16.4883 68.3871 14.8302 68.2801 14.1884C68.0661 12.7442 67.3708 11.3001 66.1406 10.4443C64.6964 9.48149 63.0918 9.21405 61.3267 9.64195C60.4174 9.8559 59.4546 10.3373 58.8128 10.9791C58.4919 11.3001 58.3849 11.407 58.064 11.7814C57.2082 12.9047 56.7803 14.5093 56.7803 16.007H56.8338Z" fill="#003399"/>
<path fill-rule="evenodd" clip-rule="evenodd" d="M34.4796 21.5677C34.4796 21.8351 33.8377 22.9583 33.3029 23.2258C32.7145 23.4932 32.4471 23.4397 31.7517 23.4397C31.5913 23.4397 31.5378 23.4397 31.4308 23.3862C31.3238 23.3862 31.2168 23.3327 31.1099 23.3327C30.8959 23.2793 30.682 23.1723 30.4145 23.1723L29.8262 26.0071C30.2006 26.1141 30.468 26.2746 31.0564 26.328C32.4471 26.5955 34.0517 26.542 35.1749 25.7932C36.1377 25.1513 36.833 24.0816 37.3679 23.0653C38.4911 20.8188 39.3469 18.4119 40.2562 16.0584C40.3632 15.8445 40.4167 15.684 40.4702 15.4701C40.5237 15.2561 40.6306 15.0422 40.6841 14.8817C40.7376 14.6678 40.8446 14.5073 40.8981 14.2934C41.112 13.6515 42.2353 10.2818 42.2888 9.8539H38.7051L38.1702 11.8864C38.0632 12.2608 37.9563 12.5818 37.9028 12.9027C37.6888 13.812 37.2609 14.9352 36.9935 15.898C36.8865 16.2189 36.7795 16.5398 36.6726 16.8608L36.3516 17.8235C36.1377 17.6631 35.0145 14.1329 34.9075 13.9189L33.9447 10.8167C33.8912 10.5492 33.7308 9.80042 33.5703 9.80042H29.9866C29.9866 9.96088 30.575 11.8329 30.682 12.1539L31.4843 14.4003C31.9657 15.898 32.661 17.2887 33.2494 18.7328C33.3563 19.0003 33.4633 19.2142 33.5703 19.4282L33.8912 20.1235C33.9982 20.284 34.5866 21.4072 34.5866 21.5142L34.4796 21.5677Z" fill="#003399"/>
<path fill-rule="evenodd" clip-rule="evenodd" d="M126.437 18.6816C126.437 19.1629 126.17 19.3769 125.796 19.4839C125.261 19.6443 124.672 19.5908 124.084 19.5908C123.496 19.5908 123.014 19.4839 122.426 19.3234C122.105 19.2699 121.142 18.8955 120.928 18.8955C120.928 19.3234 120.607 20.6606 120.5 21.142C120.393 21.5699 120.286 21.7303 120.661 21.8373C120.821 21.8908 120.928 21.9443 121.089 21.9443C121.677 22.1048 122.212 22.2652 122.8 22.3722C123.335 22.4257 124.351 22.5327 124.833 22.4792C125.154 22.4257 125.528 22.4257 125.849 22.4257L126.544 22.3187C126.919 22.2117 127.026 22.2117 127.454 22.0513C128.042 21.8373 128.63 21.5699 129.005 21.0885L129.058 21.035C129.647 20.3932 129.807 19.6978 129.807 18.735C129.807 18.2002 129.7 17.6653 129.593 17.2909C129.433 16.8095 129.112 16.4351 128.684 16.0607C128.416 15.8467 128.202 15.6863 127.935 15.5258C127.828 15.4723 127.775 15.4188 127.668 15.3653L126.17 14.7235C125.742 14.563 125.261 14.4026 124.833 14.1351C124.726 14.0816 124.779 14.0816 124.672 14.0281C124.244 13.7607 124.03 13.4933 124.137 12.9584C124.137 12.9049 124.244 12.7444 124.298 12.691C124.779 12.2096 126.17 12.2631 126.865 12.4235C127.347 12.5305 127.293 12.477 127.989 12.691C128.096 12.7444 128.202 12.7444 128.309 12.7979C128.47 12.8514 128.523 12.9049 128.684 12.9049C128.737 12.7979 128.737 12.691 128.791 12.5305C128.791 12.37 128.844 12.3165 128.898 12.1561C128.951 11.9421 129.326 10.284 129.326 10.177C129.272 10.0166 128.47 9.85612 128.309 9.80264C127.828 9.69566 127.133 9.5352 126.651 9.5352C126.33 9.5352 126.116 9.42822 125.796 9.42822C125.368 9.42822 124.565 9.42822 124.191 9.5352C123.87 9.64217 123.496 9.69566 123.228 9.80264C123.121 9.85612 123.121 9.85612 123.014 9.90961L122.105 10.391L121.73 10.7119C121.196 11.2468 120.768 11.9421 120.768 12.7444C120.768 12.9584 120.714 13.1189 120.714 13.3328C120.768 14.1351 120.875 14.8839 121.41 15.4723L121.784 15.9002C122.319 16.4351 123.014 16.7025 123.763 16.97L124.084 17.0769C124.191 17.1304 124.137 17.0769 124.191 17.1304L126.223 18.1467C126.33 18.3071 126.437 18.4141 126.437 18.5746V18.6816Z" fill="#00B2EE"/>
<path fill-rule="evenodd" clip-rule="evenodd" d="M87.7977 12.6899V9.85502H83.6257V6.27136L83.4117 6.32485C83.2513 6.27136 82.8769 6.37834 82.6629 6.43182L81.1653 6.69926C81.0048 6.75275 80.8978 6.69926 80.7908 6.75275C80.6304 6.75275 80.7374 6.80624 80.6304 6.80624C80.5234 6.80624 80.5234 6.80624 80.4164 6.80624C80.149 6.85972 80.2025 7.02019 80.2025 7.50157C80.2025 8.73178 80.149 16.8619 80.2025 17.1828C80.256 17.4502 80.256 17.7177 80.256 18.0386C80.256 18.5735 80.5234 19.7502 80.7374 20.2316C80.7908 20.3386 80.8443 20.4455 80.8978 20.499C80.9513 20.606 81.0048 20.6595 81.0583 20.7665C81.2187 20.9804 80.9513 20.606 81.1118 20.8199C81.3257 21.0874 81.5932 21.4083 81.8606 21.6223C82.235 21.8897 82.3955 21.9432 82.8234 22.1036L83.8396 22.3711L85.5512 22.4781L86.728 22.3176C86.7814 22.3176 86.8349 22.3176 86.8884 22.2641C86.9954 22.2641 86.9419 22.2641 87.0489 22.2106L88.4396 21.7827C88.4396 21.5153 88.2791 20.713 88.2256 20.4455C88.1721 20.0176 88.0651 19.5362 87.9582 19.1083C87.6907 19.1083 86.728 19.4293 86.1931 19.4293C85.7652 19.4293 85.2838 19.4293 84.8559 19.3758C84.7489 19.3223 84.6954 19.3223 84.5885 19.2688L84.214 18.9479C83.5722 18.0921 83.7327 16.6479 83.7327 15.5782C83.7327 14.9363 83.6792 13.2782 83.7861 12.7968C83.8931 12.7968 87.6907 12.8503 87.8512 12.7968H87.9047L87.7977 12.6899Z" fill="#00B2EE"/>
<path fill-rule="evenodd" clip-rule="evenodd" d="M106.033 21.7303C106.033 21.5164 105.551 19.1629 105.551 18.949L105.337 19.0025C104.214 19.4304 102.342 19.5374 101.219 19.1629C100.095 18.735 99.614 17.2909 99.614 16.1676L99.6675 15.0444C99.721 14.777 99.7745 14.4026 99.935 14.0816C99.9885 14.0281 99.9885 14.0281 99.9885 13.9747C100.416 13.0119 101.272 12.477 102.395 12.477C103.198 12.477 103.305 12.477 104.107 12.6375L105.016 12.9049L105.551 10.8724C105.605 10.7654 105.605 10.6584 105.658 10.5515C105.712 10.391 105.712 10.3375 105.712 10.1236L104.963 9.85612C104.695 9.74915 104.374 9.69566 104.16 9.64217L102.128 9.42822C101.807 9.42822 101.593 9.48171 101.272 9.48171C100.844 9.48171 99.8815 9.80264 99.4536 10.0166L99.0257 10.2305C98.9722 10.284 98.9722 10.284 98.8652 10.3375L98.0094 10.9259C97.9024 10.9794 97.849 11.0863 97.7955 11.1398L97.4745 11.5142C97.4211 11.5677 97.4211 11.5677 97.3676 11.6212C96.5653 12.691 95.9769 13.9747 95.9769 15.3653C95.9769 15.7397 95.9234 15.9002 95.9769 16.2211C96.0839 16.8095 95.9769 17.0234 96.1374 17.9327C96.3513 18.842 96.7792 19.8048 97.3676 20.3932L98.0094 21.035C98.2769 21.249 98.5978 21.4629 98.9187 21.6234C99.3466 21.8373 99.828 21.9978 100.256 22.1048C100.309 22.1048 100.363 22.1048 100.47 22.1582C100.523 22.1582 100.63 22.2117 100.63 22.2117C100.898 22.2652 102.074 22.3722 102.342 22.3722L103.626 22.2652C103.84 22.2117 104.214 22.1582 104.428 22.1048L105.337 21.8373C105.605 21.7303 105.819 21.7303 105.819 21.5699L106.033 21.7303Z" fill="#00B2EE"/>
<path fill-rule="evenodd" clip-rule="evenodd" d="M70.7781 10.5502V21.9966C70.7781 22.1035 70.8316 22.1035 70.8851 22.1035H74.2548V12.7967C74.2548 12.6362 74.3618 12.6897 74.5222 12.6362C77.0896 12.2618 77.2501 12.8502 78.2128 12.8502L78.6407 10.7107C78.6942 10.4432 78.7477 10.2293 78.7477 9.96186C78.5338 9.90837 78.3198 9.80139 78.1059 9.74791C77.6245 9.64093 76.2338 9.48047 75.6989 9.48047C75.271 9.48047 74.7362 9.53396 74.3083 9.58744C73.185 9.69442 72.0083 10.0153 70.9386 10.3363C70.8316 10.3898 70.7246 10.3898 70.7246 10.4967L70.7781 10.5502Z" fill="#003399"/>
<path fill-rule="evenodd" clip-rule="evenodd" d="M90.3259 22.1043C90.3259 22.1578 90.3259 22.1578 90.7003 22.1578H93.6421C93.7491 22.1043 93.6421 22.2113 93.6956 22.1043C93.8026 21.7299 93.7491 10.2301 93.7491 9.85571H90.3259C90.3259 10.2301 90.2724 21.6764 90.3794 22.1043H90.3259Z" fill="#00B2EE"/>
<path fill-rule="evenodd" clip-rule="evenodd" d="M91.8809 8.35897C92.4693 8.35897 92.7902 8.30548 93.2716 7.98456C93.3251 7.98456 93.3786 7.93107 93.4321 7.87758C94.3414 7.12876 94.2344 5.57762 93.646 4.93577L93.4856 4.77531C93.4321 4.72182 93.4321 4.72182 93.3786 4.66833L92.8972 4.40089C92.2554 4.13346 91.3461 4.18694 90.7577 4.61484C90.0624 5.14972 90.0624 5.41716 89.9554 6.27296C89.9019 6.75434 90.1159 7.39619 90.4903 7.77061C90.6507 7.93107 90.8647 8.09153 91.0786 8.19851C91.2926 8.30548 91.6135 8.41246 91.9344 8.41246L91.8809 8.35897Z" fill="#00B2EE"/>
<path fill-rule="evenodd" clip-rule="evenodd" d="M22.5478 11.4606C23.671 11.4606 23.9919 10.2839 23.4036 9.64206C23.0292 9.21416 22.2803 9.16067 21.799 9.64206C21.2641 10.2304 21.585 11.0862 22.0664 11.3002C22.1734 11.3537 22.3338 11.4071 22.4943 11.4071L22.5478 11.4606Z" fill="#003399"/>
<path fill-rule="evenodd" clip-rule="evenodd" d="M90.3177 22.1025C90.2107 21.6746 90.2642 10.2283 90.2642 9.8539H93.6874C93.6874 10.2283 93.7409 21.6746 93.6339 22.1025C93.6874 22.049 93.6874 22.049 93.6874 21.7816C93.6339 19.963 93.6874 17.877 93.6874 16.005C93.6874 13.9724 93.6874 11.8864 93.6874 9.8539C93.3665 9.8539 93.206 9.80042 92.8316 9.80042L90.1572 9.8539V21.9955C90.2107 22.2095 90.1572 22.049 90.2107 22.156L90.3177 22.1025Z" fill="#77D6E9"/>
<path fill-rule="evenodd" clip-rule="evenodd" d="M87.7532 12.6891C87.8601 12.5821 87.8066 11.4054 87.8066 11.2449C87.8066 10.7635 87.8066 10.2821 87.8066 9.80073C87.4322 9.80073 87.1648 9.74724 86.7904 9.74724H83.5811V6.16357H83.4742C83.3672 6.21706 83.4207 6.16357 83.3672 6.21706L83.5811 6.16357V9.74724H87.7532V12.5821V12.6891Z" fill="#93D4EC"/>
</svg>
