<svg width="42" height="62" viewBox="0 0 42 62" fill="none" xmlns="http://www.w3.org/2000/svg">
<path d="M39.8698 7.18433L17.5401 0.0647236C17.3459 -5.96046e-08 17.1518 0 17.0223 0C16.0515 0 15.2748 0.776684 15.2748 1.74754V7.57267H1.81226C0.841407 7.57267 0 8.34936 0 9.32021V52.1026C0 53.0734 0.776684 53.9148 1.81226 53.9148H15.2748V59.74C15.2748 60.7755 16.1162 61.4875 17.0223 61.4875C17.2165 61.4875 17.4107 61.4875 17.5401 61.4228L39.8698 54.3032C40.5818 54.0443 41.0995 53.397 41.0995 52.6204V8.86715C41.0995 8.09046 40.6465 7.44322 39.8698 7.18433ZM3.8187 50.1609V11.3266H15.2748V50.1609H3.8187ZM37.3456 51.1317L18.964 56.9568V4.46593L37.3456 10.2911V51.1317Z" fill="url(#paint0_linear)"/>
<path d="M23.8183 34.3036C24.8539 34.3036 25.76 33.4622 25.76 32.3619V29.1257C25.76 28.0901 24.9186 27.184 23.8183 27.184C22.7827 27.184 21.8766 28.0254 21.8766 29.1257V32.3619C21.8766 33.3975 22.718 34.3036 23.8183 34.3036Z" fill="url(#paint1_linear)"/>
<defs>
<linearGradient id="paint0_linear" x1="20.5498" y1="0" x2="20.5498" y2="61.4875" gradientUnits="userSpaceOnUse">
<stop stop-color="#00D1FF"/>
<stop offset="1" stop-color="#003399"/>
</linearGradient>
<linearGradient id="paint1_linear" x1="20.5498" y1="0" x2="20.5498" y2="61.4875" gradientUnits="userSpaceOnUse">
<stop stop-color="#00D1FF"/>
<stop offset="1" stop-color="#003399"/>
</linearGradient>
</defs>
</svg>
