<svg width="64" height="54" viewBox="0 0 64 54" fill="none" xmlns="http://www.w3.org/2000/svg">
<path d="M9.58705 27.5458C9.58705 35.5484 9.58705 43.4668 9.58705 51.4694C9.58705 52.4803 10.4294 53.3226 11.4403 53.3226C18.0109 53.3226 24.5814 53.3226 31.152 53.3226C32.1629 53.3226 33.0052 52.4803 33.0052 51.4694C33.0052 47.6787 33.0052 43.888 33.0052 40.1815C33.0052 37.7386 29.2145 37.7386 29.2145 40.1815C29.2145 43.9722 29.2145 47.7629 29.2145 51.4694C29.8884 50.7955 30.4781 50.2058 31.0678 49.6162C24.4972 49.6162 17.9266 49.6162 11.3561 49.6162C12.03 50.2901 12.6196 50.8797 13.2093 51.4694C13.2093 43.4668 13.2093 35.5484 13.2093 27.5458C13.3778 25.1029 9.58705 25.1029 9.58705 27.5458Z" fill="url(#paint0_linear)"/>
<path d="M39.4916 53.4068C43.7878 53.4068 48.1682 53.4068 52.4643 53.4068C53.4752 53.4068 54.3175 52.5644 54.3175 51.5536C54.3175 43.6352 54.3175 35.6326 54.3175 27.7142C54.3175 25.2713 50.5268 25.2713 50.5268 27.7142C50.5268 35.6326 50.5268 43.6352 50.5268 51.5536C51.2007 50.8797 51.7904 50.29 52.3801 49.7003C48.0839 49.7003 43.7035 49.7003 39.4074 49.7003C37.0487 49.6161 37.0487 53.4068 39.4916 53.4068Z" fill="url(#paint1_linear)"/>
<path d="M3.35347 26.7035C13.2093 18.8693 23.0652 11.0352 32.921 3.20105C31.9944 3.20105 31.152 3.20105 30.2254 3.20105C40.334 11.0352 50.4425 18.8693 60.6353 26.7035C62.5728 28.1355 65.2684 25.5241 63.331 24.0078C53.2224 16.1737 43.1138 8.33957 32.921 0.505428C31.9944 -0.168476 31.152 -0.168476 30.2254 0.505428C20.3696 8.33957 10.5137 16.1737 0.65785 24.0078C-1.27963 25.5241 1.50023 28.2197 3.35347 26.7035Z" fill="url(#paint2_linear)"/>
<path d="M20.3695 28.3884C27.1085 22.0705 36.9644 22.0705 43.7034 28.3884C45.4724 30.0732 48.168 27.3775 46.399 25.6928C38.1437 17.9429 26.0134 17.9429 17.6739 25.6928C15.9049 27.3775 18.6005 30.0732 20.3695 28.3884Z" fill="url(#paint3_linear)"/>
<path d="M26.6031 34.8746C29.8041 31.9263 34.353 31.9263 37.554 34.8746C39.323 36.5594 42.0186 33.8638 40.2496 32.179C35.5323 27.7986 28.709 27.7986 23.9917 32.179C22.1384 33.7795 24.8341 36.4752 26.6031 34.8746Z" fill="url(#paint4_linear)"/>
<path d="M31.5429 43.8857C33.3102 43.8857 34.7429 42.453 34.7429 40.6857C34.7429 38.9184 33.3102 37.4857 31.5429 37.4857C29.7755 37.4857 28.3429 38.9184 28.3429 40.6857C28.3429 42.453 29.7755 43.8857 31.5429 43.8857Z" fill="url(#paint5_linear)"/>
<defs>
<linearGradient id="paint0_linear" x1="32" y1="0" x2="32" y2="53.4068" gradientUnits="userSpaceOnUse">
<stop stop-color="#00D1FF"/>
<stop offset="1" stop-color="#003399"/>
</linearGradient>
<linearGradient id="paint1_linear" x1="32" y1="0" x2="32" y2="53.4068" gradientUnits="userSpaceOnUse">
<stop stop-color="#00D1FF"/>
<stop offset="1" stop-color="#003399"/>
</linearGradient>
<linearGradient id="paint2_linear" x1="32" y1="0" x2="32" y2="53.4068" gradientUnits="userSpaceOnUse">
<stop stop-color="#00D1FF"/>
<stop offset="1" stop-color="#003399"/>
</linearGradient>
<linearGradient id="paint3_linear" x1="32" y1="0" x2="32" y2="53.4068" gradientUnits="userSpaceOnUse">
<stop stop-color="#00D1FF"/>
<stop offset="1" stop-color="#003399"/>
</linearGradient>
<linearGradient id="paint4_linear" x1="32" y1="0" x2="32" y2="53.4068" gradientUnits="userSpaceOnUse">
<stop stop-color="#00D1FF"/>
<stop offset="1" stop-color="#003399"/>
</linearGradient>
<linearGradient id="paint5_linear" x1="32" y1="0" x2="32" y2="53.4068" gradientUnits="userSpaceOnUse">
<stop stop-color="#00D1FF"/>
<stop offset="1" stop-color="#003399"/>
</linearGradient>
</defs>
</svg>
