<svg width="52" height="54" viewBox="0 0 52 54" fill="none" xmlns="http://www.w3.org/2000/svg">
<path d="M25.8894 12.4622C25.0274 12.4622 24.3291 11.764 24.3291 10.9015V1.55602C24.3291 0.698135 25.0274 0 25.8894 0C26.7511 0 27.4507 0.698135 27.4507 1.55602V10.9015C27.4507 11.7639 26.7511 12.4622 25.8894 12.4622Z" fill="url(#paint0_linear)"/>
<path d="M17.3061 14.7573C16.5596 15.1863 15.6052 14.9308 15.1743 14.187L10.4923 6.09174C10.0614 5.3479 10.3175 4.39423 11.0638 3.96536C11.3096 3.82387 11.5771 3.75538 11.8422 3.75538C12.3818 3.75538 12.9063 4.0337 13.1956 4.53573L17.8776 12.6286C18.3086 13.3748 18.0526 14.3261 17.3061 14.7573Z" fill="url(#paint1_linear)"/>
<path d="M11.0227 21.0273C10.5918 21.7711 9.63726 22.0267 8.89092 21.5976L0.78082 16.9249C0.0343342 16.4937 -0.221712 15.5422 0.209324 14.7962C0.498584 14.2965 1.02311 14.0182 1.56271 14.0182C1.82783 14.0182 2.09646 14.0867 2.34227 14.2282L10.4512 18.9009C11.1975 19.3298 11.4536 20.2834 11.0227 21.0273Z" fill="url(#paint2_linear)"/>
<path d="M50.9989 16.9249L42.8876 21.5976C42.1423 22.0267 41.1868 21.7711 40.757 21.0273C40.3273 20.2834 40.581 19.3298 41.3285 18.9009L49.4375 14.2282C49.6821 14.0867 49.9519 14.0182 50.217 14.0182C50.7566 14.0182 51.2801 14.2965 51.5704 14.7962C52.0003 15.5424 51.7442 16.4937 50.9989 16.9249Z" fill="url(#paint3_linear)"/>
<path d="M36.6054 14.187C36.1733 14.9308 35.22 15.1863 34.4725 14.7573C33.725 14.3261 33.4711 13.3746 33.9032 12.6286L38.5852 4.53573C38.8732 4.0337 39.3968 3.75538 39.9362 3.75538C40.2013 3.75538 40.4689 3.82387 40.7158 3.96536C41.4611 4.39438 41.7171 5.34805 41.2873 6.09174L36.6054 14.187Z" fill="url(#paint4_linear)"/>
<path d="M38.0548 36.6026C36.9734 38.4701 35.476 40.0626 33.6929 41.2526V51.4C33.6929 52.2602 32.9934 52.9572 32.1338 52.9572H27.4507V52.4388C27.4507 53.299 26.7511 53.9959 25.8894 53.9959C25.0274 53.9959 24.3291 53.299 24.3291 52.4388V52.9572H19.6471C18.7852 52.9572 18.0868 52.2602 18.0868 51.4V41.2502C11.9863 37.1879 10.0076 29.0128 13.726 22.5833C16.227 18.2619 20.8929 15.5742 25.9019 15.5742C28.3525 15.5742 30.7781 16.2222 32.911 17.4542C39.6186 21.3193 41.9275 29.9072 38.0548 36.6026ZM30.57 49.8428V48.2844H29.0109C28.149 48.2844 27.4507 47.5875 27.4507 46.7272C27.4507 45.867 28.149 45.1701 29.0109 45.1701H30.57V42.0545H21.2074V45.1701H22.7688C23.6307 45.1701 24.3291 45.867 24.3291 46.7272C24.3291 47.5875 23.6307 48.2844 22.7688 48.2844H21.2074V49.8428H30.57ZM31.3519 20.1511C29.6922 19.1951 27.8062 18.6886 25.9019 18.6886C22.004 18.6886 18.3749 20.7784 16.4282 24.1438C13.4483 29.2935 15.1743 35.8884 20.2644 38.9388H24.3291V35.8245H22.7688C20.1867 35.8245 18.0868 33.7266 18.0868 31.1529C18.0868 28.5747 20.1867 26.4802 22.7688 26.4802H29.0109C31.5942 26.4802 33.6929 28.5747 33.6929 31.1529C33.6929 33.7266 31.5942 35.8245 29.0109 35.8245H27.4507V38.9388H31.5165C33.0985 37.992 34.4221 36.6504 35.3504 35.0453C38.3612 29.8388 36.5688 23.1583 31.3519 20.1511ZM24.3291 29.5924H22.7688C21.908 29.5924 21.2074 30.2928 21.2074 31.1531C21.2074 32.0109 21.908 32.7091 22.7688 32.7091H24.3291V29.5924ZM27.4507 32.7091H29.0109C29.8705 32.7091 30.57 32.0109 30.57 31.1531C30.57 30.2928 29.8705 29.5924 29.0109 29.5924H27.4507V32.7091Z" fill="url(#paint5_linear)"/>
<defs>
<linearGradient id="paint0_linear" x1="25.8895" y1="0" x2="25.8895" y2="53.9959" gradientUnits="userSpaceOnUse">
<stop stop-color="#00D1FF"/>
<stop offset="1" stop-color="#003399"/>
</linearGradient>
<linearGradient id="paint1_linear" x1="25.8895" y1="0" x2="25.8895" y2="53.9959" gradientUnits="userSpaceOnUse">
<stop stop-color="#00D1FF"/>
<stop offset="1" stop-color="#003399"/>
</linearGradient>
<linearGradient id="paint2_linear" x1="25.8895" y1="0" x2="25.8895" y2="53.9959" gradientUnits="userSpaceOnUse">
<stop stop-color="#00D1FF"/>
<stop offset="1" stop-color="#003399"/>
</linearGradient>
<linearGradient id="paint3_linear" x1="25.8895" y1="0" x2="25.8895" y2="53.9959" gradientUnits="userSpaceOnUse">
<stop stop-color="#00D1FF"/>
<stop offset="1" stop-color="#003399"/>
</linearGradient>
<linearGradient id="paint4_linear" x1="25.8895" y1="0" x2="25.8895" y2="53.9959" gradientUnits="userSpaceOnUse">
<stop stop-color="#00D1FF"/>
<stop offset="1" stop-color="#003399"/>
</linearGradient>
<linearGradient id="paint5_linear" x1="25.8895" y1="0" x2="25.8895" y2="53.9959" gradientUnits="userSpaceOnUse">
<stop stop-color="#00D1FF"/>
<stop offset="1" stop-color="#003399"/>
</linearGradient>
</defs>
</svg>
