<svg width="59" height="41" viewBox="0 0 59 41" fill="none" xmlns="http://www.w3.org/2000/svg">
<path d="M56.8921 0H1.3592C0.647237 0 0 0.582513 0 1.3592V39.352C0 40.064 0.582513 40.7112 1.3592 40.7112H56.9568C57.6688 40.7112 58.316 40.1287 58.316 39.352V1.3592C58.2513 0.582513 57.6688 0 56.8921 0ZM55.5976 2.65367V37.9928H2.65367V2.65367H55.5976Z" fill="url(#paint0_linear)"/>
<path d="M8.54353 11.5856C9.06132 11.5856 9.51438 11.3914 9.90273 11.003C10.2263 10.6794 10.4852 10.1616 10.4852 9.64385C10.4852 9.12606 10.2911 8.673 9.90273 8.28466C9.19077 7.57269 7.96102 7.57269 7.24906 8.28466C6.86071 8.673 6.66654 9.12606 6.66654 9.64385C6.66654 10.1616 6.86071 10.6147 7.24906 11.003C7.57267 11.3914 8.09046 11.5856 8.54353 11.5856Z" fill="url(#paint1_linear)"/>
<path d="M14.4334 11.5856C14.9512 11.5856 15.4042 11.3914 15.7926 11.003C16.1162 10.6794 16.3751 10.1616 16.3751 9.64385C16.3751 9.12606 16.1809 8.673 15.7926 8.28466C15.0806 7.57269 13.8509 7.57269 13.1389 8.28466C13.0742 8.34938 13.0095 8.47883 12.88 8.60827C12.8153 8.73772 12.7506 8.80245 12.6858 8.93189C12.6211 9.06134 12.6211 9.19079 12.5564 9.32024C12.5564 9.44968 12.4917 9.57913 12.4917 9.70858C12.4917 10.2264 12.6858 10.6794 13.0742 11.0678C13.4625 11.3914 13.9156 11.5856 14.4334 11.5856Z" fill="url(#paint2_linear)"/>
<path d="M20.3232 11.5856C20.841 11.5856 21.2941 11.3914 21.6824 11.003C22.0061 10.6794 22.2649 10.1616 22.2649 9.64385C22.2649 9.12606 22.0708 8.673 21.6824 8.28466C20.9705 7.57269 19.676 7.57269 19.0288 8.28466C18.964 8.34938 18.8346 8.47883 18.7699 8.60827L18.7051 8.673C18.6404 8.73772 18.6404 8.80245 18.5757 8.93189C18.511 9.06134 18.511 9.19079 18.511 9.25551C18.511 9.38496 18.4463 9.51441 18.4463 9.64385C18.4463 10.1616 18.6404 10.6147 19.0288 11.003C19.3524 11.3914 19.8054 11.5856 20.3232 11.5856Z" fill="url(#paint3_linear)"/>
<path d="M26.2131 11.5855C26.3425 11.5855 26.472 11.5855 26.6014 11.5208C26.6662 11.5208 26.7956 11.4561 26.9251 11.3914C27.0545 11.3266 27.1192 11.2619 27.2487 11.1972C27.3134 11.1325 27.4428 11.0678 27.5076 10.9383C27.8312 10.6147 28.0901 10.0969 28.0901 9.57911C28.0901 9.06132 27.8959 8.60825 27.5076 8.21991C26.7956 7.50795 25.5011 7.50795 24.7892 8.21991C24.4008 8.60825 24.2067 9.06132 24.2067 9.57911C24.2067 10.0969 24.4008 10.55 24.7892 10.9383C25.1775 11.3914 25.6953 11.5855 26.2131 11.5855Z" fill="url(#paint4_linear)"/>
<path d="M32.0382 11.5856C32.556 11.5856 33.0091 11.3914 33.3974 11.003C33.721 10.6794 33.9799 10.1616 33.9799 9.64385C33.9799 9.12606 33.7858 8.673 33.3974 8.28466C32.6855 7.57269 31.4557 7.57269 30.7438 8.28466C30.3554 8.673 30.1612 9.12606 30.1612 9.64385C30.1612 10.1616 30.3554 10.6147 30.7438 11.003C31.0674 11.3914 31.5852 11.5856 32.0382 11.5856Z" fill="url(#paint5_linear)"/>
<path d="M37.9281 11.5856C38.4459 11.5856 38.8989 11.3914 39.2873 11.003C39.6109 10.6794 39.8698 10.1616 39.8698 9.64385C39.8698 9.12606 39.6756 8.673 39.2873 8.28466C38.5753 7.57269 37.2808 7.57269 36.5689 8.28466C36.1805 8.673 35.9864 9.12606 35.9864 9.64385C35.9864 10.1616 36.1805 10.6147 36.5689 11.003C36.9572 11.3914 37.4103 11.5856 37.9281 11.5856Z" fill="url(#paint6_linear)"/>
<path d="M43.8179 11.5856C44.3357 11.5856 44.7888 11.3914 45.1771 11.003C45.5655 10.6147 45.7596 10.1616 45.7596 9.64385C45.7596 9.12606 45.5655 8.673 45.1771 8.28466C44.4652 7.57269 43.1707 7.57269 42.4587 8.28466C42.0704 8.673 41.8762 9.12606 41.8762 9.64385C41.8762 10.1616 42.0704 10.6147 42.4587 11.003C42.8471 11.3914 43.3001 11.5856 43.8179 11.5856Z" fill="url(#paint7_linear)"/>
<path d="M49.7078 11.5856C50.2256 11.5856 50.6786 11.3914 51.067 11.003C51.3906 10.6794 51.6495 10.1616 51.6495 9.64385C51.6495 9.12606 51.4553 8.673 51.067 8.28466C50.355 7.57269 49.1253 7.57269 48.3486 8.28466C47.9602 8.673 47.7661 9.12606 47.7661 9.64385C47.7661 10.1616 47.9602 10.6147 48.3486 11.003C48.6722 11.3914 49.19 11.5856 49.7078 11.5856Z" fill="url(#paint8_linear)"/>
<path d="M7.50795 18.3815C7.6374 18.4463 7.76684 18.511 7.83157 18.5757C7.89629 18.6404 8.09046 18.6404 8.21991 18.7052C8.34936 18.7052 8.4788 18.7699 8.60825 18.7699C9.12604 18.7699 9.57911 18.5757 9.96745 18.1874C10.2911 17.8637 10.55 17.346 10.55 16.8282C10.55 16.3104 10.3558 15.8573 9.96745 15.469C9.51438 15.0159 8.86715 14.8217 8.21991 14.9512C8.15519 14.9512 8.02574 15.0159 7.83157 15.0806C7.70212 15.1454 7.6374 15.2101 7.50795 15.2748C7.44323 15.3395 7.31378 15.4042 7.24906 15.5337C6.92544 15.8573 6.66654 16.3751 6.66654 16.8929C6.66654 17.4107 6.86071 17.8637 7.24906 18.2521C7.31378 18.1874 7.3785 18.3168 7.50795 18.3815Z" fill="url(#paint9_linear)"/>
<path d="M13.3978 18.3815C13.5273 18.4463 13.6567 18.511 13.7214 18.5757C13.8509 18.6404 13.9803 18.6404 14.1098 18.7052C14.2392 18.7052 14.3687 18.7699 14.4981 18.7699C15.0159 18.7699 15.469 18.5757 15.8573 18.1874C16.1809 17.8637 16.4398 17.346 16.4398 16.8282C16.4398 16.3104 16.2456 15.8573 15.8573 15.469C15.469 15.0159 14.757 14.8217 14.1098 14.9512C13.9803 14.9512 13.8509 15.0159 13.7214 15.0806C13.592 15.1454 13.5273 15.1453 13.3978 15.2748C13.2684 15.3395 13.2036 15.4042 13.0742 15.5337C12.7506 15.8573 12.4917 16.3751 12.4917 16.8929C12.4917 17.4107 12.6858 17.8637 13.0742 18.2521C13.1389 18.1874 13.2684 18.2521 13.3978 18.3815Z" fill="url(#paint10_linear)"/>
<path d="M19.2229 18.3816C19.3524 18.4463 19.4818 18.511 19.5466 18.5757C19.6113 18.6405 19.8055 18.6405 19.9349 18.7052C20.0643 18.7052 20.1938 18.7699 20.3232 18.7699C20.4527 18.7699 20.5821 18.7699 20.6469 18.7052C20.7763 18.7052 20.9058 18.6405 21.0352 18.5757C21.1647 18.511 21.2941 18.4463 21.3588 18.3816C21.4235 18.3168 21.553 18.2521 21.6824 18.1227C22.0061 17.799 22.265 17.2813 22.265 16.7635C22.265 16.2457 22.0708 15.7926 21.6824 15.4043C21.6177 15.3395 21.4883 15.2748 21.4235 15.2101C21.2941 15.1454 21.2294 15.0807 21.0999 15.0159C20.9705 14.9512 20.841 14.9512 20.7763 14.8865C20.5174 14.8218 20.2585 14.8218 19.9996 14.8865C19.9349 14.8865 19.8055 14.9512 19.676 15.0159C19.5466 15.0807 19.4818 15.1454 19.3524 15.2101C19.2877 15.2748 19.1582 15.3395 19.0935 15.469C18.7699 15.7926 18.511 16.3104 18.511 16.8282C18.511 17.346 18.7052 17.799 19.0935 18.1874C19.0935 18.1874 19.1582 18.3168 19.2229 18.3816Z" fill="url(#paint11_linear)"/>
<path d="M25.1128 18.3816C25.2422 18.4463 25.3717 18.511 25.4364 18.5757C25.5659 18.6405 25.6953 18.6405 25.8248 18.7052C25.9542 18.7052 26.0836 18.7699 26.2131 18.7699C26.3425 18.7699 26.472 18.7699 26.6014 18.7052C26.7309 18.7052 26.8603 18.6405 26.9898 18.5757C27.1192 18.511 27.1839 18.511 27.3134 18.3816C27.4428 18.3168 27.5076 18.2521 27.637 18.1227C27.9606 17.799 28.2195 17.2813 28.2195 16.7635C28.2195 16.2457 28.0254 15.7926 27.637 15.4043C27.5723 15.3395 27.4428 15.2748 27.3781 15.2101C27.2487 15.1454 27.1839 15.0807 27.0545 15.0159C26.9251 14.9512 26.7956 14.9512 26.6662 14.8865C26.4073 14.8218 26.1484 14.8218 25.8895 14.8865C25.76 14.8865 25.6306 14.9512 25.5011 15.0159C25.3717 15.0807 25.307 15.0807 25.1775 15.2101C25.0481 15.2748 24.9833 15.3395 24.8539 15.469C24.5303 15.7926 24.2714 16.3104 24.2714 16.8282C24.2714 17.346 24.4656 17.799 24.8539 18.1874C24.9186 18.1874 25.0481 18.2521 25.1128 18.3816Z" fill="url(#paint12_linear)"/>
<path d="M32.0382 18.7051C32.1677 18.7051 32.2971 18.7051 32.3618 18.6404C32.4913 18.6404 32.6207 18.5757 32.7502 18.511C32.8796 18.4462 33.0091 18.3815 33.0738 18.3168C33.1385 18.2521 33.268 18.1874 33.3974 18.0579C33.721 17.7343 33.9799 17.2165 33.9799 16.6987C33.9799 16.1809 33.7858 15.7279 33.3974 15.3395C33.3327 15.2748 33.2033 15.2101 33.1385 15.1453C33.0091 15.0806 32.9444 15.0159 32.8149 14.9512C32.6855 14.8864 32.556 14.8864 32.4266 14.8217C31.8441 14.6923 31.1321 14.8864 30.679 15.3395C30.3554 15.6631 30.0965 16.1809 30.0965 16.6987C30.0965 17.2165 30.2907 17.6696 30.679 18.0579C31.0674 18.4462 31.5852 18.7051 32.0382 18.7051Z" fill="url(#paint13_linear)"/>
<path d="M37.9281 18.7051C38.0575 18.7051 38.187 18.7051 38.3164 18.6404C38.4459 18.6404 38.5753 18.5757 38.7048 18.511C38.8342 18.4462 38.8989 18.4463 39.0284 18.3168C39.1578 18.2521 39.2226 18.1874 39.352 18.0579C39.6756 17.7343 39.9345 17.2165 39.9345 16.6987C39.9345 16.1809 39.7403 15.7279 39.352 15.3395C39.2873 15.2748 39.1578 15.2101 39.0931 15.1453C38.9637 15.0806 38.8989 15.0159 38.7695 14.9512C38.64 14.8864 38.5106 14.8864 38.3811 14.8217C37.7986 14.6923 37.0867 14.8864 36.6336 15.3395C36.31 15.6631 36.0511 16.1809 36.0511 16.6987C36.0511 17.2165 36.2453 17.6696 36.6336 18.0579C36.9572 18.4462 37.4103 18.7051 37.9281 18.7051Z" fill="url(#paint14_linear)"/>
<path d="M43.8179 18.7051C43.9474 18.7051 44.0768 18.7051 44.1415 18.6404C44.271 18.6404 44.4004 18.5757 44.5299 18.511C44.6593 18.4462 44.7241 18.4463 44.8535 18.3168C44.9182 18.2521 45.0477 18.1874 45.1771 18.0579C45.5008 17.7343 45.7596 17.2165 45.7596 16.6987C45.7596 16.1809 45.5655 15.7279 45.1771 15.3395C45.1124 15.2748 44.983 15.2101 44.9182 15.1453C44.7888 15.0806 44.7241 15.0159 44.5946 14.9512C44.4652 14.8864 44.3357 14.8864 44.2063 14.8217C43.6238 14.6923 42.9118 14.8864 42.4587 15.3395C42.1351 15.6631 41.8762 16.1809 41.8762 16.6987C41.8762 17.2165 42.0704 17.6696 42.4587 18.0579C42.8471 18.4462 43.3001 18.7051 43.8179 18.7051Z" fill="url(#paint15_linear)"/>
<path d="M49.7078 18.7051C49.8372 18.7051 49.9667 18.7051 50.0961 18.6404C50.2256 18.6404 50.355 18.5757 50.4845 18.511C50.6139 18.4462 50.6786 18.4463 50.8081 18.3168C50.9375 18.2521 51.0023 18.1226 51.1317 18.0579C51.4553 17.7343 51.7142 17.2165 51.7142 16.6987C51.7142 16.1809 51.5201 15.7279 51.1317 15.3395C51.067 15.2748 50.9375 15.2101 50.8728 15.1453C50.7434 15.0806 50.6786 15.0159 50.5492 14.9512C50.4197 14.8864 50.2903 14.8864 50.1609 14.8217C49.5783 14.6923 48.8664 14.8864 48.4133 15.3395C48.0897 15.6631 47.8308 16.1809 47.8308 16.6987C47.8308 17.2165 48.025 17.6696 48.4133 18.0579C48.6722 18.4462 49.19 18.7051 49.7078 18.7051Z" fill="url(#paint16_linear)"/>
<path d="M8.54353 25.76C9.06132 25.76 9.51439 25.5659 9.90273 25.1775C10.2911 24.7892 10.4852 24.3361 10.4852 23.8183C10.4852 23.3005 10.2911 22.8475 9.90273 22.4591C9.838 22.3944 9.70856 22.3297 9.57911 22.2002C9.51439 22.1355 9.38494 22.0708 9.25549 22.0708C9.12604 22.0061 8.9966 22.0061 8.86715 21.9413C8.21991 21.8119 7.57268 22.0061 7.11961 22.4591C6.79599 22.7827 6.5371 23.3005 6.5371 23.8183C6.5371 24.3361 6.73127 24.7892 7.11961 25.1775C7.57268 25.5659 8.09047 25.76 8.54353 25.76Z" fill="url(#paint17_linear)"/>
<path d="M14.4334 25.76C14.5628 25.76 14.6923 25.76 14.8217 25.6953C14.9512 25.6953 15.0806 25.6306 15.1453 25.5659C15.2748 25.5011 15.3395 25.4364 15.469 25.3717C15.5984 25.307 15.6631 25.2423 15.7926 25.1128C16.1809 24.7245 16.3751 24.2714 16.3751 23.7536C16.3751 23.2358 16.1809 22.7828 15.7926 22.3944C15.7279 22.3297 15.5984 22.2002 15.469 22.1355C15.4042 22.0708 15.2748 22.0061 15.1453 22.0061C15.0159 21.9413 14.8864 21.9413 14.757 21.8766C14.1098 21.7472 13.4625 21.9413 13.0095 22.3944C12.6858 22.718 12.4269 23.2358 12.4269 23.7536C12.4269 24.2714 12.6211 24.7245 13.0095 25.1128C13.4625 25.5659 13.9156 25.76 14.4334 25.76Z" fill="url(#paint18_linear)"/>
<path d="M20.3232 25.76C20.4527 25.76 20.5821 25.76 20.7116 25.6953C20.841 25.6953 20.9058 25.6306 21.0999 25.5659C21.2294 25.5011 21.2941 25.4364 21.4235 25.3717C21.4883 25.307 21.6177 25.2423 21.6824 25.1128C22.0708 24.7245 22.265 24.2714 22.265 23.7536C22.265 23.2358 22.0708 22.7828 21.6824 22.3944C21.6177 22.3297 21.4883 22.265 21.3588 22.1355C21.2941 22.0708 21.1646 22.0061 21.0352 22.0061C20.9058 21.9413 20.7763 21.9413 20.6469 21.8766C19.9996 21.7472 19.3524 21.9413 18.8993 22.3944C18.5757 22.718 18.3168 23.2358 18.3168 23.7536C18.3168 24.2714 18.511 24.7245 18.8993 25.1128C19.3524 25.5659 19.8055 25.76 20.3232 25.76Z" fill="url(#paint19_linear)"/>
<path d="M25.1128 25.4364C25.1775 25.5011 25.307 25.5659 25.4364 25.6306C25.5659 25.6306 25.6306 25.6953 25.76 25.6953C25.8895 25.6953 26.0189 25.76 26.1484 25.76C26.6662 25.76 27.1192 25.5659 27.5076 25.1775C27.8959 24.7892 28.0901 24.3361 28.0901 23.8183C28.0901 23.3005 27.8959 22.8475 27.5076 22.4591C27.4428 22.3944 27.3134 22.265 27.184 22.2002C27.1192 22.1355 26.9898 22.0708 26.8603 22.0708C26.7309 22.0061 26.6014 22.0061 26.472 21.9413C26.2131 21.8766 25.9542 21.8766 25.6953 21.9413C25.5659 21.9413 25.4364 22.0061 25.3717 22.0708C25.2422 22.1355 25.1128 22.2002 24.9833 22.265C24.9186 22.3297 24.7892 22.3944 24.7245 22.4591C24.4008 22.7827 24.1419 23.3005 24.1419 23.8183C24.1419 24.3361 24.3361 24.7892 24.7245 25.1775C24.9186 25.307 25.0481 25.3717 25.1128 25.4364Z" fill="url(#paint20_linear)"/>
<path d="M31.0026 25.4364C31.0674 25.5011 31.1968 25.5659 31.3263 25.6306C31.4557 25.6953 31.5852 25.6953 31.6499 25.6953C31.7793 25.6953 31.9088 25.76 32.0382 25.76C32.1677 25.76 32.2971 25.76 32.4266 25.6953C32.556 25.6953 32.6207 25.6306 32.8149 25.5659C32.9444 25.5011 33.0091 25.4364 33.1385 25.3717C33.2033 25.307 33.3327 25.2423 33.3974 25.1128C33.7858 24.7245 33.9799 24.2714 33.9799 23.7536C33.9799 23.2358 33.7858 22.7828 33.3974 22.3944C32.9444 21.9413 32.2971 21.7472 31.6499 21.8766C31.5204 21.8766 31.391 21.9413 31.3263 22.0061C31.1968 22.0708 31.1321 22.1355 31.0026 22.2002C30.8732 22.265 30.8085 22.3297 30.7438 22.4591C30.4201 22.7827 30.1612 23.3005 30.1612 23.8183C30.1612 24.3361 30.3554 24.7892 30.7438 25.1775C30.8085 25.307 30.9379 25.3717 31.0026 25.4364Z" fill="url(#paint21_linear)"/>
<path d="M36.8925 25.4364C36.9572 25.5011 37.0867 25.5659 37.2161 25.6306C37.3456 25.6306 37.4103 25.6953 37.5397 25.6953C37.6692 25.6953 37.7986 25.76 37.9281 25.76C38.4459 25.76 38.8989 25.5659 39.2873 25.1775C39.6756 24.7892 39.8698 24.3361 39.8698 23.8183C39.8698 23.3005 39.6756 22.8475 39.2873 22.4591C38.8342 22.0061 38.187 21.8119 37.5397 21.9413C37.4103 21.9413 37.2808 22.0061 37.2161 22.0708C37.0867 22.1355 36.9572 22.2002 36.8925 22.2649C36.8278 22.3297 36.6983 22.3944 36.6336 22.5238C36.31 22.8475 36.0511 23.3652 36.0511 23.883C36.0511 24.4008 36.2453 24.8539 36.6336 25.2422C36.6983 25.307 36.7631 25.3717 36.8925 25.4364Z" fill="url(#paint22_linear)"/>
<path d="M43.8179 25.76C44.3357 25.76 44.7888 25.5659 45.1771 25.1775C45.5655 24.7892 45.7596 24.3361 45.7596 23.8183C45.7596 23.3005 45.5655 22.8475 45.1771 22.4591C44.7241 22.0061 44.0768 21.8119 43.4296 21.9413C43.3001 21.9413 43.1707 22.0061 43.106 22.0708C42.9765 22.1355 42.9118 22.2002 42.7824 22.2649C42.6529 22.3297 42.5882 22.3944 42.5235 22.5238C42.1998 22.8475 41.9409 23.3652 41.9409 23.883C41.9409 24.4008 42.1351 24.8539 42.5235 25.2422C42.8471 25.5659 43.3001 25.76 43.8179 25.76Z" fill="url(#paint23_linear)"/>
<path d="M49.7078 25.76C50.2256 25.76 50.6786 25.5659 51.067 25.1775C51.4553 24.7892 51.6495 24.3361 51.6495 23.8183C51.6495 23.3005 51.4553 22.8475 51.067 22.4591C50.7434 22.1355 50.2256 21.9413 49.7078 21.9413C49.19 21.9413 48.6722 22.1355 48.3486 22.4591C48.025 22.7828 47.7661 23.3005 47.7661 23.8183C47.7661 24.3361 47.9602 24.7892 48.3486 25.1775C48.6722 25.5659 49.19 25.76 49.7078 25.76Z" fill="url(#paint24_linear)"/>
<path d="M6.79599 31.7146C6.86071 31.8441 6.92544 31.9088 6.99016 32.0382C7.05488 32.103 7.11961 32.2324 7.24906 32.3619C7.57267 32.6855 8.09046 32.9444 8.60825 32.9444C8.7377 32.9444 8.86715 32.9444 8.99659 32.8796C9.12604 32.8796 9.25549 32.8149 9.32021 32.7502C9.44966 32.6855 9.57911 32.6207 9.70856 32.556C9.77328 32.4913 9.90273 32.4266 9.96745 32.3619C10.0322 32.2971 10.1616 32.1677 10.1616 32.103C10.2263 31.9735 10.2911 31.8441 10.3558 31.7793C10.4205 31.6499 10.4205 31.5204 10.4852 31.4557C10.4852 31.3263 10.55 31.1968 10.55 31.0674C10.55 30.5496 10.3558 30.0965 9.96745 29.7082C9.90273 29.6435 9.77328 29.5787 9.64383 29.4493C9.57911 29.3846 9.44966 29.3198 9.32021 29.2551C9.19077 29.1904 9.12604 29.1904 8.99659 29.1904C8.34936 29.0609 7.70212 29.2551 7.24906 29.7082C6.92544 30.0318 6.66654 30.5496 6.66654 31.0674C6.66654 31.1968 6.66654 31.3263 6.73127 31.4557C6.73127 31.4557 6.73127 31.5852 6.79599 31.7146Z" fill="url(#paint25_linear)"/>
<path d="M14.4334 32.8796C14.9512 32.8796 15.4042 32.6855 15.7926 32.2971C16.1162 31.9735 16.3751 31.4557 16.3751 30.9379C16.3751 30.4201 16.1809 29.9671 15.7926 29.5787C15.7279 29.514 15.5984 29.4493 15.469 29.3198L15.4042 29.2551C15.3395 29.1904 15.2748 29.1904 15.1453 29.1257C15.0159 29.0609 14.8865 29.0609 14.8217 29.0609C14.1745 28.9315 13.5273 29.1257 13.0742 29.5787C12.6858 29.9671 12.4917 30.4201 12.4917 30.9379C12.4917 31.4557 12.6858 31.9088 13.0742 32.2971C13.4625 32.6855 13.9156 32.8796 14.4334 32.8796Z" fill="url(#paint26_linear)"/>
<path d="M19.2877 32.556C19.4171 32.6207 19.5465 32.6855 19.6113 32.6855C19.7407 32.7502 19.8702 32.7502 19.9996 32.8149C20.1291 32.8149 20.2585 32.8796 20.388 32.8796C20.9057 32.8796 21.3588 32.6855 21.7472 32.2971C21.8119 32.2324 21.8766 32.1029 21.9413 32.0382C22.0061 31.9088 22.0708 31.7793 22.1355 31.7146C22.2002 31.5852 22.2002 31.4557 22.2649 31.3263C22.2649 31.1968 22.3297 31.0674 22.3297 30.9379C22.3297 30.4201 22.1355 29.9671 21.7472 29.5787C21.2941 29.1257 20.6469 28.9315 19.9996 29.0609C19.8702 29.0609 19.7407 29.1257 19.676 29.1904C19.6113 29.2551 19.5465 29.2551 19.4818 29.3198L19.2229 29.3846C19.1582 29.4493 19.0288 29.514 18.964 29.6434C18.5757 30.0318 18.3815 30.4849 18.3815 31.0026C18.3815 31.5204 18.5757 31.9735 18.964 32.3618C19.0935 32.3618 19.1582 32.4913 19.2877 32.556Z" fill="url(#paint27_linear)"/>
<path d="M24.4008 31.6499C24.4656 31.7793 24.5303 31.9088 24.595 31.9735C24.6597 32.103 24.7244 32.1677 24.8539 32.2971C24.9186 32.3619 25.0481 32.4266 25.1775 32.556C25.2422 32.6208 25.3717 32.6855 25.5011 32.6855C25.6306 32.7502 25.76 32.7502 25.8895 32.8149C26.0189 32.8149 26.1484 32.8796 26.2778 32.8796C26.7956 32.8796 27.2487 32.6855 27.637 32.2971C27.7017 32.2324 27.7665 32.103 27.8959 31.9735C27.9606 31.8441 28.0254 31.7793 28.0901 31.5852C28.0901 31.4557 28.1548 31.391 28.1548 31.2616C28.1548 31.1321 28.2195 31.0027 28.2195 30.8732C28.2195 30.3554 28.0254 29.9024 27.637 29.514C27.5076 29.4493 27.4428 29.3198 27.3134 29.2551C27.2487 29.1904 27.1192 29.1257 26.9898 29.0609C26.8603 28.9962 26.7309 28.9962 26.6662 28.9962C26.0189 28.8668 25.3717 29.0609 24.9186 29.514C24.5303 29.9024 24.3361 30.3554 24.3361 30.8732C24.3361 31.0027 24.3361 31.1321 24.4008 31.2616C24.3361 31.4557 24.4008 31.5852 24.4008 31.6499Z" fill="url(#paint28_linear)"/>
<path d="M30.2907 31.7146C30.3554 31.8441 30.4201 31.9088 30.4849 32.0382C30.5496 32.103 30.6143 32.2324 30.7437 32.3619C30.8085 32.4266 30.9379 32.556 31.0674 32.6208C31.1321 32.6855 31.2615 32.7502 31.391 32.7502C31.5204 32.8149 31.6499 32.8149 31.7793 32.8797C31.9088 32.8797 32.0382 32.9444 32.1677 32.9444C32.2971 32.9444 32.4266 32.9444 32.556 32.8797C32.6855 32.8797 32.8149 32.8149 32.8796 32.7502C33.0091 32.6855 33.1385 32.6208 33.268 32.556C33.3327 32.4913 33.4621 32.4266 33.5269 32.3619C33.5916 32.2971 33.6563 32.1677 33.721 32.103C33.7858 31.9735 33.8505 31.9088 33.9152 31.7793C33.9799 31.6499 33.9799 31.5204 34.0447 31.4557C34.0447 31.3263 34.1094 31.1968 34.1094 31.0674C34.1094 30.5496 33.9152 30.0965 33.5269 29.7082C33.4621 29.6435 33.3327 29.5787 33.2032 29.4493C33.1385 29.3846 33.0091 29.3198 32.8149 29.2551C32.6855 29.2551 32.6207 29.1904 32.4913 29.1904C32.2324 29.1257 31.9735 29.1257 31.7146 29.1904C31.5852 29.1904 31.4557 29.2551 31.391 29.3198C31.2615 29.3846 31.1968 29.4493 31.0674 29.514C30.9379 29.5787 30.8732 29.6435 30.8085 29.7729C30.4201 30.1613 30.226 30.6143 30.226 31.1321C30.226 31.2616 30.226 31.391 30.2907 31.5205C30.226 31.4557 30.226 31.5852 30.2907 31.7146Z" fill="url(#paint29_linear)"/>
<path d="M36.1805 31.7146C36.2453 31.8441 36.31 31.9088 36.3747 32.0382C36.4394 32.1677 36.5042 32.2324 36.6336 32.3618C36.9572 32.6855 37.475 32.9444 37.9928 32.9444C38.1223 32.9444 38.2517 32.9444 38.3811 32.8796C38.4459 32.8796 38.5753 32.8149 38.7048 32.7502C38.8342 32.6855 38.8989 32.6207 39.0284 32.556C39.1578 32.4913 39.2226 32.4266 39.352 32.2971C39.4167 32.2324 39.4814 32.1029 39.6109 31.9735C39.6756 31.8441 39.7403 31.7793 39.8051 31.6499C39.8698 31.5204 39.8698 31.391 39.9345 31.3263C39.9345 31.1968 39.9992 31.0674 39.9992 30.9379C39.9992 30.4201 39.8051 29.9671 39.4167 29.5787C38.9637 29.1257 38.3164 28.9315 37.7339 29.0609C37.6045 29.0609 37.5397 29.1257 37.3456 29.1904C37.2161 29.2551 37.1514 29.3198 37.0219 29.3846C36.8925 29.4493 36.8278 29.514 36.7631 29.6434C36.3747 30.0318 36.1805 30.4849 36.1805 31.0026C36.1805 31.1321 36.1805 31.2615 36.2453 31.391C36.1158 31.4557 36.1158 31.5852 36.1805 31.7146Z" fill="url(#paint30_linear)"/>
<path d="M42.0704 31.7146C42.1351 31.8441 42.1998 31.9088 42.2646 32.0382C42.3293 32.103 42.394 32.2324 42.5235 32.3619C42.8471 32.6855 43.3649 32.9444 43.8827 32.9444C44.0121 32.9444 44.1416 32.9444 44.271 32.8797C44.4004 32.8797 44.5299 32.8149 44.5946 32.7502C44.7241 32.6855 44.8535 32.6208 44.9182 32.556C44.983 32.4913 45.1124 32.4266 45.1771 32.2971C45.2419 32.2324 45.3066 32.103 45.3713 32.0382C45.436 31.9088 45.5008 31.7794 45.5655 31.7146C45.6302 31.5852 45.6302 31.4557 45.6949 31.391C45.6949 31.2616 45.7596 31.1321 45.7596 31.0027C45.7596 30.4849 45.5655 30.0318 45.1771 29.6435C45.1124 29.5787 44.983 29.514 44.8535 29.3846C44.7888 29.3199 44.6593 29.2551 44.5299 29.1904C44.4004 29.1904 44.3357 29.1257 44.2063 29.1257C43.559 28.9962 42.9765 29.1904 42.4587 29.6435C42.1351 29.9671 41.8762 30.4849 41.8762 31.0027C41.8762 31.1321 41.8762 31.2616 41.9409 31.391C42.0057 31.4557 42.0057 31.5205 42.0704 31.7146Z" fill="url(#paint31_linear)"/>
<path d="M49.7078 32.8796C50.2256 32.8796 50.6786 32.6855 51.067 32.2971C51.1964 32.1677 51.2612 32.103 51.3259 31.9735C51.3906 31.9088 51.4553 31.7793 51.5201 31.5852C51.5201 31.4557 51.5848 31.391 51.5848 31.2616C51.5848 31.1321 51.6495 31.0027 51.6495 30.8732C51.6495 30.3554 51.4553 29.9024 51.067 29.514C51.0023 29.4493 50.8728 29.3846 50.7434 29.2551L50.6786 29.1904C50.6139 29.1257 50.5492 29.1257 50.4198 29.0609C50.2903 28.9962 50.1609 28.9962 50.0961 28.9962C49.4489 28.8668 48.8017 29.0609 48.3486 29.514C47.9602 29.9024 47.7661 30.3554 47.7661 30.8732C47.7661 31.391 47.9602 31.8441 48.3486 32.2324C48.6722 32.6855 49.19 32.8796 49.7078 32.8796Z" fill="url(#paint32_linear)"/>
<defs>
<linearGradient id="paint0_linear" x1="29.158" y1="0" x2="29.158" y2="40.7112" gradientUnits="userSpaceOnUse">
<stop stop-color="#00D1FF"/>
<stop offset="1" stop-color="#003399"/>
</linearGradient>
<linearGradient id="paint1_linear" x1="29.158" y1="0" x2="29.158" y2="40.7112" gradientUnits="userSpaceOnUse">
<stop stop-color="#00D1FF"/>
<stop offset="1" stop-color="#003399"/>
</linearGradient>
<linearGradient id="paint2_linear" x1="29.158" y1="0" x2="29.158" y2="40.7112" gradientUnits="userSpaceOnUse">
<stop stop-color="#00D1FF"/>
<stop offset="1" stop-color="#003399"/>
</linearGradient>
<linearGradient id="paint3_linear" x1="29.158" y1="0" x2="29.158" y2="40.7112" gradientUnits="userSpaceOnUse">
<stop stop-color="#00D1FF"/>
<stop offset="1" stop-color="#003399"/>
</linearGradient>
<linearGradient id="paint4_linear" x1="29.158" y1="0" x2="29.158" y2="40.7112" gradientUnits="userSpaceOnUse">
<stop stop-color="#00D1FF"/>
<stop offset="1" stop-color="#003399"/>
</linearGradient>
<linearGradient id="paint5_linear" x1="29.158" y1="0" x2="29.158" y2="40.7112" gradientUnits="userSpaceOnUse">
<stop stop-color="#00D1FF"/>
<stop offset="1" stop-color="#003399"/>
</linearGradient>
<linearGradient id="paint6_linear" x1="29.158" y1="0" x2="29.158" y2="40.7112" gradientUnits="userSpaceOnUse">
<stop stop-color="#00D1FF"/>
<stop offset="1" stop-color="#003399"/>
</linearGradient>
<linearGradient id="paint7_linear" x1="29.158" y1="0" x2="29.158" y2="40.7112" gradientUnits="userSpaceOnUse">
<stop stop-color="#00D1FF"/>
<stop offset="1" stop-color="#003399"/>
</linearGradient>
<linearGradient id="paint8_linear" x1="29.158" y1="0" x2="29.158" y2="40.7112" gradientUnits="userSpaceOnUse">
<stop stop-color="#00D1FF"/>
<stop offset="1" stop-color="#003399"/>
</linearGradient>
<linearGradient id="paint9_linear" x1="29.158" y1="0" x2="29.158" y2="40.7112" gradientUnits="userSpaceOnUse">
<stop stop-color="#00D1FF"/>
<stop offset="1" stop-color="#003399"/>
</linearGradient>
<linearGradient id="paint10_linear" x1="29.158" y1="0" x2="29.158" y2="40.7112" gradientUnits="userSpaceOnUse">
<stop stop-color="#00D1FF"/>
<stop offset="1" stop-color="#003399"/>
</linearGradient>
<linearGradient id="paint11_linear" x1="29.158" y1="0" x2="29.158" y2="40.7112" gradientUnits="userSpaceOnUse">
<stop stop-color="#00D1FF"/>
<stop offset="1" stop-color="#003399"/>
</linearGradient>
<linearGradient id="paint12_linear" x1="29.158" y1="0" x2="29.158" y2="40.7112" gradientUnits="userSpaceOnUse">
<stop stop-color="#00D1FF"/>
<stop offset="1" stop-color="#003399"/>
</linearGradient>
<linearGradient id="paint13_linear" x1="29.158" y1="0" x2="29.158" y2="40.7112" gradientUnits="userSpaceOnUse">
<stop stop-color="#00D1FF"/>
<stop offset="1" stop-color="#003399"/>
</linearGradient>
<linearGradient id="paint14_linear" x1="29.158" y1="0" x2="29.158" y2="40.7112" gradientUnits="userSpaceOnUse">
<stop stop-color="#00D1FF"/>
<stop offset="1" stop-color="#003399"/>
</linearGradient>
<linearGradient id="paint15_linear" x1="29.158" y1="0" x2="29.158" y2="40.7112" gradientUnits="userSpaceOnUse">
<stop stop-color="#00D1FF"/>
<stop offset="1" stop-color="#003399"/>
</linearGradient>
<linearGradient id="paint16_linear" x1="29.158" y1="0" x2="29.158" y2="40.7112" gradientUnits="userSpaceOnUse">
<stop stop-color="#00D1FF"/>
<stop offset="1" stop-color="#003399"/>
</linearGradient>
<linearGradient id="paint17_linear" x1="29.158" y1="0" x2="29.158" y2="40.7112" gradientUnits="userSpaceOnUse">
<stop stop-color="#00D1FF"/>
<stop offset="1" stop-color="#003399"/>
</linearGradient>
<linearGradient id="paint18_linear" x1="29.158" y1="0" x2="29.158" y2="40.7112" gradientUnits="userSpaceOnUse">
<stop stop-color="#00D1FF"/>
<stop offset="1" stop-color="#003399"/>
</linearGradient>
<linearGradient id="paint19_linear" x1="29.158" y1="0" x2="29.158" y2="40.7112" gradientUnits="userSpaceOnUse">
<stop stop-color="#00D1FF"/>
<stop offset="1" stop-color="#003399"/>
</linearGradient>
<linearGradient id="paint20_linear" x1="29.158" y1="0" x2="29.158" y2="40.7112" gradientUnits="userSpaceOnUse">
<stop stop-color="#00D1FF"/>
<stop offset="1" stop-color="#003399"/>
</linearGradient>
<linearGradient id="paint21_linear" x1="29.158" y1="0" x2="29.158" y2="40.7112" gradientUnits="userSpaceOnUse">
<stop stop-color="#00D1FF"/>
<stop offset="1" stop-color="#003399"/>
</linearGradient>
<linearGradient id="paint22_linear" x1="29.158" y1="0" x2="29.158" y2="40.7112" gradientUnits="userSpaceOnUse">
<stop stop-color="#00D1FF"/>
<stop offset="1" stop-color="#003399"/>
</linearGradient>
<linearGradient id="paint23_linear" x1="29.158" y1="0" x2="29.158" y2="40.7112" gradientUnits="userSpaceOnUse">
<stop stop-color="#00D1FF"/>
<stop offset="1" stop-color="#003399"/>
</linearGradient>
<linearGradient id="paint24_linear" x1="29.158" y1="0" x2="29.158" y2="40.7112" gradientUnits="userSpaceOnUse">
<stop stop-color="#00D1FF"/>
<stop offset="1" stop-color="#003399"/>
</linearGradient>
<linearGradient id="paint25_linear" x1="29.158" y1="0" x2="29.158" y2="40.7112" gradientUnits="userSpaceOnUse">
<stop stop-color="#00D1FF"/>
<stop offset="1" stop-color="#003399"/>
</linearGradient>
<linearGradient id="paint26_linear" x1="29.158" y1="0" x2="29.158" y2="40.7112" gradientUnits="userSpaceOnUse">
<stop stop-color="#00D1FF"/>
<stop offset="1" stop-color="#003399"/>
</linearGradient>
<linearGradient id="paint27_linear" x1="29.158" y1="0" x2="29.158" y2="40.7112" gradientUnits="userSpaceOnUse">
<stop stop-color="#00D1FF"/>
<stop offset="1" stop-color="#003399"/>
</linearGradient>
<linearGradient id="paint28_linear" x1="29.158" y1="0" x2="29.158" y2="40.7112" gradientUnits="userSpaceOnUse">
<stop stop-color="#00D1FF"/>
<stop offset="1" stop-color="#003399"/>
</linearGradient>
<linearGradient id="paint29_linear" x1="29.158" y1="0" x2="29.158" y2="40.7112" gradientUnits="userSpaceOnUse">
<stop stop-color="#00D1FF"/>
<stop offset="1" stop-color="#003399"/>
</linearGradient>
<linearGradient id="paint30_linear" x1="29.158" y1="0" x2="29.158" y2="40.7112" gradientUnits="userSpaceOnUse">
<stop stop-color="#00D1FF"/>
<stop offset="1" stop-color="#003399"/>
</linearGradient>
<linearGradient id="paint31_linear" x1="29.158" y1="0" x2="29.158" y2="40.7112" gradientUnits="userSpaceOnUse">
<stop stop-color="#00D1FF"/>
<stop offset="1" stop-color="#003399"/>
</linearGradient>
<linearGradient id="paint32_linear" x1="29.158" y1="0" x2="29.158" y2="40.7112" gradientUnits="userSpaceOnUse">
<stop stop-color="#00D1FF"/>
<stop offset="1" stop-color="#003399"/>
</linearGradient>
</defs>
</svg>
