<svg width="49" height="52" viewBox="0 0 49 52" fill="none" xmlns="http://www.w3.org/2000/svg">
<path d="M3.85762 41.8439H3.66992C3.43827 41.8418 3.21558 41.7541 3.04471 41.5976C2.87383 41.4412 2.76686 41.2271 2.74436 40.9965C2.72187 40.766 2.78545 40.5352 2.92286 40.3487C3.06027 40.1622 3.26181 40.0331 3.48869 39.9863C5.92877 39.4944 5.77344 37.831 5.72166 37.5009C5.68177 37.2568 5.73852 37.0067 5.87989 36.8037C6.02125 36.6007 6.23612 36.4608 6.47893 36.4135C6.72161 36.3699 6.97173 36.4235 7.1752 36.5628C7.37868 36.7021 7.51916 36.9158 7.56628 37.1579C7.83165 38.4847 7.36564 41.1384 3.85762 41.8439ZM3.73464 36.1741C3.77574 36.1471 3.81279 36.1144 3.84467 36.077C4.02039 35.8658 4.1186 35.6009 4.12298 35.3262C4.09933 35.1496 4.0259 34.9834 3.91129 34.847C3.79668 34.7106 3.64561 34.6097 3.47575 34.556C3.30729 34.5055 3.12837 34.501 2.95762 34.5432C2.78688 34.5853 2.63054 34.6724 2.50489 34.7955C1.88332 35.4404 1.21011 36.0335 0.491985 36.5689C0.377845 36.6306 0.277749 36.7154 0.198021 36.8177C0.118293 36.9201 0.0606643 37.0379 0.0287762 37.1637C-0.00311187 37.2895 -0.00856666 37.4206 0.0127564 37.5486C0.0340795 37.6766 0.0817171 37.7988 0.15266 37.9074C0.223603 38.0161 0.316309 38.1088 0.424922 38.1799C0.533536 38.2509 0.655696 38.2986 0.783687 38.32C0.911677 38.3414 1.04272 38.336 1.16852 38.3042C1.29433 38.2724 1.41218 38.2149 1.51462 38.1352C2.33295 37.5759 3.07866 36.9171 3.73464 36.1741ZM11.3656 40.2517C12.3623 37.119 10.8025 34.1029 10.0711 32.6531L9.88986 32.3618C9.83753 32.247 9.76256 32.1439 9.66945 32.0587C9.57634 31.9734 9.467 31.9079 9.34796 31.8659C9.22893 31.8239 9.10266 31.8064 8.97669 31.8144C8.85073 31.8223 8.72766 31.8556 8.61485 31.9122C8.50205 31.9688 8.40183 32.0476 8.32018 32.1439C8.23853 32.2401 8.17713 32.3519 8.13967 32.4724C8.1022 32.5929 8.08943 32.7198 8.10212 32.8454C8.11481 32.9709 8.1527 33.0927 8.21352 33.2032L8.3818 33.5333C9.06787 34.8278 10.3235 37.3132 9.57919 39.695C9.07435 41.2678 7.72809 42.6205 5.57279 43.7208C5.38557 43.8169 5.23607 43.9732 5.14832 44.1645C5.06057 44.3557 5.03966 44.571 5.08894 44.7756C5.13822 44.9802 5.25484 45.1622 5.42006 45.2926C5.58529 45.4229 5.78952 45.494 5.99997 45.4943C6.1487 45.4953 6.29541 45.4598 6.42715 45.3907C9.04198 44.0121 10.6989 42.3163 11.3656 40.2517ZM41.7857 36.1352C36.433 34.3942 35.3133 32.1677 35.281 32.09C35.1792 31.871 34.9969 31.6998 34.772 31.6117C34.5471 31.5237 34.297 31.5258 34.0736 31.6175C33.8502 31.7092 33.6708 31.8834 33.5726 32.104C33.4744 32.3247 33.465 32.5746 33.5464 32.802C33.6693 33.1126 34.9315 35.8763 41.2032 37.9216C41.2972 37.9524 41.3955 37.9677 41.4944 37.9669C41.7183 37.9677 41.9352 37.8884 42.1057 37.7433C42.2763 37.5982 42.3893 37.3969 42.4245 37.1758C42.4597 36.9547 42.4146 36.7283 42.2974 36.5374C42.1803 36.3466 41.9988 36.204 41.7857 36.1352ZM25.2359 49.7855C24.8087 49.4554 24.142 47.4166 23.8313 45.4554C23.8188 45.3283 23.7804 45.205 23.7185 45.0932C23.6566 44.9814 23.5725 44.8834 23.4714 44.8052C23.3703 44.727 23.2543 44.6703 23.1305 44.6386C23.0067 44.6068 22.8778 44.6007 22.7515 44.6206C22.6253 44.6404 22.5044 44.6859 22.3964 44.7541C22.2883 44.8223 22.1953 44.9119 22.1231 45.0174C22.0509 45.1228 22.001 45.2419 21.9764 45.3673C21.9518 45.4927 21.9531 45.6218 21.9803 45.7467C22.7181 50.4845 24.0644 51.4553 24.7957 51.6107C24.8603 51.617 24.9253 51.617 24.9899 51.6107C25.2044 51.6106 25.4124 51.5365 25.5787 51.4009C25.7449 51.2653 25.8593 51.0765 25.9025 50.8663C25.9455 50.6356 25.9011 50.397 25.7778 50.1972C25.6546 49.9974 25.4614 49.8506 25.2359 49.7855ZM44.7242 28.4072C44.7444 28.5289 44.7404 28.6533 44.7122 28.7734C44.6841 28.8934 44.6324 29.0067 44.5602 29.1066C44.4879 29.2065 44.3966 29.2912 44.2914 29.3555C44.1862 29.4199 44.0693 29.4628 43.9475 29.4816C40.1547 30.1289 38.077 28.6855 36.9249 27.1969C36.1999 27.3187 35.4661 27.3815 34.7308 27.3846C34.017 27.3717 33.3051 27.3046 32.6014 27.1839C34.6208 28.9444 37.7146 30.3684 42.9572 31.281C43.1884 31.3377 43.3894 31.4801 43.5195 31.6794C43.6497 31.8788 43.6992 32.1201 43.658 32.3546C43.6169 32.5891 43.4882 32.7992 43.298 32.9423C43.1078 33.0855 42.8703 33.151 42.6336 33.1256C34.8667 31.7793 31.3134 29.1839 29.2358 26.2196C28.1644 25.7497 27.1573 25.1451 26.2391 24.4202C28.1419 28.8215 31.6306 35.3715 39.7857 40.1481C39.892 40.2106 39.9849 40.2934 40.0591 40.3917C40.1334 40.4901 40.1875 40.6021 40.2185 40.7214C40.2494 40.8408 40.2566 40.965 40.2395 41.087C40.2225 41.2091 40.1815 41.3266 40.1191 41.4329C40.0566 41.5391 39.9738 41.632 39.8754 41.7063C39.7771 41.7805 39.665 41.8347 39.5457 41.8656C39.4264 41.8966 39.3022 41.9037 39.1801 41.8867C39.0581 41.8696 38.9405 41.8287 38.8343 41.7662C28.9122 35.9669 25.553 27.7341 23.7472 23.3005C23.5725 22.8734 23.4106 22.485 23.2682 22.1484C23.133 21.9116 22.9383 21.7141 22.7033 21.5756C22.4683 21.4371 22.2012 21.3624 21.9285 21.3588C21.4546 21.2989 20.9733 21.3581 20.528 21.531C20.0828 21.7039 19.6876 21.9851 19.3784 22.3491C18.9706 22.9187 18.6664 24.1872 19.5013 26.9898C19.9026 27.9089 25.9737 41.4102 34.0901 45.792C34.2017 45.8503 34.3004 45.9305 34.3804 46.0278C34.4603 46.1251 34.5199 46.2375 34.5556 46.3582C34.5912 46.479 34.6021 46.6058 34.5878 46.7309C34.5734 46.856 34.534 46.9769 34.4719 47.0865C34.3901 47.2348 34.2702 47.3586 34.1246 47.445C33.9789 47.5315 33.8128 47.5776 33.6435 47.5784C33.4872 47.5773 33.3337 47.5373 33.1969 47.4619C24.2844 42.6076 18.0192 28.2778 17.7538 27.6758C17.7518 27.6414 17.7518 27.6068 17.7538 27.5723C16.88 24.6662 16.9189 22.595 17.8832 21.2423C18.3856 20.6067 19.0429 20.1109 19.7921 19.8026C20.5414 19.4943 21.3573 19.3839 22.1615 19.4818H22.3621C22.0377 18.8022 21.7714 18.0964 21.566 17.3718C19.7178 17.5503 17.9821 18.3407 16.6341 19.6177C13.7992 22.4591 14.6276 26.4785 16.7182 29.2033C18.291 31.2486 20.2457 37.6174 18.5564 43.0736C18.0842 44.7063 17.2107 46.1947 16.0158 47.4033C14.8208 48.6118 13.3423 49.502 11.7151 49.9926C11.6204 50.0202 11.5225 50.0355 11.4238 50.0379C11.2005 50.0371 10.9847 49.9567 10.8153 49.8111C10.646 49.6655 10.534 49.4643 10.4997 49.2436C10.4654 49.0229 10.5109 48.7972 10.6281 48.607C10.7453 48.4169 10.9265 48.2748 11.139 48.2062C12.4772 47.8142 13.694 47.089 14.6754 46.0985C15.6568 45.108 16.3709 43.8846 16.7506 42.5429C18.2069 37.8634 16.5046 32.0512 15.2166 30.3748C12.1617 26.3878 12.194 21.43 15.3008 18.3297C16.9013 16.7893 18.9642 15.8182 21.1712 15.566C21.0954 15.0124 21.0522 14.4549 21.0418 13.8962C18.3601 14.0397 15.8254 15.1665 13.9221 17.0612C10.5306 20.4527 10.5889 25.0934 14.0969 32.0965C16.3105 36.5171 17.7732 42.2969 9.34619 47.8502C9.19596 47.9537 9.01729 48.008 8.83487 48.0056C8.67973 48.0056 8.52699 47.9672 8.39032 47.8938C8.25364 47.8204 8.13731 47.7142 8.05171 47.5849C7.98383 47.4825 7.93684 47.3678 7.91344 47.2473C7.89004 47.1267 7.89069 47.0027 7.91535 46.8825C7.94 46.7622 7.98819 46.6479 8.05713 46.5463C8.12607 46.4447 8.21442 46.3577 8.31708 46.2904C15.4367 41.585 14.5047 37.0931 12.4206 32.9379C9.98048 28.0707 7.34622 20.9899 12.5953 15.7343C14.876 13.456 17.9364 12.1282 21.1583 12.0192C21.2293 11.4433 21.3374 10.8725 21.4819 10.3105H21.3848C19.186 10.3241 17.015 10.8022 15.0139 11.7135C13.0129 12.6248 11.227 13.9487 9.77336 15.5984C8.71722 16.7771 7.93367 18.174 7.47839 19.6897C7.0231 21.2055 6.90727 22.8029 7.13911 24.3685C7.53327 27.2317 7.15334 30.1482 6.0388 32.8149C5.96725 32.9858 5.8467 33.1317 5.69236 33.2342C5.53802 33.3367 5.35679 33.3913 5.17151 33.3909C5.04701 33.3931 4.92348 33.3689 4.80905 33.3198C4.57993 33.2227 4.39872 33.0387 4.30527 32.8081C4.21181 32.5774 4.21376 32.3192 4.31068 32.09C5.291 29.7464 5.62405 27.1825 5.27507 24.6662C4.99661 22.8333 5.12666 20.9614 5.6559 19.1846C6.18514 17.4078 7.1005 15.7699 8.3365 14.3881C9.96105 12.5295 11.9609 11.0362 14.2044 10.0065C16.4479 8.9768 18.884 8.43408 21.3524 8.41408C21.5919 8.41408 21.8184 8.41408 22.0579 8.41408C22.3192 7.79765 22.6242 7.20067 22.9705 6.62771C22.4074 6.57593 21.8379 6.53709 21.2618 6.53709C18.9191 6.53964 16.5998 7.00381 14.4365 7.90309C12.2733 8.80236 10.3084 10.1191 8.65423 11.7781C7.00007 13.4371 5.68903 15.4057 4.79604 17.5716C3.90304 19.7375 3.4456 22.0581 3.44986 24.4008C3.44986 24.6497 3.35098 24.8884 3.17498 25.0644C2.99898 25.2404 2.76027 25.3393 2.51136 25.3393C2.26246 25.3393 2.02375 25.2404 1.84775 25.0644C1.67175 24.8884 1.57287 24.6497 1.57287 24.4008C1.57801 19.1806 3.65403 14.1756 7.34531 10.4843C11.0366 6.79304 16.0416 4.71702 21.2618 4.71188C22.2414 4.71204 23.2194 4.78777 24.1873 4.93842C24.6808 4.34892 25.2244 3.80321 25.8119 3.30738C24.3461 2.99384 22.8514 2.83547 21.3524 2.8349C18.3246 2.83633 15.3309 3.47436 12.5656 4.70759C9.80035 5.94082 7.32525 7.74169 5.30095 9.99334C5.13186 10.1652 4.90312 10.2653 4.66216 10.2731C4.4212 10.2808 4.18651 10.1955 4.00674 10.0349C3.82697 9.87425 3.71591 9.6506 3.69658 9.4103C3.67725 9.16999 3.75114 8.93147 3.90292 8.74417C6.84553 5.46407 10.6528 3.07948 14.8884 1.86376C19.124 0.648034 23.6164 0.650376 27.8507 1.87051C29.9284 0.648588 32.2945 0.00289633 34.7049 0C37.9598 0.00025953 41.1081 1.16028 43.5849 3.27195C46.0618 5.38363 47.7053 8.30877 48.2204 11.5226C48.7355 14.7365 48.0886 18.0287 46.3958 20.8087C44.7029 23.5887 42.0749 25.6745 38.9832 26.692C39.9475 27.5464 41.3585 27.9865 43.6239 27.6305C43.7472 27.6083 43.8737 27.6108 43.9961 27.6379C44.1185 27.665 44.2342 27.7162 44.3366 27.7885C44.439 27.8608 44.526 27.9527 44.5926 28.0589C44.6591 28.1651 44.7038 28.2835 44.7242 28.4072ZM34.7049 25.4688C37.035 25.4688 39.3128 24.7777 41.2501 23.4831C43.1874 22.1884 44.6972 20.3483 45.5886 18.1955C46.48 16.0426 46.7129 13.6738 46.2578 11.3886C45.8028 9.10335 44.6802 7.00442 43.0321 5.35726C41.3841 3.71009 39.2845 2.5887 36.9991 2.1349C34.7136 1.68111 32.3449 1.91531 30.1925 2.80788C28.0402 3.70046 26.2009 5.2113 24.9073 7.14931C23.6137 9.08733 22.9239 11.3654 22.9252 13.6955C22.9304 16.8175 24.1733 19.8101 26.3815 22.0171C28.5897 24.2241 31.5829 25.4653 34.7049 25.4688ZM29.6047 47.0865C28.2196 44.8859 26.1161 41.5591 22.9446 40.9571C22.5084 40.8698 22.058 40.8827 21.6275 40.9949C21.1969 41.107 20.7975 41.3154 20.4592 41.6044C18.4593 43.2613 18.2263 47.6043 18.2263 50.724C18.2263 50.9729 18.3252 51.2116 18.5012 51.3876C18.6772 51.5636 18.9159 51.6624 19.1648 51.6624C19.4137 51.6624 19.6524 51.5636 19.8284 51.3876C20.0044 51.2116 20.1033 50.9729 20.1033 50.724C20.1033 45.4425 20.9511 43.6367 21.6566 43.0477C21.7849 42.9402 21.9369 42.8648 22.1001 42.8277C22.2633 42.7905 22.433 42.7927 22.5951 42.8341C24.964 43.2807 26.8022 46.1933 28.019 48.1156C28.3537 48.6704 28.7189 49.2063 29.1128 49.7207C29.187 49.8262 29.2821 49.9152 29.3922 49.9823C29.5023 50.0494 29.6251 50.093 29.7528 50.1106C29.8805 50.1281 30.0105 50.1191 30.1346 50.0842C30.2587 50.0493 30.3743 49.9891 30.4742 49.9076C30.574 49.826 30.656 49.7247 30.715 49.6101C30.7739 49.4954 30.8087 49.3699 30.817 49.2412C30.8253 49.1125 30.807 48.9835 30.7632 48.8623C30.7194 48.741 30.6512 48.63 30.5626 48.5363C30.3102 48.1997 29.9866 47.6819 29.6047 47.0865ZM37.4233 43.2743C26.0708 36.5042 22.1938 24.2455 22.1615 24.1225C22.0885 23.8839 21.9238 23.6841 21.7035 23.5669C21.4832 23.4498 21.2253 23.425 20.9867 23.4979C20.7481 23.5709 20.5483 23.7356 20.4312 23.9559C20.314 24.1763 20.2892 24.4341 20.3622 24.6727C20.5304 25.2034 24.4721 37.7274 36.4654 44.8859C36.6102 44.9721 36.7759 45.0169 36.9444 45.0153C37.1486 45.0137 37.3467 44.9455 37.5087 44.821C37.6707 44.6966 37.7876 44.5227 37.8418 44.3258C37.896 44.1288 37.8844 43.9196 37.8089 43.7298C37.7334 43.5401 37.598 43.3801 37.4233 43.2743ZM40.4071 8.53058L32.8409 16.1809L29.1128 12.4464C28.9898 12.3245 28.8429 12.2294 28.6814 12.167C28.5199 12.1047 28.3473 12.0764 28.1743 12.0839C27.8283 12.0785 27.4938 12.2086 27.2423 12.4464C27.0279 12.6944 26.9006 13.0059 26.8798 13.3331C26.8972 13.6681 27.0272 13.9874 27.2488 14.2392L31.9089 18.8993C32.1567 19.1249 32.4798 19.2499 32.815 19.2499C33.1502 19.2499 33.4733 19.1249 33.7211 18.8993L42.2258 10.3946C42.3472 10.2726 42.442 10.1268 42.5044 9.96646C42.5667 9.80608 42.5953 9.63454 42.5883 9.4626C42.5785 9.11943 42.4505 8.79017 42.2258 8.53058C42.1085 8.40741 41.9675 8.30935 41.8111 8.24234C41.6548 8.17533 41.4865 8.14078 41.3165 8.14078C41.1464 8.14078 40.9781 8.17533 40.8218 8.24234C40.6654 8.30935 40.5244 8.40741 40.4071 8.53058Z" fill="url(#paint0_linear)"/>
<defs>
<linearGradient id="paint0_linear" x1="24.1965" y1="0" x2="24.1965" y2="51.6624" gradientUnits="userSpaceOnUse">
<stop stop-color="#00D1FF"/>
<stop offset="1" stop-color="#003399"/>
</linearGradient>
</defs>
</svg>
