<svg width="24" height="15" viewBox="0 0 24 15" fill="none" xmlns="http://www.w3.org/2000/svg">
<path d="M0.935199 9.37557e-05C0.813015 -0.00166314 0.691705 0.0212878 0.57832 0.0676126C0.464935 0.113937 0.361736 0.182712 0.274721 0.26994C0.187706 0.357168 0.11861 0.46111 0.0714481 0.575725C0.0242865 0.69034 0 0.813341 0 0.937582C0 1.06182 0.0242865 1.18482 0.0714481 1.29944C0.11861 1.41405 0.187706 1.518 0.274721 1.60522C0.361736 1.69245 0.464935 1.76123 0.57832 1.80755C0.691705 1.85388 0.813015 1.87683 0.935199 1.87507H23.0648C23.187 1.87683 23.3083 1.85388 23.4217 1.80755C23.5351 1.76123 23.6383 1.69245 23.7253 1.60522C23.8123 1.518 23.8814 1.41405 23.9286 1.29944C23.9757 1.18482 24 1.06182 24 0.937582C24 0.813341 23.9757 0.69034 23.9286 0.575725C23.8814 0.46111 23.8123 0.357168 23.7253 0.26994C23.6383 0.182712 23.5351 0.113937 23.4217 0.0676126C23.3083 0.0212878 23.187 -0.00166314 23.0648 9.37557e-05H0.935199ZM0.935199 6.56251C0.813015 6.56075 0.691705 6.58371 0.57832 6.63003C0.464935 6.67635 0.361736 6.74513 0.274721 6.83236C0.187706 6.91959 0.11861 7.02353 0.0714481 7.13814C0.0242865 7.25276 0 7.37576 0 7.5C0 7.62424 0.0242865 7.74724 0.0714481 7.86186C0.11861 7.97647 0.187706 8.08041 0.274721 8.16764C0.361736 8.25487 0.464935 8.32364 0.57832 8.36997C0.691705 8.41629 0.813015 8.43925 0.935199 8.43749H23.0648C23.187 8.43925 23.3083 8.41629 23.4217 8.36997C23.5351 8.32364 23.6383 8.25487 23.7253 8.16764C23.8123 8.08041 23.8814 7.97647 23.9286 7.86186C23.9757 7.74724 24 7.62424 24 7.5C24 7.37576 23.9757 7.25276 23.9286 7.13814C23.8814 7.02353 23.8123 6.91959 23.7253 6.83236C23.6383 6.74513 23.5351 6.67635 23.4217 6.63003C23.3083 6.58371 23.187 6.56075 23.0648 6.56251H0.935199ZM0.935199 13.1249C0.813015 13.1232 0.691705 13.1461 0.57832 13.1924C0.464935 13.2388 0.361736 13.3075 0.274721 13.3948C0.187706 13.482 0.11861 13.5859 0.0714481 13.7006C0.0242865 13.8152 0 13.9382 0 14.0624C0 14.1867 0.0242865 14.3097 0.0714481 14.4243C0.11861 14.5389 0.187706 14.6428 0.274721 14.7301C0.361736 14.8173 0.464935 14.8861 0.57832 14.9324C0.691705 14.9787 0.813015 15.0017 0.935199 14.9999H23.0648C23.187 15.0017 23.3083 14.9787 23.4217 14.9324C23.5351 14.8861 23.6383 14.8173 23.7253 14.7301C23.8123 14.6428 23.8814 14.5389 23.9286 14.4243C23.9757 14.3097 24 14.1867 24 14.0624C24 13.9382 23.9757 13.8152 23.9286 13.7006C23.8814 13.5859 23.8123 13.482 23.7253 13.3948C23.6383 13.3075 23.5351 13.2388 23.4217 13.1924C23.3083 13.1461 23.187 13.1232 23.0648 13.1249H0.935199Z" fill="#000066"/>
</svg>
