<svg width="27" height="40" viewBox="0 0 27 40" fill="none" xmlns="http://www.w3.org/2000/svg">
<path d="M14.5246 40H12.142C5.45246 40 0 34.5475 0 27.858V12.142C0 5.45246 5.45246 0 12.142 0H14.5246C21.2142 0 26.6667 5.45246 26.6667 12.142V27.858C26.6667 34.5475 21.2142 40 14.5246 40ZM12.142 2.29095C6.7354 2.29095 2.29095 6.68958 2.29095 12.142V27.858C2.29095 33.3104 6.7354 37.709 12.142 37.709H14.5246C19.9771 37.709 24.3757 33.2646 24.3757 27.858V12.142C24.3757 6.68958 19.9313 2.29095 14.5246 2.29095H12.142Z" fill="white"/>
<path d="M19.015 21.2143C18.6026 20.7561 17.8695 20.7561 17.4113 21.2143L14.4789 24.4216V12.7836C14.4789 12.1421 13.9749 11.6381 13.3334 11.6381C12.692 11.6381 12.188 12.1421 12.188 12.7836V24.4674L9.25553 21.2601C8.84316 20.8019 8.11006 20.8019 7.65187 21.2601C7.28532 21.6725 7.28532 22.314 7.65187 22.7263L12.5087 28.0871C12.9211 28.5453 13.6542 28.5453 14.1123 28.0871L19.015 22.7263C19.3815 22.2681 19.3815 21.6267 19.015 21.2143Z" fill="white"/>
</svg>
