<svg width="58" height="60" viewBox="0 0 58 60" fill="none" xmlns="http://www.w3.org/2000/svg">
<path d="M47 49H11V13H47V49ZM13.4 46.6H44.6V15.4H13.4V46.6Z" fill="url(#paint0_linear)"/>
<path d="M41 43H17V19H41V43ZM19.4 40.6H38.6V21.4H19.4V40.6Z" fill="url(#paint1_linear)"/>
<path d="M33 16H25V8H33V16ZM27.6667 13.7143H30.3333V10.2857H27.6667V13.7143Z" fill="url(#paint2_linear)"/>
<path d="M23 53H16V46H23V53ZM18.3333 50.6667H20.6667V48.3333H18.3333V50.6667Z" fill="url(#paint3_linear)"/>
<path d="M23 16H16V4H23V16ZM18.3333 13.6H20.6667V6.4H18.3333V13.6Z" fill="url(#paint4_linear)"/>
<path d="M43 58H36V46H43V58ZM38.3333 55.6H40.6667V48.4H38.3333V55.6Z" fill="url(#paint5_linear)"/>
<path d="M14 35H6V27H14V35ZM8.28571 32.3333H11.7143V29.6667H8.28571V32.3333Z" fill="url(#paint6_linear)"/>
<path d="M14 25H2V18H14V25ZM4.4 22.6667H11.6V20.3333H4.4V22.6667Z" fill="url(#paint7_linear)"/>
<path d="M52 35H44V27H52V35ZM46.2857 32.3333H49.7143V29.6667H46.2857V32.3333Z" fill="url(#paint8_linear)"/>
<path d="M56 44H44V37H56V44ZM46.4 41.6667H53.6V39.3333H46.4V41.6667Z" fill="url(#paint9_linear)"/>
<path d="M29 60C28.0381 59.9969 27.0975 59.7367 26.2901 59.2505C25.4828 58.7642 24.8427 58.0723 24.4462 57.2572C24.0497 56.4421 23.9134 55.5382 24.0536 54.6531C24.1938 53.768 24.6046 52.9391 25.237 52.265V46H32.763V52.265C33.3954 52.9391 33.8062 53.768 33.9464 54.6531C34.0866 55.5382 33.9503 56.4421 33.5538 57.2572C33.1573 58.0723 32.5172 58.7642 31.7099 59.2505C30.9025 59.7367 29.9619 59.9969 29 60ZM27.7457 48.3333V53.2567L27.3317 53.6067C26.9519 53.9212 26.6839 54.3357 26.5631 54.7952C26.4423 55.2546 26.4746 55.7374 26.6555 56.1794C26.8364 56.6215 27.1575 57.002 27.5762 57.2704C27.9949 57.5389 28.4915 57.6826 29 57.6826C29.5085 57.6826 30.0051 57.5389 30.4238 57.2704C30.8425 57.002 31.1636 56.6215 31.3445 56.1794C31.5254 55.7374 31.5577 55.2546 31.4369 54.7952C31.3161 54.3357 31.0481 53.9212 30.6683 53.6067L30.2543 53.2567V48.3333H27.7457Z" fill="url(#paint10_linear)"/>
<path d="M4.67888 46C3.92403 46.0028 3.17975 45.8286 2.51006 45.4923C1.84037 45.156 1.2653 44.6677 0.834317 44.0693C0.403332 43.4709 0.129325 42.7804 0.0358626 42.0572C-0.0576 41.3339 0.0322788 40.5996 0.297769 39.9173C0.563258 39.235 0.996414 38.6252 1.55998 38.1403C2.12355 37.6554 2.80067 37.31 3.53311 37.1337C4.26554 36.9573 5.03137 36.9554 5.76473 37.1281C6.4981 37.3008 7.17705 37.6429 7.7432 38.125H14V44.875H7.7432C6.89657 45.5959 5.80771 45.9957 4.67888 46ZM4.67888 39.25C4.28929 39.2474 3.90525 39.3392 3.56189 39.5169C3.21853 39.6947 2.92681 39.9527 2.7134 40.2674C2.49999 40.5821 2.37171 40.9435 2.34029 41.3185C2.30887 41.6934 2.37531 42.07 2.53354 42.4137C2.69177 42.7575 2.93673 43.0574 3.24603 43.2862C3.55533 43.5149 3.91909 43.6651 4.30403 43.7231C4.68898 43.781 5.08283 43.7448 5.44956 43.6179C5.81629 43.4909 6.14419 43.2772 6.40328 42.9962L6.75283 42.625H11.6697V40.375H6.75283L6.40328 40.0037C6.18646 39.7686 5.92095 39.58 5.62391 39.4502C5.32688 39.3203 5.00493 39.2521 4.67888 39.25Z" fill="url(#paint11_linear)"/>
<path d="M53.3211 25C52.1923 24.9957 51.1034 24.5959 50.2568 23.875H44V17.125H50.2568C50.823 16.6429 51.5019 16.3008 52.2353 16.1281C52.9686 15.9554 53.7345 15.9573 54.4669 16.1337C55.1993 16.31 55.8764 16.6554 56.44 17.1403C57.0036 17.6252 57.4367 18.235 57.7022 18.9173C57.9677 19.5996 58.0576 20.3339 57.9641 21.0572C57.8707 21.7804 57.5967 22.4709 57.1657 23.0693C56.7347 23.6677 56.1596 24.156 55.4899 24.4923C54.8203 24.8286 54.076 25.0028 53.3211 25ZM46.3303 21.625H51.2472L51.5967 21.9962C51.9109 22.3369 52.3248 22.5773 52.7837 22.6856C53.2425 22.7939 53.7247 22.765 54.1661 22.6027C54.6076 22.4405 54.9876 22.1525 55.2557 21.7769C55.5238 21.4014 55.6674 20.9561 55.6674 20.5C55.6674 20.0439 55.5238 19.5985 55.2557 19.223C54.9876 18.8474 54.6076 18.5595 54.1661 18.3972C53.7247 18.2349 53.2425 18.206 52.7837 18.3143C52.3248 18.4227 51.9109 18.6631 51.5967 19.0037L51.2472 19.375H46.3303V21.625Z" fill="url(#paint12_linear)"/>
<path d="M42.833 16H36.1309V8.35259C35.4078 7.48496 35.0098 6.35996 35.0138 5.19519C34.9676 4.56456 35.0374 3.93033 35.2193 3.3287C35.4011 2.72707 35.6915 2.16983 36.0737 1.6888C36.8456 0.717302 37.945 0.115175 39.13 0.0148787C40.3151 -0.0854178 41.4886 0.324332 42.3925 1.15399C43.2964 1.98364 43.8567 3.16524 43.95 4.43885C44.0492 5.13949 44.0004 5.85516 43.807 6.53271C43.6136 7.21026 43.2807 7.83229 42.833 8.35259V16ZM38.3649 13.5989H40.5989V7.32013L40.9675 6.97198C41.2527 6.70705 41.4709 6.36888 41.6018 5.98894C41.7326 5.609 41.7719 5.19966 41.7159 4.79901C41.6601 4.41846 41.52 4.05792 41.3072 3.74785C41.0945 3.43777 40.8155 3.18726 40.4937 3.01747C40.172 2.84768 39.8169 2.7636 39.4586 2.77232C39.1002 2.78103 38.7491 2.8823 38.4348 3.06757C38.1205 3.25284 37.8523 3.51666 37.6529 3.83676C37.4534 4.15687 37.3286 4.52385 37.2889 4.90673C37.2491 5.28961 37.2957 5.67713 37.4247 6.03659C37.5536 6.39604 37.7612 6.71687 38.0298 6.97198L38.3984 7.32013L38.3649 13.5989Z" fill="url(#paint13_linear)"/>
<defs>
<linearGradient id="paint0_linear" x1="29" y1="0" x2="29" y2="60" gradientUnits="userSpaceOnUse">
<stop stop-color="#00D1FF"/>
<stop offset="1" stop-color="#003399"/>
</linearGradient>
<linearGradient id="paint1_linear" x1="29" y1="0" x2="29" y2="60" gradientUnits="userSpaceOnUse">
<stop stop-color="#00D1FF"/>
<stop offset="1" stop-color="#003399"/>
</linearGradient>
<linearGradient id="paint2_linear" x1="29" y1="0" x2="29" y2="60" gradientUnits="userSpaceOnUse">
<stop stop-color="#00D1FF"/>
<stop offset="1" stop-color="#003399"/>
</linearGradient>
<linearGradient id="paint3_linear" x1="29" y1="0" x2="29" y2="60" gradientUnits="userSpaceOnUse">
<stop stop-color="#00D1FF"/>
<stop offset="1" stop-color="#003399"/>
</linearGradient>
<linearGradient id="paint4_linear" x1="29" y1="0" x2="29" y2="60" gradientUnits="userSpaceOnUse">
<stop stop-color="#00D1FF"/>
<stop offset="1" stop-color="#003399"/>
</linearGradient>
<linearGradient id="paint5_linear" x1="29" y1="0" x2="29" y2="60" gradientUnits="userSpaceOnUse">
<stop stop-color="#00D1FF"/>
<stop offset="1" stop-color="#003399"/>
</linearGradient>
<linearGradient id="paint6_linear" x1="29" y1="0" x2="29" y2="60" gradientUnits="userSpaceOnUse">
<stop stop-color="#00D1FF"/>
<stop offset="1" stop-color="#003399"/>
</linearGradient>
<linearGradient id="paint7_linear" x1="29" y1="0" x2="29" y2="60" gradientUnits="userSpaceOnUse">
<stop stop-color="#00D1FF"/>
<stop offset="1" stop-color="#003399"/>
</linearGradient>
<linearGradient id="paint8_linear" x1="29" y1="0" x2="29" y2="60" gradientUnits="userSpaceOnUse">
<stop stop-color="#00D1FF"/>
<stop offset="1" stop-color="#003399"/>
</linearGradient>
<linearGradient id="paint9_linear" x1="29" y1="0" x2="29" y2="60" gradientUnits="userSpaceOnUse">
<stop stop-color="#00D1FF"/>
<stop offset="1" stop-color="#003399"/>
</linearGradient>
<linearGradient id="paint10_linear" x1="29" y1="0" x2="29" y2="60" gradientUnits="userSpaceOnUse">
<stop stop-color="#00D1FF"/>
<stop offset="1" stop-color="#003399"/>
</linearGradient>
<linearGradient id="paint11_linear" x1="29" y1="0" x2="29" y2="60" gradientUnits="userSpaceOnUse">
<stop stop-color="#00D1FF"/>
<stop offset="1" stop-color="#003399"/>
</linearGradient>
<linearGradient id="paint12_linear" x1="29" y1="0" x2="29" y2="60" gradientUnits="userSpaceOnUse">
<stop stop-color="#00D1FF"/>
<stop offset="1" stop-color="#003399"/>
</linearGradient>
<linearGradient id="paint13_linear" x1="29" y1="0" x2="29" y2="60" gradientUnits="userSpaceOnUse">
<stop stop-color="#00D1FF"/>
<stop offset="1" stop-color="#003399"/>
</linearGradient>
</defs>
</svg>
