<svg width="41" height="44" viewBox="0 0 41 44" fill="none" xmlns="http://www.w3.org/2000/svg">
<path d="M40.76 37.8452L38.0545 30.7435C37.7383 29.8489 37.1538 29.0737 36.3808 28.5235C35.6078 27.9733 34.6839 27.675 33.7351 27.6691H30.922C33.8889 24.2317 35.63 19.9061 35.8717 15.3717C35.8717 11.2949 34.2522 7.38504 31.3695 4.50228C28.4867 1.61952 24.5768 0 20.5 0C16.4232 0 12.5133 1.61952 9.63053 4.50228C6.74777 7.38504 5.12825 11.2949 5.12825 15.3717C5.37 19.9061 7.11105 24.2317 10.078 27.6691H7.26492C6.31613 27.675 5.39222 27.9733 4.61921 28.5235C3.8462 29.0737 3.26172 29.8489 2.94546 30.7435L0.240034 37.8452C0.0246491 38.427 -0.0472921 39.0521 0.0303094 39.6675C0.107911 40.283 0.332767 40.8707 0.685815 41.3807C1.03622 41.8931 1.50644 42.3122 2.05561 42.6015C2.60479 42.8908 3.2163 43.0416 3.83702 43.0409H37.163C37.7837 43.0416 38.3952 42.8908 38.9444 42.6015C39.4936 42.3122 39.9638 41.8931 40.3142 41.3807C40.6672 40.8707 40.8921 40.283 40.9697 39.6675C41.0473 39.0521 40.9753 38.427 40.76 37.8452ZM20.5 3.07435C23.7615 3.07435 26.8894 4.36997 29.1956 6.67618C31.5018 8.98238 32.7974 12.1103 32.7974 15.3717C32.7974 23.6879 23.4206 31.2969 20.5 33.4643C17.5794 31.2969 8.2026 23.6879 8.2026 15.3717C8.2026 12.1103 9.49821 8.98238 11.8044 6.67618C14.1106 4.36997 17.2385 3.07435 20.5 3.07435ZM37.7932 39.6284C37.7255 39.7336 37.6321 39.8198 37.5218 39.8789C37.4116 39.9381 37.2881 39.9682 37.163 39.9665H3.83702C3.71192 39.9682 3.58843 39.9381 3.47819 39.8789C3.36794 39.8198 3.27454 39.7336 3.20678 39.6284C3.15018 39.5191 3.12064 39.3979 3.12064 39.2748C3.12064 39.1518 3.15018 39.0305 3.20678 38.9213L5.89684 31.7427C6.00192 31.4604 6.18759 31.2152 6.43082 31.0376C6.67404 30.86 6.96408 30.7577 7.26492 30.7435H12.8141C14.9173 32.9322 17.2347 34.9046 19.7314 36.6309C19.9824 36.7962 20.2763 36.8843 20.5769 36.8843C20.8774 36.8843 21.1713 36.7962 21.4223 36.6309C23.8923 34.9004 26.1838 32.9282 28.2627 30.7435H33.7351C34.0492 30.7425 34.356 30.8377 34.6143 31.0163C34.8727 31.195 35.0701 31.4484 35.18 31.7427L37.8701 38.9213C37.9152 39.0366 37.9317 39.1611 37.9184 39.2842C37.905 39.4074 37.862 39.5254 37.7932 39.6284ZM28.1859 15.3717C28.1859 13.8516 27.7351 12.3656 26.8906 11.1017C26.046 9.83777 24.8457 8.85265 23.4413 8.27093C22.0368 7.6892 20.4915 7.537 19.0006 7.83356C17.5096 8.13012 16.1402 8.86213 15.0653 9.93702C13.9904 11.0119 13.2584 12.3814 12.9618 13.8723C12.6652 15.3632 12.8175 16.9086 13.3992 18.313C13.9809 19.7174 14.966 20.9178 16.23 21.7623C17.4939 22.6069 18.9799 23.0576 20.5 23.0576C22.5384 23.0576 24.4934 22.2479 25.9347 20.8065C27.3761 19.3651 28.1859 17.4102 28.1859 15.3717ZM15.8885 15.3717C15.8885 14.4597 16.1589 13.5681 16.6657 12.8097C17.1724 12.0514 17.8926 11.4603 18.7352 11.1113C19.5779 10.7622 20.5051 10.6709 21.3997 10.8488C22.2942 11.0268 23.1159 11.466 23.7608 12.1109C24.4058 12.7558 24.845 13.5775 25.0229 14.4721C25.2009 15.3666 25.1095 16.2939 24.7605 17.1365C24.4115 17.9791 23.8204 18.6994 23.062 19.2061C22.3037 19.7128 21.4121 19.9833 20.5 19.9833C19.2769 19.9833 18.104 19.4974 17.2392 18.6326C16.3743 17.7678 15.8885 16.5948 15.8885 15.3717Z" fill="url(#paint0_linear)"/>
<defs>
<linearGradient id="paint0_linear" x1="20.5" y1="0" x2="20.5" y2="43.0409" gradientUnits="userSpaceOnUse">
<stop stop-color="#00D1FF"/>
<stop offset="0.947917" stop-color="#003399"/>
</linearGradient>
</defs>
</svg>
